{"glyphs":{"0":{"ha":807,"x_min":39,"x_max":768,"o":"m 403 944 q 679 817 590 944 q 768 471 768 689 q 677 110 768 250 q 403 -31 586 -31 q 130 103 221 -31 q 39 453 39 238 q 128 810 39 675 q 403 944 217 944 m 403 69 q 504 174 478 69 q 531 463 531 279 q 504 741 531 638 q 403 844 478 844 q 303 741 329 844 q 276 463 276 638 q 303 174 276 279 q 403 69 329 69 z "},"1":{"ha":807,"x_min":47,"x_max":763,"o":"m 763 114 l 763 0 l 104 0 l 104 114 l 340 114 l 340 707 q 228 642 274 663 q 143 621 182 621 q 70 650 93 621 q 47 738 47 679 q 282 828 158 774 q 511 942 406 883 l 571 913 l 571 114 l 763 114 z "},"2":{"ha":807,"x_min":49,"x_max":742,"o":"m 356 944 q 620 875 521 944 q 719 672 719 806 q 645 458 719 558 q 406 229 571 357 q 304 160 346 188 l 742 167 l 736 0 l 58 0 l 49 101 q 246 282 158 190 q 420 463 357 379 q 483 635 483 547 q 434 747 483 708 q 301 786 385 786 q 104 639 169 786 q 65 678 78 653 q 50 743 53 704 q 98 855 53 810 q 212 922 143 900 q 356 944 281 944 z "},"3":{"ha":807,"x_min":61,"x_max":740,"o":"m 369 944 q 605 890 517 944 q 693 721 693 835 q 649 585 693 644 q 531 496 606 525 q 685 422 631 479 q 740 268 740 364 q 691 108 740 175 q 552 5 642 40 q 343 -31 463 -31 q 144 17 228 -31 q 61 164 61 65 q 97 243 61 221 q 310 128 158 128 q 453 167 401 128 q 504 278 504 206 q 457 386 504 353 q 321 419 410 419 q 263 417 296 419 l 263 514 q 426 550 363 515 q 490 664 490 585 q 440 754 490 724 q 308 785 390 785 q 126 658 185 785 q 72 749 79 681 q 116 858 72 814 q 228 924 160 903 q 369 944 296 944 z "},"4":{"ha":807,"x_min":10,"x_max":801,"o":"m 665 326 l 801 326 l 790 183 l 667 183 l 667 0 l 429 0 l 429 183 l 51 183 q 21 208 32 190 q 10 253 10 226 q 46 346 10 294 l 435 917 l 665 917 l 665 326 m 433 717 l 169 326 l 433 326 l 433 717 z "},"5":{"ha":807,"x_min":49,"x_max":742,"o":"m 674 746 l 247 746 l 231 565 q 382 574 300 574 q 649 506 557 574 q 742 289 742 438 q 692 121 742 193 q 553 9 642 49 q 354 -31 465 -31 q 138 18 226 -31 q 49 164 49 67 q 85 243 49 221 q 321 128 140 128 q 453 170 401 128 q 506 285 506 213 q 442 407 506 372 q 263 442 378 442 q 89 429 179 442 l 132 917 l 661 917 l 674 746 z "},"6":{"ha":807,"x_min":43,"x_max":764,"o":"m 474 944 q 636 910 561 944 q 711 808 711 875 q 675 735 711 763 q 597 776 643 763 q 504 790 550 790 q 342 722 390 790 q 290 524 293 654 q 379 592 324 569 q 501 615 435 615 q 699 527 635 615 q 764 315 764 439 q 720 134 764 213 q 598 13 676 56 q 417 -31 519 -31 q 209 28 293 -31 q 84 189 125 86 q 43 422 43 292 q 91 685 43 567 q 235 874 139 804 q 474 944 332 944 m 417 506 q 294 293 303 506 q 324 135 297 200 q 417 69 351 69 q 511 135 483 69 q 539 293 539 201 q 510 442 539 378 q 417 506 481 506 z "},"7":{"ha":807,"x_min":53,"x_max":775,"o":"m 765 917 l 775 815 l 400 -32 l 149 1 l 550 757 l 53 743 l 57 917 l 765 917 z "},"8":{"ha":807,"x_min":49,"x_max":758,"o":"m 710 726 q 661 598 710 656 q 538 504 613 540 q 699 385 640 447 q 758 235 758 324 q 658 35 758 100 q 401 -31 557 -31 q 149 34 249 -31 q 49 231 49 99 q 103 366 49 306 q 242 467 157 426 q 123 575 167 517 q 79 706 79 633 q 172 885 79 826 q 406 944 264 944 q 623 890 536 944 q 710 726 710 836 m 304 733 q 342 645 304 686 q 447 561 379 604 q 496 636 479 592 q 513 726 513 681 q 485 812 513 779 q 406 844 457 844 q 331 815 357 844 q 304 733 304 785 m 524 200 q 476 299 524 256 q 332 404 429 343 q 283 319 301 368 q 265 225 265 271 q 301 113 265 156 q 401 69 336 69 q 492 103 461 69 q 524 200 524 138 z "},"9":{"ha":807,"x_min":38,"x_max":758,"o":"m 385 944 q 592 886 508 944 q 717 725 676 828 q 758 492 758 622 q 710 228 758 347 q 566 40 663 110 q 328 -31 469 -31 q 219 -16 275 -31 q 127 29 164 -1 q 90 106 90 60 q 126 179 90 151 q 205 138 158 151 q 297 124 251 124 q 460 192 413 124 q 511 390 508 260 q 422 322 476 344 q 300 299 367 299 q 102 387 167 299 q 38 599 38 475 q 81 780 38 701 q 203 901 124 858 q 385 944 282 944 m 385 844 q 290 778 318 844 q 263 621 263 713 q 290 471 263 533 q 385 408 318 408 q 480 469 453 408 q 507 621 507 531 q 479 778 507 713 q 385 844 451 844 z "},"\u0000":{"ha":0,"x_min":0,"x_max":0,"o":""},"\r":{"ha":243,"x_min":0,"x_max":0,"o":""}," ":{"ha":243,"x_min":0,"x_max":0,"o":""},"A":{"ha":760,"x_min":-6,"x_max":758,"o":"m 524 917 l 758 0 l 524 0 l 471 226 l 214 226 l 163 0 l -6 0 l 247 917 l 524 917 m 240 336 l 446 336 l 342 781 l 240 336 z "},"Á":{"ha":760,"x_min":-6,"x_max":758,"o":"m 0 0 m 524 917 l 758 0 l 524 0 l 471 226 l 214 226 l 163 0 l -6 0 l 247 917 l 524 917 m 240 336 l 446 336 l 342 781 l 240 336 m 572 1181 q 606 1141 593 1164 q 618 1094 618 1118 q 574 1024 618 1042 q 453 1000 531 1006 l 269 986 l 253 1051 l 572 1181 z "},"Ă":{"ha":760,"x_min":-6,"x_max":758,"o":"m 0 0 m 524 917 l 758 0 l 524 0 l 471 226 l 214 226 l 163 0 l -6 0 l 247 917 l 524 917 m 240 336 l 446 336 l 342 781 l 240 336 m 619 1153 q 560 1013 619 1063 q 381 963 501 963 q 199 1013 258 963 q 140 1153 140 1063 l 307 1153 q 310 1090 307 1113 q 330 1051 314 1067 q 381 1035 346 1035 q 430 1051 414 1035 q 449 1090 446 1067 q 453 1153 453 1113 l 619 1153 z "},"Â":{"ha":760,"x_min":-6,"x_max":758,"o":"m 0 0 m 524 917 l 758 0 l 524 0 l 471 226 l 214 226 l 163 0 l -6 0 l 247 917 l 524 917 m 240 336 l 446 336 l 342 781 l 240 336 m 204 940 l 157 997 l 363 1169 l 396 1169 l 606 997 l 558 940 l 381 1026 l 204 940 z "},"Ä":{"ha":760,"x_min":-6,"x_max":758,"o":"m 0 0 m 524 917 l 758 0 l 524 0 l 471 226 l 214 226 l 163 0 l -6 0 l 247 917 l 524 917 m 240 336 l 446 336 l 342 781 l 240 336 m 531 1188 q 622 1161 588 1188 q 656 1088 656 1135 q 619 1013 656 1039 q 526 988 583 988 q 435 1013 471 988 q 400 1085 400 1039 q 437 1160 400 1133 q 531 1188 474 1188 m 233 1188 q 324 1161 290 1188 q 358 1088 358 1135 q 322 1013 358 1039 q 229 988 286 988 q 138 1013 174 988 q 103 1085 103 1039 q 140 1160 103 1133 q 233 1188 176 1188 z "},"À":{"ha":760,"x_min":-6,"x_max":758,"o":"m 0 0 m 524 917 l 758 0 l 524 0 l 471 226 l 214 226 l 163 0 l -6 0 l 247 917 l 524 917 m 240 336 l 446 336 l 342 781 l 240 336 m 307 1000 q 185 1024 229 1006 q 142 1094 142 1042 q 154 1141 142 1118 q 188 1181 167 1164 l 507 1051 l 490 986 l 307 1000 z "},"Ā":{"ha":760,"x_min":-6,"x_max":758,"o":"m 0 0 m 524 917 l 758 0 l 524 0 l 471 226 l 214 226 l 163 0 l -6 0 l 247 917 l 524 917 m 240 336 l 446 336 l 342 781 l 240 336 m 571 1172 q 583 1118 583 1147 q 562 1069 583 1088 q 503 1051 540 1051 l 189 1051 q 178 1103 178 1071 q 198 1153 178 1135 q 253 1172 218 1172 l 571 1172 z "},"Ą":{"ha":760,"x_min":-6,"x_max":824,"o":"m 797 -224 q 824 -269 824 -243 q 782 -334 824 -312 q 690 -356 740 -356 q 563 -319 613 -356 q 514 -212 514 -283 q 553 -93 514 -147 q 656 0 592 -39 l 524 0 l 471 226 l 214 226 l 163 0 l -6 0 l 247 917 l 524 917 l 754 18 l 767 14 l 757 7 l 758 0 l 749 0 q 676 -83 703 -37 q 649 -178 649 -129 q 667 -237 649 -219 q 726 -256 685 -256 q 767 -247 747 -256 q 797 -224 788 -239 m 240 336 l 446 336 l 342 781 l 240 336 z "},"Å":{"ha":760,"x_min":-6,"x_max":758,"o":"m 0 0 m 524 917 l 758 0 l 524 0 l 471 226 l 214 226 l 163 0 l -6 0 l 247 917 l 524 917 m 240 336 l 446 336 l 342 781 l 240 336 m 381 972 q 273 1007 315 972 q 231 1099 231 1042 q 272 1189 231 1157 q 381 1221 314 1221 q 489 1189 447 1221 q 531 1099 531 1157 q 488 1007 531 1042 q 381 972 446 972 m 381 1025 q 426 1045 411 1025 q 442 1099 442 1065 q 426 1149 442 1129 q 381 1169 410 1169 q 335 1149 351 1169 q 319 1099 319 1129 q 335 1045 319 1065 q 381 1025 350 1025 z "},"Ǻ":{"ha":760,"x_min":-6,"x_max":758,"o":"m 272 1101 l 256 1167 l 575 1296 q 608 1256 596 1279 q 621 1210 621 1233 q 577 1139 621 1157 q 456 1115 533 1121 l 272 1101 m 758 0 l 524 0 l 471 226 l 214 226 l 163 0 l -6 0 l 247 917 l 260 917 q 235 985 235 946 q 276 1066 235 1036 q 385 1096 318 1096 q 493 1066 451 1096 q 535 985 535 1036 q 510 917 535 946 l 524 917 l 758 0 m 325 985 q 340 935 325 954 q 385 917 354 917 q 431 935 415 917 q 446 985 446 954 q 430 1031 446 1013 q 385 1049 414 1049 q 340 1031 356 1049 q 325 985 325 1013 m 240 336 l 446 336 l 342 781 l 240 336 z "},"Ã":{"ha":760,"x_min":-6,"x_max":758,"o":"m 0 0 m 524 917 l 758 0 l 524 0 l 471 226 l 214 226 l 163 0 l -6 0 l 247 917 l 524 917 m 240 336 l 446 336 l 342 781 l 240 336 m 590 1150 q 615 1114 606 1135 q 625 1072 625 1093 q 513 993 625 993 q 440 1000 485 993 q 381 1008 394 1007 q 254 1024 294 1024 q 172 1000 197 1024 q 147 1035 157 1014 q 138 1076 138 1056 q 250 1156 138 1156 q 322 1149 278 1156 q 381 1140 367 1142 q 508 1125 467 1125 q 590 1150 565 1125 z "},"Æ":{"ha":979,"x_min":-40,"x_max":958,"o":"m 939 917 l 939 807 l 688 807 l 688 526 l 897 526 l 897 415 l 688 415 l 688 110 l 958 110 l 949 0 l 458 0 l 458 226 l 226 226 l 133 0 l -40 0 l 369 917 l 939 917 m 458 794 l 272 336 l 458 336 l 458 794 z "},"Ǽ":{"ha":979,"x_min":-40,"x_max":958,"o":"m 0 0 m 939 917 l 939 807 l 688 807 l 688 526 l 897 526 l 897 415 l 688 415 l 688 110 l 958 110 l 949 0 l 458 0 l 458 226 l 226 226 l 133 0 l -40 0 l 369 917 l 939 917 m 458 794 l 272 336 l 458 336 l 458 794 m 710 1181 q 743 1141 731 1164 q 756 1094 756 1118 q 712 1024 756 1042 q 590 1000 668 1006 l 407 986 l 390 1051 l 710 1181 z "},"B":{"ha":808,"x_min":76,"x_max":781,"o":"m 710 706 q 671 592 710 643 q 571 515 632 540 q 726 432 671 496 q 781 268 781 368 q 724 109 781 172 q 577 16 668 46 q 379 -14 486 -14 q 76 6 236 -14 l 76 908 q 385 924 254 924 q 623 876 536 924 q 710 706 710 829 m 307 539 q 361 535 331 535 q 506 692 506 535 q 379 822 506 822 q 307 815 344 822 l 307 539 m 307 94 q 382 86 344 86 q 506 132 464 86 q 549 264 549 178 q 502 400 549 358 q 357 442 456 442 q 307 439 335 442 l 307 94 z "},"C":{"ha":764,"x_min":38,"x_max":736,"o":"m 431 844 q 313 740 340 844 q 285 485 285 635 q 327 229 285 324 q 483 135 369 135 q 600 169 551 135 q 676 269 649 204 q 731 178 731 243 q 688 64 731 111 q 577 -7 644 17 q 436 -31 510 -31 q 133 101 229 -31 q 38 453 38 233 q 138 813 38 682 q 446 944 238 944 q 654 899 572 944 q 736 750 736 853 q 697 651 736 689 q 596 614 657 614 q 524 629 550 614 q 533 703 533 674 q 431 844 533 844 z "},"Ć":{"ha":764,"x_min":38,"x_max":736,"o":"m 38 0 m 431 844 q 313 740 340 844 q 285 485 285 635 q 327 229 285 324 q 483 135 369 135 q 600 169 551 135 q 676 269 649 204 q 731 178 731 243 q 688 64 731 111 q 577 -7 644 17 q 436 -31 510 -31 q 133 101 229 -31 q 38 453 38 233 q 138 813 38 682 q 446 944 238 944 q 654 899 572 944 q 736 750 736 853 q 697 651 736 689 q 596 614 657 614 q 524 629 550 614 q 533 703 533 674 q 431 844 533 844 m 624 1179 q 657 1140 644 1163 q 669 1093 669 1117 q 626 1022 669 1040 q 504 999 582 1004 l 321 985 l 304 1050 l 624 1179 z "},"Č":{"ha":764,"x_min":38,"x_max":736,"o":"m 38 0 m 431 844 q 313 740 340 844 q 285 485 285 635 q 327 229 285 324 q 483 135 369 135 q 600 169 551 135 q 676 269 649 204 q 731 178 731 243 q 688 64 731 111 q 577 -7 644 17 q 436 -31 510 -31 q 133 101 229 -31 q 38 453 38 233 q 138 813 38 682 q 446 944 238 944 q 654 899 572 944 q 736 750 736 853 q 697 651 736 689 q 596 614 657 614 q 524 629 550 614 q 533 703 533 674 q 431 844 533 844 m 606 1175 l 653 1118 l 454 960 l 407 960 l 204 1118 l 251 1175 l 429 1096 l 606 1175 z "},"Ç":{"ha":764,"x_min":38,"x_max":736,"o":"m 676 269 q 731 178 731 243 q 688 64 731 111 q 577 -7 644 17 q 436 -31 510 -31 l 435 -31 l 413 -85 q 451 -83 426 -83 q 570 -115 526 -83 q 614 -214 614 -147 q 557 -317 614 -279 q 422 -356 500 -356 q 325 -337 368 -356 q 282 -274 282 -318 q 297 -229 282 -244 q 401 -271 332 -271 q 453 -256 432 -271 q 474 -214 474 -240 q 371 -153 474 -153 q 314 -157 342 -153 l 363 -25 q 115 126 193 -1 q 38 453 38 254 q 138 813 38 682 q 446 944 238 944 q 654 899 572 944 q 736 750 736 853 q 697 651 736 689 q 596 614 657 614 q 524 629 550 614 q 533 703 533 674 q 431 844 533 844 q 313 740 340 844 q 285 485 285 635 q 327 229 285 324 q 483 135 369 135 q 600 169 551 135 q 676 269 649 204 z "},"Ĉ":{"ha":764,"x_min":38,"x_max":736,"o":"m 38 0 m 431 844 q 313 740 340 844 q 285 485 285 635 q 327 229 285 324 q 483 135 369 135 q 600 169 551 135 q 676 269 649 204 q 731 178 731 243 q 688 64 731 111 q 577 -7 644 17 q 436 -31 510 -31 q 133 101 229 -31 q 38 453 38 233 q 138 813 38 682 q 446 944 238 944 q 654 899 572 944 q 736 750 736 853 q 697 651 736 689 q 596 614 657 614 q 524 629 550 614 q 533 703 533 674 q 431 844 533 844 m 256 940 l 208 997 l 414 1169 l 447 1169 l 657 997 l 610 940 l 432 1026 l 256 940 z "},"Ċ":{"ha":764,"x_min":38,"x_max":736,"o":"m 38 0 m 431 844 q 313 740 340 844 q 285 485 285 635 q 327 229 285 324 q 483 135 369 135 q 600 169 551 135 q 676 269 649 204 q 731 178 731 243 q 688 64 731 111 q 577 -7 644 17 q 436 -31 510 -31 q 133 101 229 -31 q 38 453 38 233 q 138 813 38 682 q 446 944 238 944 q 654 899 572 944 q 736 750 736 853 q 697 651 736 689 q 596 614 657 614 q 524 629 550 614 q 533 703 533 674 q 431 844 533 844 m 436 1217 q 527 1190 493 1217 q 561 1117 561 1164 q 525 1042 561 1068 q 432 1017 489 1017 q 341 1042 376 1017 q 306 1114 306 1068 q 342 1190 306 1163 q 436 1217 379 1217 z "},"D":{"ha":853,"x_min":76,"x_max":815,"o":"m 76 908 q 404 924 254 924 q 715 810 615 924 q 815 475 815 696 q 708 113 815 240 q 379 -14 600 -14 q 76 6 236 -14 l 76 908 m 389 86 q 535 188 499 86 q 571 463 571 289 q 535 722 571 621 q 400 822 500 822 q 307 814 357 822 l 307 96 q 389 86 346 86 z "},"Ǳ":{"ha":1478,"x_min":76,"x_max":1476,"o":"m 76 0 m 76 908 q 404 924 254 924 q 715 810 615 924 q 815 475 815 696 q 708 113 815 240 q 379 -14 600 -14 q 76 6 236 -14 l 76 908 m 389 86 q 535 188 499 86 q 571 463 571 289 q 535 722 571 621 q 400 822 500 822 q 307 814 357 822 l 307 96 q 389 86 346 86 m 1453 917 l 1463 813 l 1107 114 l 1476 114 l 1465 0 l 871 0 l 861 104 l 1215 803 l 888 803 l 892 917 l 1453 917 z "},"Ǆ":{"ha":1478,"x_min":76,"x_max":1476,"o":"m 76 0 m 76 908 q 404 924 254 924 q 715 810 615 924 q 815 475 815 696 q 708 113 815 240 q 379 -14 600 -14 q 76 6 236 -14 l 76 908 m 389 86 q 535 188 499 86 q 571 463 571 289 q 535 722 571 621 q 400 822 500 822 q 307 814 357 822 l 307 96 q 389 86 346 86 m 1453 917 l 1463 813 l 1107 114 l 1476 114 l 1465 0 l 871 0 l 861 104 l 1215 803 l 888 803 l 892 917 l 1453 917 m 1342 1175 l 1389 1118 l 1190 960 l 1143 960 l 940 1118 l 988 1175 l 1165 1096 l 1342 1175 z "},"Ð":{"ha":860,"x_min":-14,"x_max":822,"o":"m 411 924 q 722 810 622 924 q 822 475 822 696 q 715 113 822 240 q 386 -14 607 -14 q 83 6 243 -14 l 83 407 l -6 407 q -14 454 -14 424 q 69 528 -14 528 l 83 528 l 83 908 q 411 924 261 924 m 396 86 q 542 188 506 86 q 578 463 578 289 q 542 722 578 621 q 407 822 507 822 q 314 814 364 822 l 314 528 l 469 528 q 478 481 478 507 q 456 425 478 443 q 393 407 433 407 l 314 407 l 314 96 q 396 86 353 86 z "},"Ď":{"ha":853,"x_min":76,"x_max":815,"o":"m 76 0 m 76 908 q 404 924 254 924 q 715 810 615 924 q 815 475 815 696 q 708 113 815 240 q 379 -14 600 -14 q 76 6 236 -14 l 76 908 m 389 86 q 535 188 499 86 q 571 463 571 289 q 535 722 571 621 q 400 822 500 822 q 307 814 357 822 l 307 96 q 389 86 346 86 m 579 1175 l 626 1118 l 428 960 l 381 960 l 178 1118 l 225 1175 l 403 1096 l 579 1175 z "},"Đ":{"ha":860,"x_min":-14,"x_max":822,"o":"m 411 924 q 722 810 622 924 q 822 475 822 696 q 715 113 822 240 q 386 -14 607 -14 q 83 6 243 -14 l 83 407 l -6 407 q -14 454 -14 424 q 69 528 -14 528 l 83 528 l 83 908 q 411 924 261 924 m 396 86 q 542 188 506 86 q 578 463 578 289 q 542 722 578 621 q 407 822 507 822 q 314 814 364 822 l 314 528 l 468 528 q 478 481 478 508 q 456 425 478 443 q 393 407 433 407 l 314 407 l 314 96 q 396 86 353 86 z "},"Ḍ":{"ha":853,"x_min":76,"x_max":815,"o":"m 76 0 m 76 908 q 404 924 254 924 q 715 810 615 924 q 815 475 815 696 q 708 113 815 240 q 379 -14 600 -14 q 76 6 236 -14 l 76 908 m 389 86 q 535 188 499 86 q 571 463 571 289 q 535 722 571 621 q 400 822 500 822 q 307 814 357 822 l 307 96 q 389 86 346 86 m 403 -65 q 494 -92 460 -65 q 528 -165 528 -118 q 492 -240 528 -214 q 399 -265 456 -265 q 308 -240 343 -265 q 272 -168 272 -214 q 309 -92 272 -119 q 403 -65 346 -65 z "},"ǲ":{"ha":1417,"x_min":76,"x_max":1400,"o":"m 76 0 m 76 908 q 404 924 254 924 q 715 810 615 924 q 815 475 815 696 q 708 113 815 240 q 379 -14 600 -14 q 76 6 236 -14 l 76 908 m 389 86 q 535 188 499 86 q 571 463 571 289 q 535 722 571 621 q 400 822 500 822 q 307 814 357 822 l 307 96 q 389 86 346 86 m 1385 708 l 1394 626 l 1099 106 l 1400 121 l 1389 0 l 869 0 l 860 83 l 1154 601 l 881 583 l 893 708 l 1385 708 z "},"ǅ":{"ha":1417,"x_min":76,"x_max":1400,"o":"m 76 0 m 76 908 q 404 924 254 924 q 715 810 615 924 q 815 475 815 696 q 708 113 815 240 q 379 -14 600 -14 q 76 6 236 -14 l 76 908 m 389 86 q 535 188 499 86 q 571 463 571 289 q 535 722 571 621 q 400 822 500 822 q 307 814 357 822 l 307 96 q 389 86 346 86 m 1385 708 l 1394 626 l 1099 106 l 1400 121 l 1389 0 l 869 0 l 860 83 l 1154 601 l 881 583 l 893 708 l 1385 708 m 1308 981 l 1356 924 l 1157 765 l 1110 765 l 907 924 l 954 981 l 1132 901 l 1308 981 z "},"E":{"ha":621,"x_min":76,"x_max":600,"o":"m 581 917 l 581 807 l 307 807 l 307 526 l 539 526 l 539 415 l 307 415 l 307 110 l 600 110 l 590 0 l 76 0 l 76 917 l 581 917 z "},"É":{"ha":621,"x_min":76,"x_max":600,"o":"m 76 0 m 581 917 l 581 807 l 307 807 l 307 526 l 539 526 l 539 415 l 307 415 l 307 110 l 600 110 l 590 0 l 76 0 l 76 917 l 581 917 m 521 1179 q 554 1140 542 1163 q 567 1093 567 1117 q 523 1022 567 1040 q 401 999 479 1004 l 218 985 l 201 1050 l 521 1179 z "},"Ĕ":{"ha":621,"x_min":76,"x_max":600,"o":"m 76 0 m 581 917 l 581 807 l 307 807 l 307 526 l 539 526 l 539 415 l 307 415 l 307 110 l 600 110 l 590 0 l 76 0 l 76 917 l 581 917 m 567 1153 q 508 1013 567 1063 q 328 963 449 963 q 147 1013 206 963 q 88 1153 88 1063 l 254 1153 q 258 1090 254 1113 q 277 1051 261 1067 q 328 1035 293 1035 q 377 1051 361 1035 q 397 1090 393 1067 q 400 1153 400 1113 l 567 1153 z "},"Ě":{"ha":621,"x_min":76,"x_max":600,"o":"m 76 0 m 581 917 l 581 807 l 307 807 l 307 526 l 539 526 l 539 415 l 307 415 l 307 110 l 600 110 l 590 0 l 76 0 l 76 917 l 581 917 m 503 1175 l 550 1118 l 351 960 l 304 960 l 101 1118 l 149 1175 l 326 1096 l 503 1175 z "},"Ê":{"ha":621,"x_min":76,"x_max":600,"o":"m 76 0 m 581 917 l 581 807 l 307 807 l 307 526 l 539 526 l 539 415 l 307 415 l 307 110 l 600 110 l 590 0 l 76 0 l 76 917 l 581 917 m 154 940 l 107 997 l 313 1169 l 346 1169 l 556 997 l 508 940 l 331 1026 l 154 940 z "},"Ë":{"ha":621,"x_min":53,"x_max":606,"o":"m 53 0 m 581 917 l 581 807 l 307 807 l 307 526 l 539 526 l 539 415 l 307 415 l 307 110 l 600 110 l 590 0 l 76 0 l 76 917 l 581 917 m 481 1188 q 572 1161 538 1188 q 606 1088 606 1135 q 569 1013 606 1039 q 476 988 533 988 q 385 1013 421 988 q 350 1085 350 1039 q 387 1160 350 1133 q 481 1188 424 1188 m 183 1188 q 274 1161 240 1188 q 308 1088 308 1135 q 272 1013 308 1039 q 179 988 236 988 q 88 1013 124 988 q 53 1085 53 1039 q 90 1160 53 1133 q 183 1188 126 1188 z "},"Ė":{"ha":621,"x_min":76,"x_max":600,"o":"m 76 0 m 338 1186 q 428 1160 394 1186 q 463 1086 463 1133 q 426 1012 463 1038 q 333 986 390 986 q 242 1012 278 986 q 207 1083 207 1038 q 244 1159 207 1132 q 338 1186 281 1186 m 581 917 l 581 807 l 307 807 l 307 526 l 539 526 l 539 415 l 307 415 l 307 110 l 600 110 l 590 0 l 76 0 l 76 917 l 581 917 z "},"Ẹ":{"ha":621,"x_min":76,"x_max":600,"o":"m 76 0 m 581 917 l 581 807 l 307 807 l 307 526 l 539 526 l 539 415 l 307 415 l 307 110 l 600 110 l 590 0 l 76 0 l 76 917 l 581 917 m 306 -65 q 397 -92 363 -65 q 431 -165 431 -118 q 394 -240 431 -214 q 301 -265 358 -265 q 210 -240 246 -265 q 175 -168 175 -214 q 212 -92 175 -119 q 306 -65 249 -65 z "},"È":{"ha":621,"x_min":76,"x_max":600,"o":"m 76 0 m 581 917 l 581 807 l 307 807 l 307 526 l 539 526 l 539 415 l 307 415 l 307 110 l 600 110 l 590 0 l 76 0 l 76 917 l 581 917 m 254 1000 q 133 1024 176 1006 q 89 1094 89 1042 q 101 1141 89 1118 q 135 1181 114 1164 l 454 1051 l 438 986 l 254 1000 z "},"Ē":{"ha":621,"x_min":76,"x_max":600,"o":"m 76 0 m 538 1114 q 550 1060 550 1089 q 528 1011 550 1029 q 469 993 507 993 l 156 993 q 144 1044 144 1013 q 165 1095 144 1076 q 219 1114 185 1114 l 538 1114 m 581 917 l 581 807 l 307 807 l 307 526 l 539 526 l 539 415 l 307 415 l 307 110 l 600 110 l 590 0 l 76 0 l 76 917 l 581 917 z "},"Ę":{"ha":621,"x_min":76,"x_max":653,"o":"m 626 -224 q 653 -269 653 -243 q 611 -334 653 -312 q 519 -356 569 -356 q 392 -319 442 -356 q 343 -212 343 -283 q 382 -93 343 -147 q 485 0 421 -39 l 76 0 l 76 917 l 581 917 l 581 807 l 307 807 l 307 526 l 539 526 l 539 415 l 307 415 l 307 110 l 600 110 l 592 15 l 596 14 q 592 11 593 11 l 590 0 l 578 0 q 505 -83 532 -37 q 478 -178 478 -129 q 496 -237 478 -219 q 556 -256 514 -256 q 597 -247 576 -256 q 626 -224 617 -239 z "},"Ẽ":{"ha":621,"x_min":76,"x_max":600,"o":"m 76 0 m 581 917 l 581 807 l 307 807 l 307 526 l 539 526 l 539 415 l 307 415 l 307 110 l 600 110 l 590 0 l 76 0 l 76 917 l 581 917 m 538 1150 q 563 1114 553 1135 q 572 1072 572 1093 q 460 993 572 993 q 387 1000 432 993 q 328 1008 342 1007 q 201 1024 242 1024 q 119 1000 144 1024 q 94 1035 104 1014 q 85 1076 85 1056 q 197 1156 85 1156 q 269 1149 225 1156 q 328 1140 314 1142 q 456 1125 414 1125 q 538 1150 513 1125 z "},"F":{"ha":596,"x_min":76,"x_max":581,"o":"m 581 917 l 581 807 l 307 807 l 307 507 l 539 507 l 539 396 l 307 396 l 307 0 l 76 0 l 76 917 l 581 917 z "},"G":{"ha":803,"x_min":38,"x_max":763,"o":"m 444 844 q 285 485 285 844 q 322 214 285 317 q 472 111 360 111 q 568 126 526 111 l 560 421 l 744 440 l 744 26 q 601 -17 681 -3 q 444 -31 522 -31 q 135 101 233 -31 q 38 453 38 232 q 142 815 38 685 q 461 944 246 944 q 678 900 593 944 q 763 750 763 856 q 722 651 763 689 q 621 614 682 614 q 549 629 578 614 q 558 703 558 664 q 531 806 558 767 q 444 844 503 844 z "},"Ğ":{"ha":803,"x_min":38,"x_max":763,"o":"m 38 0 m 444 844 q 285 485 285 844 q 322 214 285 317 q 472 111 360 111 q 568 126 526 111 l 560 421 l 744 440 l 744 26 q 601 -17 681 -3 q 444 -31 522 -31 q 135 101 233 -31 q 38 453 38 232 q 142 815 38 685 q 461 944 246 944 q 678 900 593 944 q 763 750 763 856 q 722 651 763 689 q 621 614 682 614 q 549 629 578 614 q 558 703 558 664 q 531 806 558 767 q 444 844 503 844 m 685 1153 q 626 1013 685 1063 q 446 963 567 963 q 265 1013 324 963 q 206 1153 206 1063 l 372 1153 q 376 1090 372 1113 q 395 1051 379 1067 q 446 1035 411 1035 q 495 1051 479 1035 q 515 1090 511 1067 q 518 1153 518 1113 l 685 1153 z "},"Ĝ":{"ha":803,"x_min":38,"x_max":763,"o":"m 38 0 m 444 844 q 285 485 285 844 q 322 214 285 317 q 472 111 360 111 q 568 126 526 111 l 560 421 l 744 440 l 744 26 q 601 -17 681 -3 q 444 -31 522 -31 q 135 101 233 -31 q 38 453 38 232 q 142 815 38 685 q 461 944 246 944 q 678 900 593 944 q 763 750 763 856 q 722 651 763 689 q 621 614 682 614 q 549 629 578 614 q 558 703 558 664 q 531 806 558 767 q 444 844 503 844 m 264 940 l 217 997 l 422 1169 l 456 1169 l 665 997 l 618 940 l 440 1026 l 264 940 z "},"Ģ":{"ha":803,"x_min":38,"x_max":763,"o":"m 38 0 m 444 844 q 285 485 285 844 q 322 214 285 317 q 472 111 360 111 q 568 126 526 111 l 560 421 l 744 440 l 744 26 q 601 -17 681 -3 q 444 -31 522 -31 q 135 101 233 -31 q 38 453 38 232 q 142 815 38 685 q 461 944 246 944 q 678 900 593 944 q 763 750 763 856 q 722 651 763 689 q 621 614 682 614 q 549 629 578 614 q 558 703 558 664 q 531 806 558 767 q 444 844 503 844 m 471 -71 q 585 -178 585 -71 q 563 -258 585 -219 q 501 -320 540 -296 q 418 -344 463 -344 q 367 -337 394 -344 q 418 -192 418 -267 q 389 -89 418 -136 q 426 -76 403 -81 q 471 -71 450 -71 z "},"Ġ":{"ha":803,"x_min":38,"x_max":763,"o":"m 38 0 m 444 844 q 285 485 285 844 q 322 214 285 317 q 472 111 360 111 q 568 126 526 111 l 560 421 l 744 440 l 744 26 q 601 -17 681 -3 q 444 -31 522 -31 q 135 101 233 -31 q 38 453 38 232 q 142 815 38 685 q 461 944 246 944 q 678 900 593 944 q 763 750 763 856 q 722 651 763 689 q 621 614 682 614 q 549 629 578 614 q 558 703 558 664 q 531 806 558 767 q 444 844 503 844 m 444 1217 q 535 1190 501 1217 q 569 1117 569 1164 q 533 1042 569 1068 q 440 1017 497 1017 q 349 1042 385 1017 q 314 1114 314 1068 q 351 1190 314 1163 q 444 1217 388 1217 z "},"H":{"ha":869,"x_min":76,"x_max":793,"o":"m 793 917 l 793 0 l 564 0 l 564 408 l 307 408 l 307 0 l 76 0 l 76 917 l 307 917 l 307 519 l 564 519 l 564 917 l 793 917 z "},"Ħ":{"ha":903,"x_min":-1,"x_max":907,"o":"m 897 761 q 907 717 907 732 q 885 665 907 682 q 821 647 863 647 l 810 647 l 810 0 l 579 0 l 579 408 l 322 408 l 322 0 l 93 0 l 93 647 l 7 647 q -1 692 -1 667 q 19 743 -1 725 q 78 761 40 761 l 93 761 l 93 917 l 322 917 l 322 761 l 579 761 l 579 917 l 810 917 l 810 761 l 897 761 m 579 519 l 579 647 l 322 647 l 322 519 l 579 519 z "},"Ĥ":{"ha":869,"x_min":76,"x_max":793,"o":"m 76 0 m 793 917 l 793 0 l 564 0 l 564 408 l 307 408 l 307 0 l 76 0 l 76 917 l 307 917 l 307 519 l 564 519 l 564 917 l 793 917 m 258 940 l 211 997 l 417 1169 l 450 1169 l 660 997 l 613 940 l 435 1026 l 258 940 z "},"Ḥ":{"ha":869,"x_min":76,"x_max":793,"o":"m 76 0 m 793 917 l 793 0 l 564 0 l 564 408 l 307 408 l 307 0 l 76 0 l 76 917 l 307 917 l 307 519 l 564 519 l 564 917 l 793 917 m 442 -65 q 533 -92 499 -65 q 567 -165 567 -118 q 531 -240 567 -214 q 438 -265 494 -265 q 347 -240 382 -265 q 311 -168 311 -214 q 348 -92 311 -119 q 442 -65 385 -65 z "},"I":{"ha":382,"x_min":76,"x_max":307,"o":"m 307 917 l 307 0 l 76 0 l 76 917 l 307 917 z "},"Ĳ":{"ha":764,"x_min":76,"x_max":689,"o":"m 76 0 m 307 917 l 307 0 l 76 0 l 76 917 l 307 917 m 689 121 q 641 -144 689 -43 q 465 -244 593 -244 q 377 -227 417 -244 q 328 -172 338 -210 q 434 -103 410 -168 q 458 76 458 -37 l 458 917 l 689 917 l 689 121 z "},"Í":{"ha":382,"x_min":65,"x_max":431,"o":"m 65 0 m 307 917 l 307 0 l 76 0 l 76 917 l 307 917 m 385 1179 q 418 1140 406 1163 q 431 1093 431 1117 q 387 1022 431 1040 q 265 999 343 1004 l 82 985 l 65 1050 l 385 1179 z "},"Ĭ":{"ha":382,"x_min":-49,"x_max":431,"o":"m 0 0 m 307 917 l 307 0 l 76 0 l 76 917 l 307 917 m 431 1153 q 372 1013 431 1063 q 192 963 313 963 q 10 1013 69 963 q -49 1153 -49 1063 l 118 1153 q 122 1090 118 1113 q 141 1051 125 1067 q 192 1035 157 1035 q 241 1051 225 1035 q 260 1090 257 1067 q 264 1153 264 1113 l 431 1153 z "},"Î":{"ha":382,"x_min":-32,"x_max":417,"o":"m 0 0 m 307 917 l 307 0 l 76 0 l 76 917 l 307 917 m 15 940 l -32 997 l 174 1169 l 207 1169 l 417 997 l 369 940 l 192 1026 l 15 940 z "},"Ï":{"ha":382,"x_min":-86,"x_max":467,"o":"m 0 0 m 307 917 l 307 0 l 76 0 l 76 917 l 307 917 m 342 1188 q 433 1161 399 1188 q 467 1088 467 1135 q 431 1013 467 1039 q 338 988 394 988 q 247 1013 282 988 q 211 1085 211 1039 q 248 1160 211 1133 q 342 1188 285 1188 m 44 1188 q 135 1161 101 1188 q 169 1088 169 1135 q 133 1013 169 1039 q 40 988 97 988 q -51 1013 -15 988 q -86 1085 -86 1039 q -49 1160 -86 1133 q 44 1188 -12 1188 z "},"İ":{"ha":382,"x_min":65,"x_max":321,"o":"m 65 0 m 307 917 l 307 0 l 76 0 l 76 917 l 307 917 m 196 1217 q 287 1190 253 1217 q 321 1117 321 1164 q 285 1042 321 1068 q 192 1017 249 1017 q 101 1042 136 1017 q 65 1114 65 1068 q 102 1190 65 1163 q 196 1217 139 1217 z "},"Ị":{"ha":382,"x_min":63,"x_max":318,"o":"m 63 0 m 307 917 l 307 0 l 76 0 l 76 917 l 307 917 m 193 -65 q 284 -92 250 -65 q 318 -165 318 -118 q 282 -240 318 -214 q 189 -265 246 -265 q 98 -240 133 -265 q 63 -168 63 -214 q 99 -92 63 -119 q 193 -65 136 -65 z "},"Ì":{"ha":382,"x_min":-47,"x_max":318,"o":"m 0 0 m 307 917 l 307 0 l 76 0 l 76 917 l 307 917 m 118 1000 q -3 1024 40 1006 q -47 1094 -47 1042 q -35 1141 -47 1118 q -1 1181 -22 1164 l 318 1051 l 301 986 l 118 1000 z "},"Ī":{"ha":382,"x_min":-11,"x_max":394,"o":"m 0 0 m 307 917 l 307 0 l 76 0 l 76 917 l 307 917 m 382 1172 q 394 1118 394 1147 q 373 1069 394 1088 q 314 1051 351 1051 l 0 1051 q -11 1103 -11 1071 q 9 1153 -11 1135 q 64 1172 29 1172 l 382 1172 z "},"Į":{"ha":382,"x_min":63,"x_max":372,"o":"m 346 -224 q 372 -269 372 -243 q 331 -334 372 -312 q 239 -356 289 -356 q 112 -319 161 -356 q 63 -212 63 -283 q 101 -93 63 -147 q 204 0 140 -39 l 76 0 l 76 917 l 307 917 l 307 17 l 315 14 l 307 8 l 307 0 l 297 0 q 224 -83 251 -37 q 197 -178 197 -129 q 215 -237 197 -219 q 275 -256 233 -256 q 316 -247 296 -256 q 346 -224 336 -239 z "},"Ĩ":{"ha":382,"x_min":-51,"x_max":436,"o":"m 0 0 m 307 917 l 307 0 l 76 0 l 76 917 l 307 917 m 401 1150 q 426 1114 417 1135 q 436 1072 436 1093 q 324 993 436 993 q 251 1000 296 993 q 192 1008 206 1007 q 65 1024 106 1024 q -17 1000 8 1024 q -42 1035 -32 1014 q -51 1076 -51 1056 q 61 1156 -51 1156 q 133 1149 89 1156 q 192 1140 178 1142 q 319 1125 278 1125 q 401 1150 376 1125 z "},"J":{"ha":382,"x_min":-54,"x_max":307,"o":"m 307 121 q 259 -144 307 -43 q 83 -244 211 -244 q -5 -227 35 -244 q -54 -172 -44 -210 q 52 -103 28 -168 q 76 76 76 -37 l 76 917 l 307 917 l 307 121 z "},"Ĵ":{"ha":382,"x_min":-54,"x_max":417,"o":"m 0 0 m 307 121 q 259 -144 307 -43 q 83 -244 211 -244 q -5 -227 35 -244 q -54 -172 -44 -210 q 52 -103 28 -168 q 76 76 76 -37 l 76 917 l 307 917 l 307 121 m 15 940 l -32 997 l 174 1169 l 207 1169 l 417 997 l 369 940 l 192 1026 l 15 940 z "},"K":{"ha":792,"x_min":76,"x_max":815,"o":"m 307 0 l 76 0 l 76 917 l 307 917 l 307 0 m 564 917 l 796 917 l 554 490 l 815 0 l 574 0 l 335 464 l 564 917 z "},"Ķ":{"ha":792,"x_min":76,"x_max":815,"o":"m 76 0 m 307 0 l 76 0 l 76 917 l 307 917 l 307 0 m 564 917 l 796 917 l 554 490 l 815 0 l 574 0 l 335 464 l 564 917 m 426 -71 q 540 -178 540 -71 q 518 -258 540 -219 q 457 -320 496 -296 q 374 -344 418 -344 q 322 -337 350 -344 q 374 -192 374 -267 q 344 -89 374 -136 q 382 -76 358 -81 q 426 -71 406 -71 z "},"L":{"ha":589,"x_min":76,"x_max":582,"o":"m 76 917 l 307 917 l 307 114 l 582 114 l 571 0 l 76 0 l 76 917 z "},"Ǉ":{"ha":971,"x_min":76,"x_max":896,"o":"m 76 0 m 76 917 l 307 917 l 307 114 l 582 114 l 571 0 l 76 0 l 76 917 m 896 121 q 848 -144 896 -43 q 672 -244 800 -244 q 584 -227 624 -244 q 535 -172 544 -210 q 641 -103 617 -168 q 665 76 665 -37 l 665 917 l 896 917 l 896 121 z "},"Ĺ":{"ha":589,"x_min":65,"x_max":582,"o":"m 65 0 m 76 917 l 307 917 l 307 114 l 582 114 l 571 0 l 76 0 l 76 917 m 385 1179 q 418 1140 406 1163 q 431 1093 431 1117 q 387 1022 431 1040 q 265 999 343 1004 l 82 985 l 65 1050 l 385 1179 z "},"Ľ":{"ha":589,"x_min":76,"x_max":582,"o":"m 76 0 m 76 917 l 307 917 l 307 114 l 582 114 l 571 0 l 76 0 l 76 917 m 389 981 q 424 994 401 989 q 467 1000 446 1000 q 540 971 514 1000 q 567 886 567 942 q 549 817 567 851 q 498 759 531 782 q 422 736 465 736 q 376 744 397 736 q 418 876 418 803 q 389 981 418 931 z "},"Ļ":{"ha":589,"x_min":76,"x_max":582,"o":"m 76 0 m 76 917 l 307 917 l 307 114 l 582 114 l 571 0 l 76 0 l 76 917 m 315 -71 q 429 -178 429 -71 q 407 -258 429 -219 q 346 -320 385 -296 q 263 -344 307 -344 q 211 -337 239 -344 q 263 -192 263 -267 q 233 -89 263 -136 q 271 -76 247 -81 q 315 -71 294 -71 z "},"Ŀ":{"ha":617,"x_min":76,"x_max":582,"o":"m 76 917 l 307 917 l 307 114 l 582 114 l 571 0 l 76 0 l 76 917 m 482 556 q 544 532 519 556 q 568 468 568 508 q 542 403 568 428 q 478 378 517 378 q 415 402 439 378 q 392 465 392 426 q 417 531 392 507 q 482 556 443 556 z "},"ǈ":{"ha":589,"x_min":-37,"x_max":582,"o":"m 193 1017 q 102 1042 138 1017 q 67 1114 67 1068 q 103 1190 67 1163 q 197 1217 140 1217 q 288 1190 254 1217 q 322 1117 322 1164 q 286 1042 322 1068 q 193 1017 250 1017 m 571 0 l 249 0 q 90 -83 197 -83 q 8 -68 44 -83 q -37 -18 -29 -53 q 76 89 53 -12 l 76 917 l 307 917 l 307 114 l 582 114 l 571 0 z "},"Ł":{"ha":660,"x_min":-7,"x_max":653,"o":"m 25 301 q -7 372 -7 339 q 47 439 -7 418 l 146 478 l 146 917 l 376 917 l 376 564 l 535 625 q 565 554 565 590 q 513 486 565 507 l 376 433 l 376 114 l 653 114 l 640 0 l 146 0 l 146 347 l 25 301 z "},"M":{"ha":1108,"x_min":76,"x_max":1032,"o":"m 1032 917 l 1032 0 l 801 0 l 801 738 l 578 0 l 444 0 l 221 739 l 221 0 l 76 0 l 76 917 l 390 917 l 558 332 l 725 917 l 1032 917 z "},"N":{"ha":858,"x_min":76,"x_max":782,"o":"m 547 0 l 221 654 l 221 0 l 76 0 l 76 917 l 313 917 l 639 263 l 639 917 l 782 917 l 782 0 l 547 0 z "},"Ǌ":{"ha":1240,"x_min":76,"x_max":1165,"o":"m 76 0 m 547 0 l 221 654 l 221 0 l 76 0 l 76 917 l 313 917 l 639 263 l 639 917 l 782 917 l 782 0 l 547 0 m 1165 121 q 1117 -144 1165 -43 q 942 -244 1069 -244 q 853 -227 893 -244 q 804 -172 814 -210 q 910 -103 886 -168 q 935 76 935 -37 l 935 917 l 1165 917 l 1165 121 z "},"Ń":{"ha":858,"x_min":76,"x_max":782,"o":"m 76 0 m 547 0 l 221 654 l 221 0 l 76 0 l 76 917 l 313 917 l 639 263 l 639 917 l 782 917 l 782 0 l 547 0 m 621 1179 q 654 1140 642 1163 q 667 1093 667 1117 q 623 1022 667 1040 q 501 999 579 1004 l 318 985 l 301 1050 l 621 1179 z "},"Ň":{"ha":858,"x_min":76,"x_max":782,"o":"m 76 0 m 547 0 l 221 654 l 221 0 l 76 0 l 76 917 l 313 917 l 639 263 l 639 917 l 782 917 l 782 0 l 547 0 m 603 1175 l 650 1118 l 451 960 l 404 960 l 201 1118 l 249 1175 l 426 1096 l 603 1175 z "},"Ņ":{"ha":858,"x_min":76,"x_max":782,"o":"m 76 0 m 547 0 l 221 654 l 221 0 l 76 0 l 76 917 l 313 917 l 639 263 l 639 917 l 782 917 l 782 0 l 547 0 m 415 -71 q 529 -178 529 -71 q 507 -258 529 -219 q 446 -320 485 -296 q 363 -344 407 -344 q 311 -337 339 -344 q 363 -192 363 -267 q 333 -89 363 -136 q 371 -76 347 -81 q 415 -71 394 -71 z "},"Ṅ":{"ha":858,"x_min":76,"x_max":782,"o":"m 76 0 m 547 0 l 221 654 l 221 0 l 76 0 l 76 917 l 313 917 l 639 263 l 639 917 l 782 917 l 782 0 l 547 0 m 433 1217 q 524 1190 490 1217 q 558 1117 558 1164 q 522 1042 558 1068 q 429 1017 486 1017 q 338 1042 374 1017 q 303 1114 303 1068 q 340 1190 303 1163 q 433 1217 376 1217 z "},"Ŋ":{"ha":858,"x_min":76,"x_max":782,"o":"m 782 917 l 782 65 q 772 -95 782 -29 q 727 -206 763 -161 q 622 -251 692 -251 q 561 -239 588 -251 q 528 -201 535 -226 q 617 -143 593 -197 q 643 0 640 -89 l 547 0 l 221 647 l 221 0 l 76 0 l 76 917 l 313 917 l 639 269 l 639 917 l 782 917 z "},"ǋ":{"ha":858,"x_min":76,"x_max":782,"o":"m 429 1017 q 338 1042 374 1017 q 303 1114 303 1068 q 340 1190 303 1163 q 433 1217 376 1217 q 524 1190 490 1217 q 558 1117 558 1164 q 522 1042 558 1068 q 429 1017 486 1017 m 782 917 l 782 0 l 547 0 l 514 67 q 326 -83 468 -83 q 244 -68 281 -83 q 199 -18 207 -53 q 299 48 274 -14 q 324 214 324 110 l 324 449 l 221 654 l 221 0 l 76 0 l 76 917 l 313 917 l 324 894 l 324 903 l 536 903 l 536 468 l 639 263 l 639 917 l 782 917 z "},"Ñ":{"ha":858,"x_min":76,"x_max":782,"o":"m 76 0 m 547 0 l 221 654 l 221 0 l 76 0 l 76 917 l 313 917 l 639 263 l 639 917 l 782 917 l 782 0 l 547 0 m 638 1150 q 663 1114 653 1135 q 672 1072 672 1093 q 560 993 672 993 q 487 1000 532 993 q 428 1008 442 1007 q 301 1024 342 1024 q 219 1000 244 1024 q 194 1035 204 1014 q 185 1076 185 1056 q 297 1156 185 1156 q 369 1149 325 1156 q 428 1140 414 1142 q 556 1125 514 1125 q 638 1150 613 1125 z "},"O":{"ha":869,"x_min":38,"x_max":832,"o":"m 435 944 q 736 819 640 944 q 832 471 832 694 q 735 106 832 242 q 435 -31 639 -31 q 135 100 233 -31 q 38 453 38 231 q 134 812 38 679 q 435 944 231 944 m 435 69 q 556 180 528 69 q 583 463 583 290 q 555 736 583 628 q 435 844 526 844 q 314 735 343 844 q 285 463 285 626 q 313 181 285 292 q 435 69 342 69 z "},"Ó":{"ha":869,"x_min":38,"x_max":832,"o":"m 38 0 m 435 944 q 736 819 640 944 q 832 471 832 694 q 735 106 832 242 q 435 -31 639 -31 q 135 100 233 -31 q 38 453 38 231 q 134 812 38 679 q 435 944 231 944 m 435 69 q 556 180 528 69 q 583 463 583 290 q 555 736 583 628 q 435 844 526 844 q 314 735 343 844 q 285 463 285 626 q 313 181 285 292 q 435 69 342 69 m 628 1179 q 661 1140 649 1163 q 674 1093 674 1117 q 630 1022 674 1040 q 508 999 586 1004 l 325 985 l 308 1050 l 628 1179 z "},"Ŏ":{"ha":869,"x_min":38,"x_max":832,"o":"m 38 0 m 435 944 q 736 819 640 944 q 832 471 832 694 q 735 106 832 242 q 435 -31 639 -31 q 135 100 233 -31 q 38 453 38 231 q 134 812 38 679 q 435 944 231 944 m 435 69 q 556 180 528 69 q 583 463 583 290 q 555 736 583 628 q 435 844 526 844 q 314 735 343 844 q 285 463 285 626 q 313 181 285 292 q 435 69 342 69 m 674 1153 q 615 1013 674 1063 q 435 963 556 963 q 253 1013 313 963 q 194 1153 194 1063 l 361 1153 q 365 1090 361 1113 q 384 1051 368 1067 q 435 1035 400 1035 q 484 1051 468 1035 q 503 1090 500 1067 q 507 1153 507 1113 l 674 1153 z "},"Ô":{"ha":869,"x_min":38,"x_max":832,"o":"m 38 0 m 435 944 q 736 819 640 944 q 832 471 832 694 q 735 106 832 242 q 435 -31 639 -31 q 135 100 233 -31 q 38 453 38 231 q 134 812 38 679 q 435 944 231 944 m 435 69 q 556 180 528 69 q 583 463 583 290 q 555 736 583 628 q 435 844 526 844 q 314 735 343 844 q 285 463 285 626 q 313 181 285 292 q 435 69 342 69 m 258 940 l 211 997 l 417 1169 l 450 1169 l 660 997 l 613 940 l 435 1026 l 258 940 z "},"Ö":{"ha":869,"x_min":38,"x_max":832,"o":"m 38 0 m 435 944 q 736 819 640 944 q 832 471 832 694 q 735 106 832 242 q 435 -31 639 -31 q 135 100 233 -31 q 38 453 38 231 q 134 812 38 679 q 435 944 231 944 m 435 69 q 556 180 528 69 q 583 463 583 290 q 555 736 583 628 q 435 844 526 844 q 314 735 343 844 q 285 463 285 626 q 313 181 285 292 q 435 69 342 69 m 585 1188 q 676 1161 642 1188 q 710 1088 710 1135 q 674 1013 710 1039 q 581 988 638 988 q 490 1013 525 988 q 454 1085 454 1039 q 491 1160 454 1133 q 585 1188 528 1188 m 288 1188 q 378 1161 344 1188 q 413 1088 413 1135 q 376 1013 413 1039 q 283 988 340 988 q 192 1013 228 988 q 157 1085 157 1039 q 194 1160 157 1133 q 288 1188 231 1188 z "},"Ọ":{"ha":869,"x_min":38,"x_max":832,"o":"m 38 0 m 435 944 q 736 819 640 944 q 832 471 832 694 q 735 106 832 242 q 435 -31 639 -31 q 135 100 233 -31 q 38 453 38 231 q 134 812 38 679 q 435 944 231 944 m 435 69 q 556 180 528 69 q 583 463 583 290 q 555 736 583 628 q 435 844 526 844 q 314 735 343 844 q 285 463 285 626 q 313 181 285 292 q 435 69 342 69 m 439 -65 q 530 -92 496 -65 q 564 -165 564 -118 q 528 -240 564 -214 q 435 -265 492 -265 q 344 -240 379 -265 q 308 -168 308 -214 q 345 -92 308 -119 q 439 -65 382 -65 z "},"Ò":{"ha":869,"x_min":38,"x_max":832,"o":"m 38 0 m 435 944 q 736 819 640 944 q 832 471 832 694 q 735 106 832 242 q 435 -31 639 -31 q 135 100 233 -31 q 38 453 38 231 q 134 812 38 679 q 435 944 231 944 m 435 69 q 556 180 528 69 q 583 463 583 290 q 555 736 583 628 q 435 844 526 844 q 314 735 343 844 q 285 463 285 626 q 313 181 285 292 q 435 69 342 69 m 361 1000 q 240 1024 283 1006 q 196 1094 196 1042 q 208 1141 196 1118 q 242 1181 221 1164 l 561 1051 l 544 986 l 361 1000 z "},"Ő":{"ha":869,"x_min":38,"x_max":832,"o":"m 38 0 m 435 944 q 736 819 640 944 q 832 471 832 694 q 735 106 832 242 q 435 -31 639 -31 q 135 100 233 -31 q 38 453 38 231 q 134 812 38 679 q 435 944 231 944 m 435 69 q 556 180 528 69 q 583 463 583 290 q 555 736 583 628 q 435 844 526 844 q 314 735 343 844 q 285 463 285 626 q 313 181 285 292 q 435 69 342 69 m 464 1189 q 502 1156 488 1176 q 517 1113 517 1136 q 388 1007 517 1042 l 263 974 l 235 1038 l 464 1189 m 742 1189 q 780 1156 765 1176 q 794 1113 794 1136 q 665 1007 794 1042 l 540 974 l 513 1038 l 742 1189 z "},"Ō":{"ha":869,"x_min":38,"x_max":832,"o":"m 38 0 m 435 944 q 736 819 640 944 q 832 471 832 694 q 735 106 832 242 q 435 -31 639 -31 q 135 100 233 -31 q 38 453 38 231 q 134 812 38 679 q 435 944 231 944 m 435 69 q 556 180 528 69 q 583 463 583 290 q 555 736 583 628 q 435 844 526 844 q 314 735 343 844 q 285 463 285 626 q 313 181 285 292 q 435 69 342 69 m 625 1172 q 638 1118 638 1147 q 616 1069 638 1088 q 557 1051 594 1051 l 243 1051 q 232 1103 232 1071 q 252 1153 232 1135 q 307 1172 272 1172 l 625 1172 z "},"Ǫ":{"ha":869,"x_min":38,"x_max":832,"o":"m 832 471 q 776 173 832 296 q 601 0 719 50 q 516 -88 549 -39 q 483 -192 483 -137 q 501 -251 483 -233 q 561 -269 519 -269 q 602 -261 582 -269 q 632 -237 622 -253 q 658 -283 658 -257 q 617 -348 658 -326 q 525 -369 575 -369 q 398 -333 447 -369 q 349 -226 349 -297 q 381 -118 349 -168 q 467 -29 413 -68 q 435 -31 456 -31 q 135 100 233 -31 q 38 453 38 231 q 134 812 38 679 q 435 944 231 944 q 736 819 640 944 q 832 471 832 694 m 285 463 q 313 181 285 292 q 435 69 342 69 q 556 180 528 69 q 583 463 583 290 q 555 736 583 628 q 435 844 526 844 q 314 735 343 844 q 285 463 285 626 z "},"Ø":{"ha":869,"x_min":38,"x_max":832,"o":"m 738 817 q 832 471 832 699 q 735 106 832 242 q 435 -31 639 -31 q 203 36 296 -31 l 125 -76 q 67 -60 96 -75 q 39 -17 39 -44 q 61 36 39 3 l 119 122 q 38 453 38 247 q 134 812 38 679 q 435 944 231 944 q 650 894 561 944 l 719 996 q 777 978 749 994 q 806 936 806 963 q 783 883 806 917 l 738 817 m 285 463 q 286 365 285 399 l 550 749 q 435 844 513 844 q 314 735 343 844 q 285 463 285 626 m 435 69 q 556 180 528 69 q 583 463 583 290 q 579 586 583 544 l 310 193 q 435 69 346 69 z "},"Ǿ":{"ha":869,"x_min":38,"x_max":832,"o":"m 38 0 m 738 817 q 832 471 832 699 q 735 106 832 242 q 435 -31 639 -31 q 203 36 296 -31 l 125 -76 q 67 -60 96 -75 q 39 -17 39 -44 q 61 36 39 3 l 119 122 q 38 453 38 247 q 134 812 38 679 q 435 944 231 944 q 650 894 561 944 l 719 996 q 777 978 749 994 q 806 936 806 963 q 783 883 806 917 l 738 817 m 285 463 q 286 365 285 399 l 550 749 q 435 844 513 844 q 314 735 343 844 q 285 463 285 626 m 435 69 q 556 180 528 69 q 583 463 583 290 q 579 586 583 544 l 310 193 q 435 69 346 69 m 628 1179 q 661 1140 649 1163 q 674 1093 674 1117 q 630 1022 674 1040 q 508 999 586 1004 l 325 985 l 308 1050 l 628 1179 z "},"Õ":{"ha":869,"x_min":38,"x_max":832,"o":"m 38 0 m 435 944 q 736 819 640 944 q 832 471 832 694 q 735 106 832 242 q 435 -31 639 -31 q 135 100 233 -31 q 38 453 38 231 q 134 812 38 679 q 435 944 231 944 m 435 69 q 556 180 528 69 q 583 463 583 290 q 555 736 583 628 q 435 844 526 844 q 314 735 343 844 q 285 463 285 626 q 313 181 285 292 q 435 69 342 69 m 644 1150 q 669 1114 660 1135 q 679 1072 679 1093 q 567 993 679 993 q 494 1000 539 993 q 435 1008 449 1007 q 308 1024 349 1024 q 226 1000 251 1024 q 201 1035 211 1014 q 192 1076 192 1056 q 304 1156 192 1156 q 376 1149 332 1156 q 435 1140 421 1142 q 563 1125 521 1125 q 644 1150 619 1125 z "},"Œ":{"ha":1088,"x_min":38,"x_max":1067,"o":"m 1056 0 l 600 0 q 435 -31 526 -31 q 135 100 233 -31 q 38 453 38 231 q 134 812 38 679 q 435 944 231 944 q 597 917 526 944 l 1046 917 l 1046 807 l 786 807 l 786 526 l 1004 526 l 1004 415 l 786 415 l 786 110 l 1067 110 l 1056 0 m 435 69 q 585 203 529 69 l 585 713 q 435 844 529 844 q 314 735 343 844 q 285 463 285 626 q 313 181 285 292 q 435 69 342 69 z "},"P":{"ha":774,"x_min":76,"x_max":757,"o":"m 757 651 q 682 452 757 528 q 485 376 607 376 q 390 397 428 376 q 353 461 353 417 q 485 506 444 461 q 526 647 526 551 q 379 822 526 822 q 307 815 344 822 l 307 0 l 76 0 l 76 907 q 385 924 256 924 q 658 862 558 924 q 757 651 757 800 z "},"Þ":{"ha":774,"x_min":76,"x_max":757,"o":"m 307 746 l 385 746 q 658 685 558 746 q 757 475 757 624 q 682 276 757 351 q 485 200 607 200 q 390 220 428 200 q 353 285 353 240 q 485 330 444 285 q 526 471 526 375 q 379 646 526 646 q 307 639 344 646 l 307 0 l 76 0 l 76 917 l 307 917 l 307 746 z "},"Q":{"ha":869,"x_min":38,"x_max":838,"o":"m 435 944 q 736 819 640 944 q 832 471 832 694 q 786 213 832 326 q 651 35 740 100 q 435 -31 561 -31 q 681 -67 582 -67 q 749 -59 719 -67 q 803 -28 778 -51 q 828 -78 819 -56 q 838 -126 838 -101 q 804 -206 838 -181 q 715 -231 771 -231 q 619 -218 667 -231 q 499 -179 572 -206 q 385 -142 431 -154 q 296 -131 340 -131 q 201 -144 232 -131 q 184 -117 190 -133 q 178 -85 178 -101 q 208 -26 178 -42 q 293 -8 238 -10 q 100 153 163 32 q 38 453 38 274 q 134 812 38 679 q 435 944 231 944 m 435 844 q 314 735 343 844 q 285 463 285 626 q 313 181 285 292 q 435 69 342 69 q 556 180 528 69 q 583 463 583 290 q 555 736 583 628 q 435 844 526 844 z "},"R":{"ha":801,"x_min":76,"x_max":810,"o":"m 749 656 q 703 494 749 561 q 579 400 658 428 l 810 0 l 569 0 l 364 426 q 354 468 354 451 q 481 513 443 468 q 519 650 519 558 q 379 822 519 822 q 307 815 344 822 l 307 0 l 76 0 l 76 907 q 385 924 256 924 q 653 863 557 924 q 749 656 749 803 z "},"Ŕ":{"ha":801,"x_min":76,"x_max":810,"o":"m 76 0 m 749 656 q 703 494 749 561 q 579 400 658 428 l 810 0 l 569 0 l 364 426 q 354 468 354 451 q 481 513 443 468 q 519 650 519 558 q 379 822 519 822 q 307 815 344 822 l 307 0 l 76 0 l 76 907 q 385 924 256 924 q 653 863 557 924 q 749 656 749 803 m 578 1179 q 611 1140 599 1163 q 624 1093 624 1117 q 580 1022 624 1040 q 458 999 536 1004 l 275 985 l 258 1050 l 578 1179 z "},"Ř":{"ha":801,"x_min":76,"x_max":810,"o":"m 76 0 m 749 656 q 703 494 749 561 q 579 400 658 428 l 810 0 l 569 0 l 364 426 q 354 468 354 451 q 481 513 443 468 q 519 650 519 558 q 379 822 519 822 q 307 815 344 822 l 307 0 l 76 0 l 76 907 q 385 924 256 924 q 653 863 557 924 q 749 656 749 803 m 560 1175 l 607 1118 l 408 960 l 361 960 l 158 1118 l 206 1175 l 383 1096 l 560 1175 z "},"Ŗ":{"ha":801,"x_min":76,"x_max":810,"o":"m 76 0 m 749 656 q 703 494 749 561 q 579 400 658 428 l 810 0 l 569 0 l 364 426 q 354 468 354 451 q 481 513 443 468 q 519 650 519 558 q 379 822 519 822 q 307 815 344 822 l 307 0 l 76 0 l 76 907 q 385 924 256 924 q 653 863 557 924 q 749 656 749 803 m 424 -71 q 538 -178 538 -71 q 515 -258 538 -219 q 454 -320 493 -296 q 371 -344 415 -344 q 319 -337 347 -344 q 371 -192 371 -267 q 342 -89 371 -136 q 379 -76 356 -81 q 424 -71 403 -71 z "},"Ṛ":{"ha":801,"x_min":76,"x_max":810,"o":"m 76 0 m 749 656 q 703 494 749 561 q 579 400 658 428 l 810 0 l 569 0 l 364 426 q 354 468 354 451 q 481 513 443 468 q 519 650 519 558 q 379 822 519 822 q 307 815 344 822 l 307 0 l 76 0 l 76 907 q 385 924 256 924 q 653 863 557 924 q 749 656 749 803 m 440 -65 q 531 -92 497 -65 q 565 -165 565 -118 q 529 -240 565 -214 q 436 -265 493 -265 q 345 -240 381 -265 q 310 -168 310 -214 q 347 -92 310 -119 q 440 -65 383 -65 z "},"S":{"ha":713,"x_min":24,"x_max":679,"o":"m 375 944 q 579 901 496 944 q 663 761 663 858 q 624 667 663 700 q 522 633 585 633 q 450 649 479 633 q 460 729 460 683 q 435 816 460 785 q 358 847 411 847 q 285 822 313 847 q 258 751 258 797 q 283 667 258 704 q 345 604 308 631 q 446 540 382 578 q 567 461 521 496 q 647 374 614 426 q 679 247 679 321 q 582 40 679 110 q 329 -31 485 -31 q 112 15 200 -31 q 24 164 24 61 q 63 263 24 225 q 164 300 103 300 q 236 285 210 300 q 226 211 226 242 q 346 67 226 67 q 436 98 401 67 q 471 182 471 129 q 446 266 471 229 q 383 330 421 303 q 283 394 346 357 q 162 474 208 439 q 83 561 115 508 q 50 686 50 614 q 94 826 50 768 q 213 915 139 885 q 375 944 288 944 z "},"Ś":{"ha":713,"x_min":24,"x_max":679,"o":"m 24 0 m 375 944 q 579 901 496 944 q 663 761 663 858 q 624 667 663 700 q 522 633 585 633 q 450 649 479 633 q 460 729 460 683 q 435 816 460 785 q 358 847 411 847 q 285 822 313 847 q 258 751 258 797 q 283 667 258 704 q 345 604 308 631 q 446 540 382 578 q 567 461 521 496 q 647 374 614 426 q 679 247 679 321 q 582 40 679 110 q 329 -31 485 -31 q 112 15 200 -31 q 24 164 24 61 q 63 263 24 225 q 164 300 103 300 q 236 285 210 300 q 226 211 226 242 q 346 67 226 67 q 436 98 401 67 q 471 182 471 129 q 446 266 471 229 q 383 330 421 303 q 283 394 346 357 q 162 474 208 439 q 83 561 115 508 q 50 686 50 614 q 94 826 50 768 q 213 915 139 885 q 375 944 288 944 m 551 1179 q 585 1140 572 1163 q 597 1093 597 1117 q 553 1022 597 1040 q 432 999 510 1004 l 249 985 l 232 1050 l 551 1179 z "},"Š":{"ha":713,"x_min":24,"x_max":679,"o":"m 24 0 m 375 944 q 579 901 496 944 q 663 761 663 858 q 624 667 663 700 q 522 633 585 633 q 450 649 479 633 q 460 729 460 683 q 435 816 460 785 q 358 847 411 847 q 285 822 313 847 q 258 751 258 797 q 283 667 258 704 q 345 604 308 631 q 446 540 382 578 q 567 461 521 496 q 647 374 614 426 q 679 247 679 321 q 582 40 679 110 q 329 -31 485 -31 q 112 15 200 -31 q 24 164 24 61 q 63 263 24 225 q 164 300 103 300 q 236 285 210 300 q 226 211 226 242 q 346 67 226 67 q 436 98 401 67 q 471 182 471 129 q 446 266 471 229 q 383 330 421 303 q 283 394 346 357 q 162 474 208 439 q 83 561 115 508 q 50 686 50 614 q 94 826 50 768 q 213 915 139 885 q 375 944 288 944 m 533 1175 l 581 1118 l 382 960 l 335 960 l 132 1118 l 179 1175 l 357 1096 l 533 1175 z "},"Ş":{"ha":713,"x_min":24,"x_max":679,"o":"m 328 -31 l 306 -85 q 344 -83 319 -83 q 463 -115 419 -83 q 507 -214 507 -147 q 450 -317 507 -279 q 315 -356 393 -356 q 218 -337 261 -356 q 175 -274 175 -318 q 190 -229 175 -244 q 294 -271 226 -271 q 346 -256 325 -271 q 367 -214 367 -240 q 264 -153 367 -153 q 207 -157 235 -153 l 256 -26 q 88 31 153 -15 q 24 164 24 78 q 63 263 24 225 q 164 300 103 300 q 236 285 210 300 q 226 211 226 242 q 346 67 226 67 q 436 98 401 67 q 471 182 471 129 q 446 266 471 229 q 383 330 421 303 q 283 394 346 357 q 162 474 208 439 q 83 561 115 508 q 50 686 50 614 q 94 826 50 768 q 213 915 139 885 q 375 944 288 944 q 579 901 496 944 q 663 761 663 858 q 624 667 663 700 q 522 633 585 633 q 450 649 479 633 q 460 729 460 683 q 435 816 460 785 q 358 847 411 847 q 285 822 313 847 q 258 751 258 797 q 283 667 258 704 q 345 604 308 631 q 446 540 382 578 q 567 461 521 496 q 647 374 614 426 q 679 247 679 321 q 582 40 679 110 q 329 -31 485 -31 l 328 -31 z "},"Ŝ":{"ha":713,"x_min":24,"x_max":679,"o":"m 24 0 m 375 944 q 579 901 496 944 q 663 761 663 858 q 624 667 663 700 q 522 633 585 633 q 450 649 479 633 q 460 729 460 683 q 435 816 460 785 q 358 847 411 847 q 285 822 313 847 q 258 751 258 797 q 283 667 258 704 q 345 604 308 631 q 446 540 382 578 q 567 461 521 496 q 647 374 614 426 q 679 247 679 321 q 582 40 679 110 q 329 -31 485 -31 q 112 15 200 -31 q 24 164 24 61 q 63 263 24 225 q 164 300 103 300 q 236 285 210 300 q 226 211 226 242 q 346 67 226 67 q 436 98 401 67 q 471 182 471 129 q 446 266 471 229 q 383 330 421 303 q 283 394 346 357 q 162 474 208 439 q 83 561 115 508 q 50 686 50 614 q 94 826 50 768 q 213 915 139 885 q 375 944 288 944 m 183 940 l 136 997 l 342 1169 l 375 1169 l 585 997 l 538 940 l 360 1026 l 183 940 z "},"Ș":{"ha":713,"x_min":24,"x_max":679,"o":"m 24 0 m 375 944 q 579 901 496 944 q 663 761 663 858 q 624 667 663 700 q 522 633 585 633 q 450 649 479 633 q 460 729 460 683 q 435 816 460 785 q 358 847 411 847 q 285 822 313 847 q 258 751 258 797 q 283 667 258 704 q 345 604 308 631 q 446 540 382 578 q 567 461 521 496 q 647 374 614 426 q 679 247 679 321 q 582 40 679 110 q 329 -31 485 -31 q 112 15 200 -31 q 24 164 24 61 q 63 263 24 225 q 164 300 103 300 q 236 285 210 300 q 226 211 226 242 q 346 67 226 67 q 436 98 401 67 q 471 182 471 129 q 446 266 471 229 q 383 330 421 303 q 283 394 346 357 q 162 474 208 439 q 83 561 115 508 q 50 686 50 614 q 94 826 50 768 q 213 915 139 885 q 375 944 288 944 m 324 -71 q 438 -178 438 -71 q 415 -258 438 -219 q 354 -320 393 -296 q 271 -344 315 -344 q 219 -337 247 -344 q 271 -192 271 -267 q 242 -89 271 -136 q 279 -76 256 -81 q 324 -71 303 -71 z "},"Ṣ":{"ha":713,"x_min":24,"x_max":679,"o":"m 24 0 m 375 944 q 579 901 496 944 q 663 761 663 858 q 624 667 663 700 q 522 633 585 633 q 450 649 479 633 q 460 729 460 683 q 435 816 460 785 q 358 847 411 847 q 285 822 313 847 q 258 751 258 797 q 283 667 258 704 q 345 604 308 631 q 446 540 382 578 q 567 461 521 496 q 647 374 614 426 q 679 247 679 321 q 582 40 679 110 q 329 -31 485 -31 q 112 15 200 -31 q 24 164 24 61 q 63 263 24 225 q 164 300 103 300 q 236 285 210 300 q 226 211 226 242 q 346 67 226 67 q 436 98 401 67 q 471 182 471 129 q 446 266 471 229 q 383 330 421 303 q 283 394 346 357 q 162 474 208 439 q 83 561 115 508 q 50 686 50 614 q 94 826 50 768 q 213 915 139 885 q 375 944 288 944 m 340 -65 q 431 -92 397 -65 q 465 -165 465 -118 q 429 -240 465 -214 q 336 -265 393 -265 q 245 -240 281 -265 q 210 -168 210 -214 q 247 -92 210 -119 q 340 -65 283 -65 z "},"ẞ":{"ha":975,"x_min":60,"x_max":960,"o":"m 61 453 q 160 822 60 699 q 489 944 260 944 q 688 901 600 944 q 828 769 775 858 q 693 719 744 751 q 642 628 642 688 q 674 556 642 589 q 772 472 706 522 q 869 396 832 429 q 933 316 907 363 q 960 214 960 269 q 876 30 960 90 q 656 -31 793 -31 q 458 12 540 -31 q 376 146 376 54 q 415 229 376 199 q 510 260 453 260 q 550 256 529 260 q 582 243 571 251 q 574 174 574 199 q 667 54 574 54 q 740 83 714 54 q 767 161 767 111 q 747 235 767 201 q 699 293 728 268 q 619 356 671 318 q 533 424 565 396 q 479 492 501 453 q 457 582 457 532 q 506 700 457 654 q 633 769 556 746 q 483 843 576 843 q 362 796 403 843 q 307 667 321 749 q 293 461 293 586 l 294 0 l 63 0 l 61 453 z "},"Ə":{"ha":835,"x_min":38,"x_max":797,"o":"m 383 949 q 695 821 593 949 q 797 468 797 693 q 691 100 797 231 q 365 -31 585 -31 q 131 35 225 -31 q 38 228 38 101 q 143 447 38 386 q 438 507 249 507 q 544 503 474 507 q 347 790 531 790 q 213 747 275 790 q 115 632 150 703 q 81 668 93 643 q 69 721 69 693 q 115 844 69 792 q 233 922 161 896 q 383 949 306 949 m 392 72 q 510 176 478 72 q 544 419 542 281 l 510 419 q 335 378 396 421 q 275 233 275 335 q 306 120 275 168 q 392 72 338 72 z "},"T":{"ha":631,"x_min":-6,"x_max":639,"o":"m 639 917 l 629 807 l 431 807 l 431 0 l 200 0 l 200 807 l -6 807 l -6 917 l 639 917 z "},"Ŧ":{"ha":631,"x_min":-6,"x_max":639,"o":"m 431 807 l 431 526 l 621 526 q 629 482 629 501 q 544 413 629 413 l 431 413 l 431 0 l 200 0 l 200 413 l 18 413 q 10 457 10 432 q 31 508 10 490 q 89 526 51 526 l 200 526 l 200 807 l -6 807 l -6 917 l 639 917 l 629 807 l 431 807 z "},"Ť":{"ha":631,"x_min":-6,"x_max":639,"o":"m 0 0 m 639 917 l 629 807 l 431 807 l 431 0 l 200 0 l 200 807 l -6 807 l -6 917 l 639 917 m 490 1175 l 538 1118 l 339 960 l 292 960 l 89 1118 l 136 1175 l 314 1096 l 490 1175 z "},"Ţ":{"ha":631,"x_min":-6,"x_max":639,"o":"m 319 0 l 285 -85 q 324 -83 299 -83 q 442 -115 399 -83 q 486 -214 486 -147 q 429 -317 486 -279 q 294 -356 372 -356 q 197 -337 240 -356 q 154 -274 154 -318 q 169 -229 154 -244 q 274 -271 206 -271 q 325 -256 304 -271 q 346 -214 346 -240 q 243 -153 346 -153 q 186 -157 213 -153 l 244 0 l 200 0 l 200 807 l -6 807 l -6 917 l 639 917 l 629 807 l 431 807 l 431 0 l 319 0 z "},"Ț":{"ha":631,"x_min":-6,"x_max":639,"o":"m 0 0 m 639 917 l 629 807 l 431 807 l 431 0 l 200 0 l 200 807 l -6 807 l -6 917 l 639 917 m 303 -71 q 417 -178 417 -71 q 394 -258 417 -219 q 333 -320 372 -296 q 250 -344 294 -344 q 199 -337 226 -344 q 250 -192 250 -267 q 221 -89 250 -136 q 258 -76 235 -81 q 303 -71 282 -71 z "},"Ṭ":{"ha":631,"x_min":-6,"x_max":639,"o":"m 0 0 m 639 917 l 629 807 l 431 807 l 431 0 l 200 0 l 200 807 l -6 807 l -6 917 l 639 917 m 319 -65 q 410 -92 376 -65 q 444 -165 444 -118 q 408 -240 444 -214 q 315 -265 372 -265 q 224 -240 260 -265 q 189 -168 189 -214 q 226 -92 189 -119 q 319 -65 263 -65 z "},"U":{"ha":804,"x_min":67,"x_max":736,"o":"m 736 381 q 708 152 736 242 q 608 16 679 63 q 410 -31 536 -31 q 146 57 225 -31 q 67 335 67 144 l 67 917 l 297 917 l 297 350 q 306 200 297 257 q 343 110 314 143 q 429 76 372 76 q 516 112 488 76 q 553 207 544 147 q 561 365 561 267 l 561 917 l 736 917 l 736 381 z "},"Ú":{"ha":804,"x_min":67,"x_max":736,"o":"m 67 0 m 736 381 q 708 152 736 242 q 608 16 679 63 q 410 -31 536 -31 q 146 57 225 -31 q 67 335 67 144 l 67 917 l 297 917 l 297 350 q 306 200 297 257 q 343 110 314 143 q 429 76 372 76 q 516 112 488 76 q 553 207 544 147 q 561 365 561 267 l 561 917 l 736 917 l 736 381 m 622 1179 q 656 1140 643 1163 q 668 1093 668 1117 q 624 1022 668 1040 q 503 999 581 1004 l 319 985 l 303 1050 l 622 1179 z "},"Ŭ":{"ha":804,"x_min":67,"x_max":736,"o":"m 67 0 m 736 381 q 708 152 736 242 q 608 16 679 63 q 410 -31 536 -31 q 146 57 225 -31 q 67 335 67 144 l 67 917 l 297 917 l 297 350 q 306 200 297 257 q 343 110 314 143 q 429 76 372 76 q 516 112 488 76 q 553 207 544 147 q 561 365 561 267 l 561 917 l 736 917 l 736 381 m 668 1153 q 609 1013 668 1063 q 429 963 550 963 q 248 1013 307 963 q 189 1153 189 1063 l 356 1153 q 359 1090 356 1113 q 378 1051 363 1067 q 429 1035 394 1035 q 478 1051 463 1035 q 498 1090 494 1067 q 501 1153 501 1113 l 668 1153 z "},"Û":{"ha":804,"x_min":67,"x_max":736,"o":"m 67 0 m 736 381 q 708 152 736 242 q 608 16 679 63 q 410 -31 536 -31 q 146 57 225 -31 q 67 335 67 144 l 67 917 l 297 917 l 297 350 q 306 200 297 257 q 343 110 314 143 q 429 76 372 76 q 516 112 488 76 q 553 207 544 147 q 561 365 561 267 l 561 917 l 736 917 l 736 381 m 253 940 l 206 997 l 411 1169 l 444 1169 l 654 997 l 607 940 l 429 1026 l 253 940 z "},"Ü":{"ha":804,"x_min":67,"x_max":736,"o":"m 67 0 m 736 381 q 708 152 736 242 q 608 16 679 63 q 410 -31 536 -31 q 146 57 225 -31 q 67 335 67 144 l 67 917 l 297 917 l 297 350 q 306 200 297 257 q 343 110 314 143 q 429 76 372 76 q 516 112 488 76 q 553 207 544 147 q 561 365 561 267 l 561 917 l 736 917 l 736 381 m 579 1188 q 670 1161 636 1188 q 704 1088 704 1135 q 668 1013 704 1039 q 575 988 632 988 q 484 1013 519 988 q 449 1085 449 1039 q 485 1160 449 1133 q 579 1188 522 1188 m 282 1188 q 373 1161 339 1188 q 407 1088 407 1135 q 371 1013 407 1039 q 278 988 335 988 q 187 1013 222 988 q 151 1085 151 1039 q 188 1160 151 1133 q 282 1188 225 1188 z "},"Ụ":{"ha":804,"x_min":67,"x_max":736,"o":"m 67 0 m 736 381 q 708 152 736 242 q 608 16 679 63 q 410 -31 536 -31 q 146 57 225 -31 q 67 335 67 144 l 67 917 l 297 917 l 297 350 q 306 200 297 257 q 343 110 314 143 q 429 76 372 76 q 516 112 488 76 q 553 207 544 147 q 561 365 561 267 l 561 917 l 736 917 l 736 381 m 435 -65 q 526 -92 492 -65 q 560 -165 560 -118 q 524 -240 560 -214 q 431 -265 488 -265 q 340 -240 375 -265 q 304 -168 304 -214 q 341 -92 304 -119 q 435 -65 378 -65 z "},"Ù":{"ha":804,"x_min":67,"x_max":736,"o":"m 67 0 m 736 381 q 708 152 736 242 q 608 16 679 63 q 410 -31 536 -31 q 146 57 225 -31 q 67 335 67 144 l 67 917 l 297 917 l 297 350 q 306 200 297 257 q 343 110 314 143 q 429 76 372 76 q 516 112 488 76 q 553 207 544 147 q 561 365 561 267 l 561 917 l 736 917 l 736 381 m 356 1000 q 234 1024 278 1006 q 190 1094 190 1042 q 203 1141 190 1118 q 236 1181 215 1164 l 556 1051 l 539 986 l 356 1000 z "},"Ű":{"ha":804,"x_min":67,"x_max":789,"o":"m 67 0 m 736 381 q 708 152 736 242 q 608 16 679 63 q 410 -31 536 -31 q 146 57 225 -31 q 67 335 67 144 l 67 917 l 297 917 l 297 350 q 306 200 297 257 q 343 110 314 143 q 429 76 372 76 q 516 112 488 76 q 553 207 544 147 q 561 365 561 267 l 561 917 l 736 917 l 736 381 m 458 1189 q 497 1156 482 1176 q 511 1113 511 1136 q 382 1007 511 1042 l 257 974 l 229 1038 l 458 1189 m 736 1189 q 774 1156 760 1176 q 789 1113 789 1136 q 660 1007 789 1042 l 535 974 l 507 1038 l 736 1189 z "},"Ū":{"ha":804,"x_min":67,"x_max":736,"o":"m 67 0 m 736 381 q 708 152 736 242 q 608 16 679 63 q 410 -31 536 -31 q 146 57 225 -31 q 67 335 67 144 l 67 917 l 297 917 l 297 350 q 306 200 297 257 q 343 110 314 143 q 429 76 372 76 q 516 112 488 76 q 553 207 544 147 q 561 365 561 267 l 561 917 l 736 917 l 736 381 m 619 1172 q 632 1118 632 1147 q 610 1069 632 1088 q 551 1051 589 1051 l 238 1051 q 226 1103 226 1071 q 247 1153 226 1135 q 301 1172 267 1172 l 619 1172 z "},"Ų":{"ha":804,"x_min":67,"x_max":736,"o":"m 599 11 q 516 -76 547 -28 q 485 -178 485 -125 q 503 -237 485 -219 q 563 -256 521 -256 q 603 -247 583 -256 q 633 -224 624 -239 q 660 -269 660 -243 q 618 -334 660 -312 q 526 -356 576 -356 q 399 -319 449 -356 q 350 -212 350 -283 q 450 -29 350 -110 q 410 -31 438 -31 q 146 57 225 -31 q 67 335 67 144 l 67 917 l 297 917 l 297 350 q 306 200 297 257 q 343 110 314 143 q 429 76 372 76 q 516 112 488 76 q 553 207 544 147 q 561 365 561 267 l 561 917 l 736 917 l 736 381 q 705 146 736 236 q 599 11 674 56 z "},"Ů":{"ha":804,"x_min":67,"x_max":736,"o":"m 67 0 m 736 381 q 708 152 736 242 q 608 16 679 63 q 410 -31 536 -31 q 146 57 225 -31 q 67 335 67 144 l 67 917 l 297 917 l 297 350 q 306 200 297 257 q 343 110 314 143 q 429 76 372 76 q 516 112 488 76 q 553 207 544 147 q 561 365 561 267 l 561 917 l 736 917 l 736 381 m 429 972 q 322 1007 364 972 q 279 1099 279 1042 q 321 1189 279 1157 q 429 1221 363 1221 q 538 1189 496 1221 q 579 1099 579 1157 q 537 1007 579 1042 q 429 972 494 972 m 429 1025 q 475 1045 460 1025 q 490 1099 490 1065 q 474 1149 490 1129 q 429 1169 458 1169 q 384 1149 400 1169 q 368 1099 368 1129 q 383 1045 368 1065 q 429 1025 399 1025 z "},"Ũ":{"ha":804,"x_min":67,"x_max":736,"o":"m 67 0 m 736 381 q 708 152 736 242 q 608 16 679 63 q 410 -31 536 -31 q 146 57 225 -31 q 67 335 67 144 l 67 917 l 297 917 l 297 350 q 306 200 297 257 q 343 110 314 143 q 429 76 372 76 q 516 112 488 76 q 553 207 544 147 q 561 365 561 267 l 561 917 l 736 917 l 736 381 m 639 1150 q 664 1114 654 1135 q 674 1072 674 1093 q 561 993 674 993 q 488 1000 533 993 q 429 1008 443 1007 q 303 1024 343 1024 q 221 1000 246 1024 q 196 1035 206 1014 q 186 1076 186 1056 q 299 1156 186 1156 q 371 1149 326 1156 q 429 1140 415 1142 q 557 1125 515 1125 q 639 1150 614 1125 z "},"V":{"ha":739,"x_min":-1,"x_max":751,"o":"m 751 917 l 503 0 l 221 0 l -1 917 l 233 917 l 401 136 l 565 917 l 751 917 z "},"W":{"ha":1222,"x_min":-1,"x_max":1236,"o":"m 1236 917 l 996 0 l 714 0 l 601 557 l 493 0 l 211 0 l -1 917 l 233 917 l 392 136 l 547 917 l 736 917 l 893 136 l 1049 917 l 1236 917 z "},"Ẃ":{"ha":1222,"x_min":-1,"x_max":1236,"o":"m 0 0 m 1236 917 l 996 0 l 714 0 l 601 557 l 493 0 l 211 0 l -1 917 l 233 917 l 392 136 l 547 917 l 736 917 l 893 136 l 1049 917 l 1236 917 m 835 1179 q 868 1140 856 1163 q 881 1093 881 1117 q 837 1022 881 1040 q 715 999 793 1004 l 532 985 l 515 1050 l 835 1179 z "},"Ŵ":{"ha":1222,"x_min":-1,"x_max":1236,"o":"m 0 0 m 1236 917 l 996 0 l 714 0 l 601 557 l 493 0 l 211 0 l -1 917 l 233 917 l 392 136 l 547 917 l 736 917 l 893 136 l 1049 917 l 1236 917 m 464 940 l 417 997 l 622 1169 l 656 1169 l 865 997 l 818 940 l 640 1026 l 464 940 z "},"Ẅ":{"ha":1222,"x_min":-1,"x_max":1236,"o":"m 0 0 m 1236 917 l 996 0 l 714 0 l 601 557 l 493 0 l 211 0 l -1 917 l 233 917 l 392 136 l 547 917 l 736 917 l 893 136 l 1049 917 l 1236 917 m 790 1188 q 881 1161 847 1188 q 915 1088 915 1135 q 879 1013 915 1039 q 786 988 843 988 q 695 1013 731 988 q 660 1085 660 1039 q 697 1160 660 1133 q 790 1188 733 1188 m 493 1188 q 584 1161 550 1188 q 618 1088 618 1135 q 582 1013 618 1039 q 489 988 546 988 q 398 1013 433 988 q 363 1085 363 1039 q 399 1160 363 1133 q 493 1188 436 1188 z "},"Ẁ":{"ha":1222,"x_min":-1,"x_max":1236,"o":"m 0 0 m 1236 917 l 996 0 l 714 0 l 601 557 l 493 0 l 211 0 l -1 917 l 233 917 l 392 136 l 547 917 l 736 917 l 893 136 l 1049 917 l 1236 917 m 568 1000 q 447 1024 490 1006 q 403 1094 403 1042 q 415 1141 403 1118 q 449 1181 428 1164 l 768 1051 l 751 986 l 568 1000 z "},"X":{"ha":726,"x_min":-10,"x_max":735,"o":"m 731 917 l 485 468 l 735 0 l 493 0 l 326 328 l 183 0 l -10 0 l 247 471 l 10 917 l 251 917 l 404 611 l 538 917 l 731 917 z "},"Y":{"ha":733,"x_min":1,"x_max":728,"o":"m 476 419 l 476 0 l 246 0 l 246 404 l 1 917 l 243 917 l 396 547 l 535 917 l 728 917 l 476 419 z "},"Ý":{"ha":733,"x_min":1,"x_max":728,"o":"m 1 0 m 476 419 l 476 0 l 246 0 l 246 404 l 1 917 l 243 917 l 396 547 l 535 917 l 728 917 l 476 419 m 576 1179 q 610 1140 597 1163 q 622 1093 622 1117 q 578 1022 622 1040 q 457 999 535 1004 l 274 985 l 257 1050 l 576 1179 z "},"Ŷ":{"ha":733,"x_min":1,"x_max":728,"o":"m 1 0 m 476 419 l 476 0 l 246 0 l 246 404 l 1 917 l 243 917 l 396 547 l 535 917 l 728 917 l 476 419 m 206 940 l 158 997 l 364 1169 l 397 1169 l 607 997 l 560 940 l 382 1026 l 206 940 z "},"Ÿ":{"ha":733,"x_min":1,"x_max":728,"o":"m 1 0 m 476 419 l 476 0 l 246 0 l 246 404 l 1 917 l 243 917 l 396 547 l 535 917 l 728 917 l 476 419 m 532 1188 q 623 1161 589 1188 q 657 1088 657 1135 q 621 1013 657 1039 q 528 988 585 988 q 437 1013 472 988 q 401 1085 401 1039 q 438 1160 401 1133 q 532 1188 475 1188 m 235 1188 q 326 1161 292 1188 q 360 1088 360 1135 q 324 1013 360 1039 q 231 988 288 988 q 140 1013 175 988 q 104 1085 104 1039 q 141 1160 104 1133 q 235 1188 178 1188 z "},"Ỳ":{"ha":733,"x_min":1,"x_max":728,"o":"m 1 0 m 476 419 l 476 0 l 246 0 l 246 404 l 1 917 l 243 917 l 396 547 l 535 917 l 728 917 l 476 419 m 310 1000 q 188 1024 232 1006 q 144 1094 144 1042 q 157 1141 144 1118 q 190 1181 169 1164 l 510 1051 l 493 986 l 310 1000 z "},"Ỹ":{"ha":733,"x_min":1,"x_max":728,"o":"m 1 0 m 476 419 l 476 0 l 246 0 l 246 404 l 1 917 l 243 917 l 396 547 l 535 917 l 728 917 l 476 419 m 593 1150 q 618 1114 608 1135 q 628 1072 628 1093 q 515 993 628 993 q 442 1000 488 993 q 383 1008 397 1007 q 257 1024 297 1024 q 175 1000 200 1024 q 150 1035 160 1014 q 140 1076 140 1056 q 253 1156 140 1156 q 325 1149 281 1156 q 383 1140 369 1142 q 511 1125 469 1125 q 593 1150 568 1125 z "},"Z":{"ha":625,"x_min":8,"x_max":624,"o":"m 600 917 l 610 813 l 254 114 l 624 114 l 613 0 l 18 0 l 8 104 l 363 803 l 35 803 l 39 917 l 600 917 z "},"Ź":{"ha":625,"x_min":8,"x_max":624,"o":"m 8 0 m 600 917 l 610 813 l 254 114 l 624 114 l 613 0 l 18 0 l 8 104 l 363 803 l 35 803 l 39 917 l 600 917 m 507 1179 q 540 1140 528 1163 q 553 1093 553 1117 q 509 1022 553 1040 q 388 999 465 1004 l 204 985 l 188 1050 l 507 1179 z "},"Ž":{"ha":625,"x_min":8,"x_max":624,"o":"m 8 0 m 600 917 l 610 813 l 254 114 l 624 114 l 613 0 l 18 0 l 8 104 l 363 803 l 35 803 l 39 917 l 600 917 m 489 1175 l 536 1118 l 338 960 l 290 960 l 88 1118 l 135 1175 l 313 1096 l 489 1175 z "},"Ż":{"ha":625,"x_min":8,"x_max":624,"o":"m 8 0 m 600 917 l 610 813 l 254 114 l 624 114 l 613 0 l 18 0 l 8 104 l 363 803 l 35 803 l 39 917 l 600 917 m 318 1217 q 409 1190 375 1217 q 443 1117 443 1164 q 407 1042 443 1068 q 314 1017 371 1017 q 223 1042 258 1017 q 188 1114 188 1068 q 224 1190 188 1163 q 318 1217 261 1217 z "},"Ẓ":{"ha":625,"x_min":8,"x_max":624,"o":"m 8 0 m 600 917 l 610 813 l 254 114 l 624 114 l 613 0 l 18 0 l 8 104 l 363 803 l 35 803 l 39 917 l 600 917 m 306 -65 q 397 -92 363 -65 q 431 -165 431 -118 q 394 -240 431 -214 q 301 -265 358 -265 q 210 -240 246 -265 q 175 -168 175 -214 q 212 -92 175 -119 q 306 -65 249 -65 z "},"a":{"ha":750,"x_min":36,"x_max":717,"o":"m 478 63 q 403 -8 453 14 q 290 -31 353 -31 q 110 25 183 -31 q 36 179 36 81 q 157 357 36 310 q 461 404 278 404 l 461 525 q 443 625 461 590 q 372 660 425 660 q 294 630 322 660 q 267 549 267 600 q 275 482 267 526 q 246 472 265 475 q 210 468 226 468 q 115 495 153 468 q 78 574 78 522 q 167 694 78 653 q 382 736 257 736 q 603 676 532 736 q 674 475 674 617 l 674 139 q 683 71 674 100 q 717 19 693 42 q 672 -10 701 0 q 611 -21 642 -21 q 525 1 560 -21 q 478 63 490 22 m 356 65 q 435 110 410 65 q 461 218 461 154 l 461 335 q 256 185 256 335 q 281 99 256 132 q 356 65 307 65 z "},"á":{"ha":750,"x_min":36,"x_max":717,"o":"m 36 0 m 478 63 q 403 -8 453 14 q 290 -31 353 -31 q 110 25 183 -31 q 36 179 36 81 q 157 357 36 310 q 461 404 278 404 l 461 525 q 443 625 461 590 q 372 660 425 660 q 294 630 322 660 q 267 549 267 600 q 275 482 267 526 q 246 472 265 475 q 210 468 226 468 q 115 495 153 468 q 78 574 78 522 q 167 694 78 653 q 382 736 257 736 q 603 676 532 736 q 674 475 674 617 l 674 139 q 683 71 674 100 q 717 19 693 42 q 672 -10 701 0 q 611 -21 642 -21 q 525 1 560 -21 q 478 63 490 22 m 356 65 q 435 110 410 65 q 461 218 461 154 l 461 335 q 256 185 256 335 q 281 99 256 132 q 356 65 307 65 m 513 1063 q 562 1026 542 1051 q 582 971 582 1000 q 546 903 582 928 q 446 857 510 879 l 272 796 l 240 853 l 513 1063 z "},"ă":{"ha":750,"x_min":36,"x_max":717,"o":"m 36 0 m 478 63 q 403 -8 453 14 q 290 -31 353 -31 q 110 25 183 -31 q 36 179 36 81 q 157 357 36 310 q 461 404 278 404 l 461 525 q 443 625 461 590 q 372 660 425 660 q 294 630 322 660 q 267 549 267 600 q 275 482 267 526 q 246 472 265 475 q 210 468 226 468 q 115 495 153 468 q 78 574 78 522 q 167 694 78 653 q 382 736 257 736 q 603 676 532 736 q 674 475 674 617 l 674 139 q 683 71 674 100 q 717 19 693 42 q 672 -10 701 0 q 611 -21 642 -21 q 525 1 560 -21 q 478 63 490 22 m 356 65 q 435 110 410 65 q 461 218 461 154 l 461 335 q 256 185 256 335 q 281 99 256 132 q 356 65 307 65 m 607 1025 q 544 874 607 931 q 368 818 481 818 q 191 874 254 818 q 128 1025 128 929 l 294 1025 q 307 924 294 958 q 368 890 319 890 q 428 924 417 890 q 440 1025 440 958 l 607 1025 z "},"â":{"ha":750,"x_min":36,"x_max":717,"o":"m 36 0 m 478 63 q 403 -8 453 14 q 290 -31 353 -31 q 110 25 183 -31 q 36 179 36 81 q 157 357 36 310 q 461 404 278 404 l 461 525 q 443 625 461 590 q 372 660 425 660 q 294 630 322 660 q 267 549 267 600 q 275 482 267 526 q 246 472 265 475 q 210 468 226 468 q 115 495 153 468 q 78 574 78 522 q 167 694 78 653 q 382 736 257 736 q 603 676 532 736 q 674 475 674 617 l 674 139 q 683 71 674 100 q 717 19 693 42 q 672 -10 701 0 q 611 -21 642 -21 q 525 1 560 -21 q 478 63 490 22 m 356 65 q 435 110 410 65 q 461 218 461 154 l 461 335 q 256 185 256 335 q 281 99 256 132 q 356 65 307 65 m 192 806 l 144 863 l 350 1035 l 383 1035 l 593 863 l 546 806 l 368 892 l 192 806 z "},"ä":{"ha":750,"x_min":36,"x_max":717,"o":"m 36 0 m 478 63 q 403 -8 453 14 q 290 -31 353 -31 q 110 25 183 -31 q 36 179 36 81 q 157 357 36 310 q 461 404 278 404 l 461 525 q 443 625 461 590 q 372 660 425 660 q 294 630 322 660 q 267 549 267 600 q 275 482 267 526 q 246 472 265 475 q 210 468 226 468 q 115 495 153 468 q 78 574 78 522 q 167 694 78 653 q 382 736 257 736 q 603 676 532 736 q 674 475 674 617 l 674 139 q 683 71 674 100 q 717 19 693 42 q 672 -10 701 0 q 611 -21 642 -21 q 525 1 560 -21 q 478 63 490 22 m 356 65 q 435 110 410 65 q 461 218 461 154 l 461 335 q 256 185 256 335 q 281 99 256 132 q 356 65 307 65 m 519 1022 q 610 996 576 1022 q 644 922 644 969 q 608 848 644 874 q 515 822 572 822 q 424 848 460 822 q 389 919 389 874 q 426 995 389 968 q 519 1022 463 1022 m 221 1022 q 312 996 278 1022 q 346 922 346 969 q 310 848 346 874 q 217 822 274 822 q 126 848 161 822 q 90 919 90 874 q 127 995 90 968 q 221 1022 164 1022 z "},"à":{"ha":750,"x_min":36,"x_max":717,"o":"m 36 0 m 478 63 q 403 -8 453 14 q 290 -31 353 -31 q 110 25 183 -31 q 36 179 36 81 q 157 357 36 310 q 461 404 278 404 l 461 525 q 443 625 461 590 q 372 660 425 660 q 294 630 322 660 q 267 549 267 600 q 275 482 267 526 q 246 472 265 475 q 210 468 226 468 q 115 495 153 468 q 78 574 78 522 q 167 694 78 653 q 382 736 257 736 q 603 676 532 736 q 674 475 674 617 l 674 139 q 683 71 674 100 q 717 19 693 42 q 672 -10 701 0 q 611 -21 642 -21 q 525 1 560 -21 q 478 63 490 22 m 356 65 q 435 110 410 65 q 461 218 461 154 l 461 335 q 256 185 256 335 q 281 99 256 132 q 356 65 307 65 m 290 857 q 190 905 226 881 q 154 971 154 929 q 174 1026 154 1000 q 225 1063 194 1051 l 496 853 l 464 796 l 290 857 z "},"ā":{"ha":750,"x_min":36,"x_max":717,"o":"m 36 0 m 478 63 q 403 -8 453 14 q 290 -31 353 -31 q 110 25 183 -31 q 36 179 36 81 q 157 357 36 310 q 461 404 278 404 l 461 525 q 443 625 461 590 q 372 660 425 660 q 294 630 322 660 q 267 549 267 600 q 275 482 267 526 q 246 472 265 475 q 210 468 226 468 q 115 495 153 468 q 78 574 78 522 q 167 694 78 653 q 382 736 257 736 q 603 676 532 736 q 674 475 674 617 l 674 139 q 683 71 674 100 q 717 19 693 42 q 672 -10 701 0 q 611 -21 642 -21 q 525 1 560 -21 q 478 63 490 22 m 356 65 q 435 110 410 65 q 461 218 461 154 l 461 335 q 256 185 256 335 q 281 99 256 132 q 356 65 307 65 m 558 978 q 571 924 571 953 q 549 875 571 893 q 490 857 528 857 l 176 857 q 165 908 165 876 q 185 959 165 940 q 240 978 206 978 l 558 978 z "},"ą":{"ha":750,"x_min":36,"x_max":768,"o":"m 742 -222 q 768 -268 768 -242 q 726 -333 768 -311 q 635 -354 685 -354 q 508 -318 557 -354 q 458 -211 458 -282 q 572 -17 458 -101 q 512 10 536 -10 q 478 63 488 31 q 403 -8 453 14 q 290 -31 353 -31 q 110 25 183 -31 q 36 179 36 81 q 157 357 36 310 q 461 404 278 404 l 461 525 q 443 625 461 590 q 372 660 425 660 q 294 630 322 660 q 267 549 267 600 q 275 482 267 526 q 246 472 265 475 q 210 468 226 468 q 115 495 153 468 q 78 574 78 522 q 167 694 78 653 q 382 736 257 736 q 603 676 532 736 q 674 475 674 617 l 674 139 q 683 71 674 100 q 717 19 693 42 q 688 -4 710 10 q 619 -85 644 -40 q 593 -176 593 -129 q 611 -236 593 -218 q 671 -254 629 -254 q 712 -246 692 -254 q 742 -222 732 -237 m 461 335 q 256 185 256 335 q 281 99 256 132 q 356 65 307 65 q 435 110 410 65 q 461 218 461 154 l 461 335 z "},"å":{"ha":750,"x_min":36,"x_max":717,"o":"m 36 0 m 478 63 q 403 -8 453 14 q 290 -31 353 -31 q 110 25 183 -31 q 36 179 36 81 q 157 357 36 310 q 461 404 278 404 l 461 525 q 443 625 461 590 q 372 660 425 660 q 294 630 322 660 q 267 549 267 600 q 275 482 267 526 q 246 472 265 475 q 210 468 226 468 q 115 495 153 468 q 78 574 78 522 q 167 694 78 653 q 382 736 257 736 q 603 676 532 736 q 674 475 674 617 l 674 139 q 683 71 674 100 q 717 19 693 42 q 672 -10 701 0 q 611 -21 642 -21 q 525 1 560 -21 q 478 63 490 22 m 356 65 q 435 110 410 65 q 461 218 461 154 l 461 335 q 256 185 256 335 q 281 99 256 132 q 356 65 307 65 m 368 794 q 257 831 301 794 q 213 929 213 868 q 256 1025 213 990 q 368 1060 299 1060 q 479 1026 436 1060 q 522 929 522 992 q 478 831 522 868 q 368 794 435 794 m 368 846 q 417 869 401 846 q 433 929 433 892 q 417 986 433 964 q 368 1008 400 1008 q 318 986 335 1008 q 301 929 301 964 q 318 869 301 892 q 368 846 335 846 z "},"ǻ":{"ha":750,"x_min":36,"x_max":717,"o":"m 563 1268 q 596 1228 583 1251 q 608 1181 608 1206 q 565 1110 608 1128 q 443 1088 521 1093 l 260 1074 l 243 1139 l 563 1268 m 372 774 q 261 810 306 774 q 217 908 217 847 q 260 1004 217 969 q 372 1039 303 1039 q 483 1005 440 1039 q 526 908 526 971 q 483 810 526 847 q 372 774 439 774 m 372 825 q 422 848 406 825 q 438 908 438 871 q 421 965 438 943 q 372 988 404 988 q 322 965 339 988 q 306 908 306 943 q 322 848 306 871 q 372 825 339 825 m 478 63 q 403 -8 453 14 q 290 -31 353 -31 q 110 25 183 -31 q 36 179 36 81 q 157 357 36 310 q 461 404 278 404 l 461 525 q 443 625 461 590 q 372 660 425 660 q 294 630 322 660 q 267 549 267 600 q 275 482 267 526 q 246 472 265 475 q 210 468 226 468 q 115 495 153 468 q 78 574 78 522 q 167 694 78 653 q 382 736 257 736 q 603 676 532 736 q 674 475 674 617 l 674 139 q 683 71 674 100 q 717 19 693 42 q 672 -10 701 0 q 611 -21 642 -21 q 525 1 560 -21 q 478 63 490 22 m 356 65 q 435 110 410 65 q 461 218 461 154 l 461 335 q 256 185 256 335 q 281 99 256 132 q 356 65 307 65 z "},"ã":{"ha":750,"x_min":36,"x_max":717,"o":"m 36 0 m 478 63 q 403 -8 453 14 q 290 -31 353 -31 q 110 25 183 -31 q 36 179 36 81 q 157 357 36 310 q 461 404 278 404 l 461 525 q 443 625 461 590 q 372 660 425 660 q 294 630 322 660 q 267 549 267 600 q 275 482 267 526 q 246 472 265 475 q 210 468 226 468 q 115 495 153 468 q 78 574 78 522 q 167 694 78 653 q 382 736 257 736 q 603 676 532 736 q 674 475 674 617 l 674 139 q 683 71 674 100 q 717 19 693 42 q 672 -10 701 0 q 611 -21 642 -21 q 525 1 560 -21 q 478 63 490 22 m 356 65 q 435 110 410 65 q 461 218 461 154 l 461 335 q 256 185 256 335 q 281 99 256 132 q 356 65 307 65 m 578 990 q 603 954 593 975 q 613 913 613 933 q 500 833 613 833 q 427 840 472 833 q 368 849 382 847 q 242 864 282 864 q 160 839 185 864 q 135 875 144 854 q 125 917 125 896 q 238 996 125 996 q 310 989 265 996 q 368 981 354 982 q 496 965 454 965 q 578 990 553 965 z "},"æ":{"ha":1106,"x_min":36,"x_max":1074,"o":"m 1011 217 q 1047 149 1047 200 q 1010 51 1047 92 q 913 -10 972 11 q 792 -31 854 -31 q 639 -1 704 -31 q 532 83 574 28 q 303 -31 465 -31 q 112 24 188 -31 q 36 179 36 78 q 156 354 36 310 q 461 399 275 399 l 461 525 q 443 625 461 590 q 372 660 425 660 q 294 630 322 660 q 267 549 267 600 q 275 482 267 526 q 246 472 265 475 q 210 468 226 468 q 115 495 153 468 q 78 574 78 522 q 167 694 78 653 q 382 736 257 736 q 510 722 457 736 q 599 676 563 708 q 814 736 683 736 q 1000 685 926 736 q 1074 533 1074 633 q 988 366 1074 411 q 749 321 901 321 q 675 325 700 321 q 713 165 679 224 q 826 107 746 107 q 936 135 886 107 q 1011 217 986 164 m 793 654 q 701 576 728 654 q 674 389 675 499 l 701 389 q 835 419 792 388 q 879 529 879 450 q 858 618 879 582 q 793 654 838 654 m 461 329 q 310 297 364 329 q 256 185 256 265 q 281 99 256 132 q 356 65 307 65 q 435 110 410 65 q 461 218 461 154 l 461 329 z "},"ǽ":{"ha":1106,"x_min":36,"x_max":1074,"o":"m 36 0 m 1011 217 q 1047 149 1047 200 q 1010 51 1047 92 q 913 -10 972 11 q 792 -31 854 -31 q 639 -1 704 -31 q 532 83 574 28 q 303 -31 465 -31 q 112 24 188 -31 q 36 179 36 78 q 156 354 36 310 q 461 399 275 399 l 461 525 q 443 625 461 590 q 372 660 425 660 q 294 630 322 660 q 267 549 267 600 q 275 482 267 526 q 246 472 265 475 q 210 468 226 468 q 115 495 153 468 q 78 574 78 522 q 167 694 78 653 q 382 736 257 736 q 510 722 457 736 q 599 676 563 708 q 814 736 683 736 q 1000 685 926 736 q 1074 533 1074 633 q 988 366 1074 411 q 749 321 901 321 q 675 325 700 321 q 713 165 679 224 q 826 107 746 107 q 936 135 886 107 q 1011 217 986 164 m 793 654 q 701 576 728 654 q 674 389 675 499 l 701 389 q 835 419 792 388 q 879 529 879 450 q 858 618 879 582 q 793 654 838 654 m 461 329 q 310 297 364 329 q 256 185 256 265 q 281 99 256 132 q 356 65 307 65 q 435 110 410 65 q 461 218 461 154 l 461 329 m 690 1063 q 740 1026 719 1051 q 760 971 760 1000 q 724 903 760 928 q 624 857 688 879 l 450 796 l 418 853 l 690 1063 z "},"b":{"ha":781,"x_min":86,"x_max":739,"o":"m 299 833 q 285 632 299 692 q 365 710 314 683 q 479 736 417 736 q 678 633 617 736 q 739 364 739 529 q 651 75 739 181 q 390 -31 563 -31 q 232 -11 317 -31 q 86 40 147 8 l 86 972 l 299 994 l 299 833 m 299 86 q 399 53 343 53 q 496 138 474 53 q 518 357 518 222 q 497 555 518 479 q 407 631 475 631 q 319 568 339 631 q 299 403 299 506 l 299 86 z "},"c":{"ha":661,"x_min":42,"x_max":639,"o":"m 375 653 q 261 360 261 653 q 293 175 261 243 q 414 107 325 107 q 513 138 472 107 q 574 224 554 168 q 610 197 597 215 q 622 153 622 178 q 588 53 622 94 q 497 -9 553 13 q 379 -31 442 -31 q 127 71 213 -31 q 42 349 42 172 q 132 633 42 529 q 396 736 222 736 q 570 697 501 736 q 639 569 639 657 q 601 490 639 517 q 506 464 564 464 q 470 467 489 464 q 442 478 451 471 q 450 543 450 519 q 375 653 450 653 z "},"ć":{"ha":661,"x_min":42,"x_max":639,"o":"m 42 0 m 375 653 q 261 360 261 653 q 293 175 261 243 q 414 107 325 107 q 513 138 472 107 q 574 224 554 168 q 610 197 597 215 q 622 153 622 178 q 588 53 622 94 q 497 -9 553 13 q 379 -31 442 -31 q 127 71 213 -31 q 42 349 42 172 q 132 633 42 529 q 396 736 222 736 q 570 697 501 736 q 639 569 639 657 q 601 490 639 517 q 506 464 564 464 q 470 467 489 464 q 442 478 451 471 q 450 543 450 519 q 375 653 450 653 m 521 1063 q 570 1026 550 1051 q 590 971 590 1000 q 554 903 590 928 q 454 857 518 879 l 281 796 l 249 853 l 521 1063 z "},"č":{"ha":661,"x_min":42,"x_max":639,"o":"m 42 0 m 375 653 q 261 360 261 653 q 293 175 261 243 q 414 107 325 107 q 513 138 472 107 q 574 224 554 168 q 610 197 597 215 q 622 153 622 178 q 588 53 622 94 q 497 -9 553 13 q 379 -31 442 -31 q 127 71 213 -31 q 42 349 42 172 q 132 633 42 529 q 396 736 222 736 q 570 697 501 736 q 639 569 639 657 q 601 490 639 517 q 506 464 564 464 q 470 467 489 464 q 442 478 451 471 q 450 543 450 519 q 375 653 450 653 m 553 1042 l 600 985 l 401 799 l 354 799 l 151 985 l 199 1042 l 376 940 l 553 1042 z "},"ç":{"ha":661,"x_min":42,"x_max":639,"o":"m 574 224 q 610 197 597 215 q 622 153 622 178 q 588 53 622 94 q 497 -9 553 13 q 379 -31 442 -31 l 371 -31 l 349 -85 q 388 -83 363 -83 q 506 -115 463 -83 q 550 -214 550 -147 q 493 -317 550 -279 q 358 -356 436 -356 q 261 -337 304 -356 q 218 -274 218 -318 q 233 -229 218 -244 q 338 -271 269 -271 q 389 -256 368 -271 q 410 -214 410 -240 q 307 -153 410 -153 q 250 -157 276 -153 l 300 -24 q 107 98 172 0 q 42 349 42 196 q 132 633 42 529 q 396 736 222 736 q 570 697 501 736 q 639 569 639 657 q 601 490 639 517 q 506 464 564 464 q 470 467 489 464 q 442 478 451 471 q 450 543 450 519 q 375 653 450 653 q 261 360 261 653 q 293 175 261 243 q 414 107 325 107 q 513 138 472 107 q 574 224 554 168 z "},"ĉ":{"ha":661,"x_min":42,"x_max":639,"o":"m 42 0 m 375 653 q 261 360 261 653 q 293 175 261 243 q 414 107 325 107 q 513 138 472 107 q 574 224 554 168 q 610 197 597 215 q 622 153 622 178 q 588 53 622 94 q 497 -9 553 13 q 379 -31 442 -31 q 127 71 213 -31 q 42 349 42 172 q 132 633 42 529 q 396 736 222 736 q 570 697 501 736 q 639 569 639 657 q 601 490 639 517 q 506 464 564 464 q 470 467 489 464 q 442 478 451 471 q 450 543 450 519 q 375 653 450 653 m 200 806 l 153 863 l 358 1035 l 392 1035 l 601 863 l 554 806 l 376 892 l 200 806 z "},"ċ":{"ha":661,"x_min":42,"x_max":639,"o":"m 42 0 m 375 653 q 261 360 261 653 q 293 175 261 243 q 414 107 325 107 q 513 138 472 107 q 574 224 554 168 q 610 197 597 215 q 622 153 622 178 q 588 53 622 94 q 497 -9 553 13 q 379 -31 442 -31 q 127 71 213 -31 q 42 349 42 172 q 132 633 42 529 q 396 736 222 736 q 570 697 501 736 q 639 569 639 657 q 601 490 639 517 q 506 464 564 464 q 470 467 489 464 q 442 478 451 471 q 450 543 450 519 q 375 653 450 653 m 381 1022 q 472 996 438 1022 q 506 922 506 969 q 469 848 506 874 q 376 822 433 822 q 285 848 321 822 q 250 919 250 874 q 287 995 250 968 q 381 1022 324 1022 z "},"d":{"ha":783,"x_min":42,"x_max":738,"o":"m 694 139 q 704 71 694 100 q 738 19 714 42 q 692 -10 722 0 q 632 -21 663 -21 q 546 1 581 -21 q 499 63 511 22 q 423 -8 472 15 q 313 -31 374 -31 q 106 77 169 -31 q 42 357 42 185 q 128 636 42 536 q 386 736 214 736 q 482 725 443 736 l 482 972 l 694 994 l 694 139 m 482 619 q 382 653 435 653 q 286 573 308 653 q 264 364 264 493 q 287 153 264 238 q 381 69 310 69 q 457 114 432 69 q 482 222 482 158 l 482 619 z "},"ð":{"ha":786,"x_min":42,"x_max":731,"o":"m 361 1000 q 590 903 500 1000 l 708 944 q 721 926 715 938 q 728 907 726 915 q 731 892 731 896 q 682 842 731 860 l 643 828 q 706 649 686 750 q 726 438 726 549 q 646 99 726 226 q 385 -29 565 -29 q 204 14 282 -29 q 84 135 126 57 q 42 315 42 213 q 90 520 42 438 q 217 644 138 603 q 392 685 297 685 q 485 672 447 685 q 468 764 481 722 l 351 721 q 338 739 344 728 q 331 758 332 750 q 329 772 329 764 q 372 822 329 807 l 425 842 q 324 878 386 878 q 249 857 278 878 q 238 885 242 868 q 233 917 233 901 q 269 980 233 960 q 361 1000 304 1000 m 385 54 q 479 151 457 54 q 501 411 501 249 q 493 565 501 488 q 392 601 446 601 q 291 522 314 601 q 268 325 268 442 q 292 136 268 218 q 385 54 317 54 z "},"ď":{"ha":783,"x_min":42,"x_max":954,"o":"m 42 0 m 694 139 q 704 71 694 100 q 738 19 714 42 q 692 -10 722 0 q 632 -21 663 -21 q 546 1 581 -21 q 499 63 511 22 q 423 -8 472 15 q 313 -31 374 -31 q 106 77 169 -31 q 42 357 42 185 q 128 636 42 536 q 386 736 214 736 q 482 725 443 736 l 482 972 l 694 994 l 694 139 m 482 619 q 382 653 435 653 q 286 573 308 653 q 264 364 264 493 q 287 153 264 238 q 381 69 310 69 q 457 114 432 69 q 482 222 482 158 l 482 619 m 776 981 q 811 994 789 989 q 854 1000 833 1000 q 928 971 901 1000 q 954 886 954 942 q 936 817 954 851 q 885 759 918 782 q 810 736 853 736 q 764 744 785 736 q 806 876 806 803 q 776 981 806 931 z "},"đ":{"ha":888,"x_min":42,"x_max":843,"o":"m 833 893 q 843 847 843 871 q 757 779 843 779 l 694 779 l 694 139 q 704 71 694 100 q 738 19 714 42 q 692 -10 722 0 q 632 -21 663 -21 q 546 1 581 -21 q 499 63 511 22 q 423 -8 472 15 q 313 -31 374 -31 q 106 77 169 -31 q 42 357 42 185 q 128 636 42 536 q 386 736 214 736 q 482 725 443 736 l 482 779 l 296 779 q 288 822 288 804 q 308 875 288 857 q 368 893 329 893 l 482 893 l 482 972 l 694 994 l 694 893 l 833 893 m 482 619 q 382 653 435 653 q 286 573 308 653 q 264 364 264 493 q 287 153 264 238 q 381 69 310 69 q 457 114 432 69 q 482 222 482 158 l 482 619 z "},"ḍ":{"ha":783,"x_min":42,"x_max":738,"o":"m 42 0 m 694 139 q 704 71 694 100 q 738 19 714 42 q 692 -10 722 0 q 632 -21 663 -21 q 546 1 581 -21 q 499 63 511 22 q 423 -8 472 15 q 313 -31 374 -31 q 106 77 169 -31 q 42 357 42 185 q 128 636 42 536 q 386 736 214 736 q 482 725 443 736 l 482 972 l 694 994 l 694 139 m 482 619 q 382 653 435 653 q 286 573 308 653 q 264 364 264 493 q 287 153 264 238 q 381 69 310 69 q 457 114 432 69 q 482 222 482 158 l 482 619 m 415 -65 q 506 -92 472 -65 q 540 -165 540 -118 q 504 -240 540 -214 q 411 -265 468 -265 q 320 -240 356 -265 q 285 -168 285 -214 q 322 -92 285 -119 q 415 -65 358 -65 z "},"ǳ":{"ha":1347,"x_min":42,"x_max":1331,"o":"m 42 0 m 694 139 q 704 71 694 100 q 738 19 714 42 q 692 -10 722 0 q 632 -21 663 -21 q 546 1 581 -21 q 499 63 511 22 q 423 -8 472 15 q 313 -31 374 -31 q 106 77 169 -31 q 42 357 42 185 q 128 636 42 536 q 386 736 214 736 q 482 725 443 736 l 482 972 l 694 994 l 694 139 m 482 619 q 382 653 435 653 q 286 573 308 653 q 264 364 264 493 q 287 153 264 238 q 381 69 310 69 q 457 114 432 69 q 482 222 482 158 l 482 619 m 1315 708 l 1325 626 l 1029 106 l 1331 121 l 1319 0 l 800 0 l 790 83 l 1085 601 l 811 583 l 824 708 l 1315 708 z "},"ǆ":{"ha":1347,"x_min":42,"x_max":1331,"o":"m 42 0 m 694 139 q 704 71 694 100 q 738 19 714 42 q 692 -10 722 0 q 632 -21 663 -21 q 546 1 581 -21 q 499 63 511 22 q 423 -8 472 15 q 313 -31 374 -31 q 106 77 169 -31 q 42 357 42 185 q 128 636 42 536 q 386 736 214 736 q 482 725 443 736 l 482 972 l 694 994 l 694 139 m 482 619 q 382 653 435 653 q 286 573 308 653 q 264 364 264 493 q 287 153 264 238 q 381 69 310 69 q 457 114 432 69 q 482 222 482 158 l 482 619 m 1315 708 l 1325 626 l 1029 106 l 1331 121 l 1319 0 l 800 0 l 790 83 l 1085 601 l 811 583 l 824 708 l 1315 708 m 1240 1042 l 1288 985 l 1089 799 l 1042 799 l 839 985 l 886 1042 l 1064 940 l 1240 1042 z "},"e":{"ha":692,"x_min":42,"x_max":661,"o":"m 599 217 q 635 149 635 200 q 597 51 635 92 q 501 -10 560 11 q 379 -31 442 -31 q 127 71 213 -31 q 42 349 42 172 q 134 633 42 531 q 401 736 226 736 q 588 685 514 736 q 661 533 661 633 q 574 363 661 410 q 335 315 486 315 q 261 319 288 315 q 299 164 265 221 q 414 107 333 107 q 523 135 474 107 q 599 217 572 164 m 381 654 q 288 573 314 654 q 261 383 263 492 l 289 383 q 422 415 376 382 q 467 529 467 449 q 445 618 467 582 q 381 654 424 654 z "},"é":{"ha":692,"x_min":42,"x_max":661,"o":"m 42 0 m 599 217 q 635 149 635 200 q 597 51 635 92 q 501 -10 560 11 q 379 -31 442 -31 q 127 71 213 -31 q 42 349 42 172 q 134 633 42 531 q 401 736 226 736 q 588 685 514 736 q 661 533 661 633 q 574 363 661 410 q 335 315 486 315 q 261 319 288 315 q 299 164 265 221 q 414 107 333 107 q 523 135 474 107 q 599 217 572 164 m 381 654 q 288 573 314 654 q 261 383 263 492 l 289 383 q 422 415 376 382 q 467 529 467 449 q 445 618 467 582 q 381 654 424 654 m 524 1063 q 573 1026 553 1051 q 593 971 593 1000 q 557 903 593 928 q 457 857 521 879 l 283 796 l 251 853 l 524 1063 z "},"ĕ":{"ha":692,"x_min":42,"x_max":661,"o":"m 42 0 m 599 217 q 635 149 635 200 q 597 51 635 92 q 501 -10 560 11 q 379 -31 442 -31 q 127 71 213 -31 q 42 349 42 172 q 134 633 42 531 q 401 736 226 736 q 588 685 514 736 q 661 533 661 633 q 574 363 661 410 q 335 315 486 315 q 261 319 288 315 q 299 164 265 221 q 414 107 333 107 q 523 135 474 107 q 599 217 572 164 m 381 654 q 288 573 314 654 q 261 383 263 492 l 289 383 q 422 415 376 382 q 467 529 467 449 q 445 618 467 582 q 381 654 424 654 m 618 1025 q 555 874 618 931 q 379 818 492 818 q 202 874 265 818 q 139 1025 139 929 l 306 1025 q 318 924 306 958 q 379 890 331 890 q 440 924 428 890 q 451 1025 451 958 l 618 1025 z "},"ě":{"ha":692,"x_min":42,"x_max":661,"o":"m 42 0 m 599 217 q 635 149 635 200 q 597 51 635 92 q 501 -10 560 11 q 379 -31 442 -31 q 127 71 213 -31 q 42 349 42 172 q 134 633 42 531 q 401 736 226 736 q 588 685 514 736 q 661 533 661 633 q 574 363 661 410 q 335 315 486 315 q 261 319 288 315 q 299 164 265 221 q 414 107 333 107 q 523 135 474 107 q 599 217 572 164 m 381 654 q 288 573 314 654 q 261 383 263 492 l 289 383 q 422 415 376 382 q 467 529 467 449 q 445 618 467 582 q 381 654 424 654 m 556 1042 l 603 985 l 404 799 l 357 799 l 154 985 l 201 1042 l 379 940 l 556 1042 z "},"ê":{"ha":692,"x_min":42,"x_max":661,"o":"m 42 0 m 599 217 q 635 149 635 200 q 597 51 635 92 q 501 -10 560 11 q 379 -31 442 -31 q 127 71 213 -31 q 42 349 42 172 q 134 633 42 531 q 401 736 226 736 q 588 685 514 736 q 661 533 661 633 q 574 363 661 410 q 335 315 486 315 q 261 319 288 315 q 299 164 265 221 q 414 107 333 107 q 523 135 474 107 q 599 217 572 164 m 381 654 q 288 573 314 654 q 261 383 263 492 l 289 383 q 422 415 376 382 q 467 529 467 449 q 445 618 467 582 q 381 654 424 654 m 203 806 l 156 863 l 361 1035 l 394 1035 l 604 863 l 557 806 l 379 892 l 203 806 z "},"ë":{"ha":692,"x_min":42,"x_max":661,"o":"m 42 0 m 599 217 q 635 149 635 200 q 597 51 635 92 q 501 -10 560 11 q 379 -31 442 -31 q 127 71 213 -31 q 42 349 42 172 q 134 633 42 531 q 401 736 226 736 q 588 685 514 736 q 661 533 661 633 q 574 363 661 410 q 335 315 486 315 q 261 319 288 315 q 299 164 265 221 q 414 107 333 107 q 523 135 474 107 q 599 217 572 164 m 381 654 q 288 573 314 654 q 261 383 263 492 l 289 383 q 422 415 376 382 q 467 529 467 449 q 445 618 467 582 q 381 654 424 654 m 531 1022 q 622 996 588 1022 q 656 922 656 969 q 619 848 656 874 q 526 822 583 822 q 435 848 471 822 q 400 919 400 874 q 437 995 400 968 q 531 1022 474 1022 m 232 1022 q 323 996 289 1022 q 357 922 357 969 q 321 848 357 874 q 228 822 285 822 q 137 848 172 822 q 101 919 101 874 q 138 995 101 968 q 232 1022 175 1022 z "},"ė":{"ha":692,"x_min":42,"x_max":661,"o":"m 42 0 m 599 217 q 635 149 635 200 q 597 51 635 92 q 501 -10 560 11 q 379 -31 442 -31 q 127 71 213 -31 q 42 349 42 172 q 134 633 42 531 q 401 736 226 736 q 588 685 514 736 q 661 533 661 633 q 574 363 661 410 q 335 315 486 315 q 261 319 288 315 q 299 164 265 221 q 414 107 333 107 q 523 135 474 107 q 599 217 572 164 m 381 654 q 288 573 314 654 q 261 383 263 492 l 289 383 q 422 415 376 382 q 467 529 467 449 q 445 618 467 582 q 381 654 424 654 m 383 1022 q 474 996 440 1022 q 508 922 508 969 q 472 848 508 874 q 379 822 436 822 q 288 848 324 822 q 253 919 253 874 q 290 995 253 968 q 383 1022 326 1022 z "},"ẹ":{"ha":692,"x_min":42,"x_max":661,"o":"m 42 0 m 599 217 q 635 149 635 200 q 597 51 635 92 q 501 -10 560 11 q 379 -31 442 -31 q 127 71 213 -31 q 42 349 42 172 q 134 633 42 531 q 401 736 226 736 q 588 685 514 736 q 661 533 661 633 q 574 363 661 410 q 335 315 486 315 q 261 319 288 315 q 299 164 265 221 q 414 107 333 107 q 523 135 474 107 q 599 217 572 164 m 381 654 q 288 573 314 654 q 261 383 263 492 l 289 383 q 422 415 376 382 q 467 529 467 449 q 445 618 467 582 q 381 654 424 654 m 381 -65 q 472 -92 438 -65 q 506 -165 506 -118 q 469 -240 506 -214 q 376 -265 433 -265 q 285 -240 321 -265 q 250 -168 250 -214 q 287 -92 250 -119 q 381 -65 324 -65 z "},"è":{"ha":692,"x_min":42,"x_max":661,"o":"m 42 0 m 599 217 q 635 149 635 200 q 597 51 635 92 q 501 -10 560 11 q 379 -31 442 -31 q 127 71 213 -31 q 42 349 42 172 q 134 633 42 531 q 401 736 226 736 q 588 685 514 736 q 661 533 661 633 q 574 363 661 410 q 335 315 486 315 q 261 319 288 315 q 299 164 265 221 q 414 107 333 107 q 523 135 474 107 q 599 217 572 164 m 381 654 q 288 573 314 654 q 261 383 263 492 l 289 383 q 422 415 376 382 q 467 529 467 449 q 445 618 467 582 q 381 654 424 654 m 301 857 q 201 905 238 881 q 165 971 165 929 q 185 1026 165 1000 q 236 1063 206 1051 l 507 853 l 475 796 l 301 857 z "},"ē":{"ha":692,"x_min":42,"x_max":661,"o":"m 42 0 m 599 217 q 635 149 635 200 q 597 51 635 92 q 501 -10 560 11 q 379 -31 442 -31 q 127 71 213 -31 q 42 349 42 172 q 134 633 42 531 q 401 736 226 736 q 588 685 514 736 q 661 533 661 633 q 574 363 661 410 q 335 315 486 315 q 261 319 288 315 q 299 164 265 221 q 414 107 333 107 q 523 135 474 107 q 599 217 572 164 m 381 654 q 288 573 314 654 q 261 383 263 492 l 289 383 q 422 415 376 382 q 467 529 467 449 q 445 618 467 582 q 381 654 424 654 m 569 978 q 582 924 582 953 q 560 875 582 893 q 501 857 539 857 l 188 857 q 176 908 176 876 q 197 959 176 940 q 251 978 217 978 l 569 978 z "},"ę":{"ha":692,"x_min":42,"x_max":661,"o":"m 546 11 q 463 -76 494 -28 q 432 -178 432 -125 q 450 -237 432 -219 q 510 -256 468 -256 q 551 -247 531 -256 q 581 -224 571 -239 q 607 -269 607 -243 q 565 -334 607 -312 q 474 -356 524 -356 q 347 -319 396 -356 q 297 -212 297 -283 q 324 -113 297 -160 q 396 -31 350 -67 l 379 -31 q 127 71 213 -31 q 42 349 42 172 q 134 633 42 531 q 401 736 226 736 q 588 685 514 736 q 661 533 661 633 q 574 363 661 410 q 335 315 486 315 q 261 319 288 315 q 299 164 265 221 q 414 107 333 107 q 523 135 474 107 q 599 217 572 164 q 635 149 635 200 q 610 69 635 104 q 546 11 586 35 m 381 654 q 288 573 314 654 q 261 383 263 492 l 289 383 q 422 415 376 382 q 467 529 467 449 q 445 618 467 582 q 381 654 424 654 z "},"ẽ":{"ha":692,"x_min":42,"x_max":661,"o":"m 42 0 m 599 217 q 635 149 635 200 q 597 51 635 92 q 501 -10 560 11 q 379 -31 442 -31 q 127 71 213 -31 q 42 349 42 172 q 134 633 42 531 q 401 736 226 736 q 588 685 514 736 q 661 533 661 633 q 574 363 661 410 q 335 315 486 315 q 261 319 288 315 q 299 164 265 221 q 414 107 333 107 q 523 135 474 107 q 599 217 572 164 m 381 654 q 288 573 314 654 q 261 383 263 492 l 289 383 q 422 415 376 382 q 467 529 467 449 q 445 618 467 582 q 381 654 424 654 m 589 990 q 614 954 604 975 q 624 913 624 933 q 511 833 624 833 q 438 840 483 833 q 379 849 393 847 q 253 864 293 864 q 171 839 196 864 q 146 875 156 854 q 136 917 136 896 q 249 996 136 996 q 321 989 276 996 q 379 981 365 982 q 507 965 465 965 q 589 990 564 965 z "},"ə":{"ha":689,"x_min":28,"x_max":647,"o":"m 310 736 q 561 635 475 736 q 647 357 647 533 q 555 72 647 175 q 288 -31 463 -31 q 101 21 175 -31 q 28 172 28 72 q 115 343 28 296 q 353 390 201 390 q 426 386 401 390 q 389 542 422 485 q 275 599 356 599 q 165 570 215 599 q 90 489 115 542 q 54 557 54 506 q 92 654 54 614 q 188 715 129 694 q 310 736 247 736 m 308 51 q 401 133 375 51 q 428 322 426 214 l 400 322 q 267 290 313 324 q 222 176 222 257 q 244 88 222 124 q 308 51 265 51 z "},"f":{"ha":465,"x_min":4,"x_max":643,"o":"m 100 -19 l 100 646 l 4 646 l 4 708 l 100 708 l 104 779 q 190 948 111 896 q 401 1000 269 1000 q 571 973 499 1000 q 643 878 643 946 q 606 804 643 829 q 511 779 568 779 q 446 793 465 779 q 454 858 454 829 q 439 915 454 894 q 392 936 424 936 q 326 896 342 936 q 311 786 311 856 l 311 708 l 449 708 l 449 646 l 313 646 l 313 0 l 100 -19 z "},"g":{"ha":775,"x_min":44,"x_max":692,"o":"m 367 -197 q 450 -156 424 -197 q 483 -55 476 -115 q 489 107 489 6 l 489 150 q 412 93 460 111 q 307 75 364 75 q 108 163 172 75 q 44 401 44 251 q 129 650 44 564 q 375 736 214 736 q 529 708 460 736 l 692 731 l 692 140 q 663 -92 692 -1 q 560 -231 633 -183 q 356 -278 486 -278 q 168 -237 250 -278 q 86 -112 86 -196 q 123 -33 86 -60 q 218 -7 160 -7 q 283 -21 267 -7 q 275 -86 275 -62 q 297 -167 275 -137 q 367 -197 319 -197 m 479 621 q 379 653 435 653 q 288 585 310 653 q 265 410 265 517 q 288 240 265 307 q 378 174 310 174 q 455 219 431 174 q 479 331 479 264 l 479 621 z "},"ğ":{"ha":775,"x_min":44,"x_max":692,"o":"m 44 0 m 367 -197 q 450 -156 424 -197 q 483 -55 476 -115 q 489 107 489 6 l 489 150 q 412 93 460 111 q 307 75 364 75 q 108 163 172 75 q 44 401 44 251 q 129 650 44 564 q 375 736 214 736 q 529 708 460 736 l 692 731 l 692 140 q 663 -92 692 -1 q 560 -231 633 -183 q 356 -278 486 -278 q 168 -237 250 -278 q 86 -112 86 -196 q 123 -33 86 -60 q 218 -7 160 -7 q 283 -21 267 -7 q 275 -86 275 -62 q 297 -167 275 -137 q 367 -197 319 -197 m 479 621 q 379 653 435 653 q 288 585 310 653 q 265 410 265 517 q 288 240 265 307 q 378 174 310 174 q 455 219 431 174 q 479 331 479 264 l 479 621 m 621 1025 q 558 874 621 931 q 382 818 494 818 q 205 874 268 818 q 142 1025 142 929 l 308 1025 q 321 924 308 958 q 382 890 333 890 q 442 924 431 890 q 454 1025 454 958 l 621 1025 z "},"ĝ":{"ha":775,"x_min":44,"x_max":692,"o":"m 44 0 m 367 -197 q 450 -156 424 -197 q 483 -55 476 -115 q 489 107 489 6 l 489 150 q 412 93 460 111 q 307 75 364 75 q 108 163 172 75 q 44 401 44 251 q 129 650 44 564 q 375 736 214 736 q 529 708 460 736 l 692 731 l 692 140 q 663 -92 692 -1 q 560 -231 633 -183 q 356 -278 486 -278 q 168 -237 250 -278 q 86 -112 86 -196 q 123 -33 86 -60 q 218 -7 160 -7 q 283 -21 267 -7 q 275 -86 275 -62 q 297 -167 275 -137 q 367 -197 319 -197 m 479 621 q 379 653 435 653 q 288 585 310 653 q 265 410 265 517 q 288 240 265 307 q 378 174 310 174 q 455 219 431 174 q 479 331 479 264 l 479 621 m 206 806 l 158 863 l 364 1035 l 397 1035 l 607 863 l 560 806 l 382 892 l 206 806 z "},"ģ":{"ha":775,"x_min":44,"x_max":692,"o":"m 44 0 m 367 -197 q 450 -156 424 -197 q 483 -55 476 -115 q 489 107 489 6 l 489 150 q 412 93 460 111 q 307 75 364 75 q 108 163 172 75 q 44 401 44 251 q 129 650 44 564 q 375 736 214 736 q 529 708 460 736 l 692 731 l 692 140 q 663 -92 692 -1 q 560 -231 633 -183 q 356 -278 486 -278 q 168 -237 250 -278 q 86 -112 86 -196 q 123 -33 86 -60 q 218 -7 160 -7 q 283 -21 267 -7 q 275 -86 275 -62 q 297 -167 275 -137 q 367 -197 319 -197 m 479 621 q 379 653 435 653 q 288 585 310 653 q 265 410 265 517 q 288 240 265 307 q 378 174 310 174 q 455 219 431 174 q 479 331 479 264 l 479 621 m 390 804 q 276 913 276 804 q 299 992 276 954 q 360 1055 321 1031 q 443 1079 399 1079 q 494 1072 467 1079 q 443 926 443 1001 q 472 824 443 871 q 435 810 458 815 q 390 804 413 804 z "},"ġ":{"ha":775,"x_min":44,"x_max":692,"o":"m 44 0 m 367 -197 q 450 -156 424 -197 q 483 -55 476 -115 q 489 107 489 6 l 489 150 q 412 93 460 111 q 307 75 364 75 q 108 163 172 75 q 44 401 44 251 q 129 650 44 564 q 375 736 214 736 q 529 708 460 736 l 692 731 l 692 140 q 663 -92 692 -1 q 560 -231 633 -183 q 356 -278 486 -278 q 168 -237 250 -278 q 86 -112 86 -196 q 123 -33 86 -60 q 218 -7 160 -7 q 283 -21 267 -7 q 275 -86 275 -62 q 297 -167 275 -137 q 367 -197 319 -197 m 479 621 q 379 653 435 653 q 288 585 310 653 q 265 410 265 517 q 288 240 265 307 q 378 174 310 174 q 455 219 431 174 q 479 331 479 264 l 479 621 m 386 1022 q 477 996 443 1022 q 511 922 511 969 q 475 848 511 874 q 382 822 439 822 q 291 848 326 822 q 256 919 256 874 q 292 995 256 968 q 386 1022 329 1022 z "},"h":{"ha":786,"x_min":86,"x_max":753,"o":"m 299 833 q 285 632 299 692 q 369 710 317 685 q 486 736 421 736 q 658 672 607 736 q 710 475 710 607 l 710 139 q 719 71 710 100 q 753 19 729 42 q 706 -10 738 0 q 644 -21 675 -21 q 535 16 572 -21 q 497 125 497 53 l 497 464 q 481 588 497 544 q 410 631 465 631 q 320 568 342 631 q 299 403 299 506 l 299 0 l 86 0 l 86 972 l 299 994 l 299 833 z "},"ħ":{"ha":786,"x_min":-21,"x_max":753,"o":"m 710 139 q 719 71 710 100 q 753 19 729 42 q 706 -10 738 0 q 644 -21 675 -21 q 535 16 572 -21 q 497 125 497 53 l 497 464 q 481 588 497 544 q 410 631 465 631 q 320 568 342 631 q 299 403 299 506 l 299 0 l 86 0 l 86 783 l -12 783 q -21 828 -21 808 q 0 880 -21 863 q 60 897 21 897 l 86 897 l 86 972 l 299 994 l 299 897 l 535 897 q 543 853 543 872 q 457 783 543 783 l 299 783 q 285 632 296 682 q 369 710 317 685 q 486 736 421 736 q 658 672 607 736 q 710 475 710 607 l 710 139 z "},"ĥ":{"ha":786,"x_min":-21,"x_max":753,"o":"m 0 0 m 299 833 q 285 632 299 692 q 369 710 317 685 q 486 736 421 736 q 658 672 607 736 q 710 475 710 607 l 710 139 q 719 71 710 100 q 753 19 729 42 q 706 -10 738 0 q 644 -21 675 -21 q 535 16 572 -21 q 497 125 497 53 l 497 464 q 481 588 497 544 q 410 631 465 631 q 320 568 342 631 q 299 403 299 506 l 299 0 l 86 0 l 86 972 l 299 994 l 299 833 m 26 1000 l -21 1057 l 185 1229 l 218 1229 l 428 1057 l 381 1000 l 203 1086 l 26 1000 z "},"ḥ":{"ha":786,"x_min":86,"x_max":753,"o":"m 86 0 m 299 833 q 285 632 299 692 q 369 710 317 685 q 486 736 421 736 q 658 672 607 736 q 710 475 710 607 l 710 139 q 719 71 710 100 q 753 19 729 42 q 706 -10 738 0 q 644 -21 675 -21 q 535 16 572 -21 q 497 125 497 53 l 497 464 q 481 588 497 544 q 410 631 465 631 q 320 568 342 631 q 299 403 299 506 l 299 0 l 86 0 l 86 972 l 299 994 l 299 833 m 406 -65 q 497 -92 463 -65 q 531 -165 531 -118 q 494 -240 531 -214 q 401 -265 458 -265 q 310 -240 346 -265 q 275 -168 275 -214 q 312 -92 275 -119 q 406 -65 349 -65 z "},"i":{"ha":375,"x_min":58,"x_max":332,"o":"m 189 1022 q 280 996 246 1022 q 314 922 314 969 q 278 848 314 874 q 185 822 242 822 q 94 848 129 822 q 58 919 58 874 q 95 995 58 968 q 189 1022 132 1022 m 289 139 q 299 71 289 100 q 332 19 308 42 q 285 -10 317 0 q 224 -21 254 -21 q 114 16 151 -21 q 76 125 76 53 l 76 708 l 289 708 l 289 139 z "},"ı":{"ha":375,"x_min":76,"x_max":332,"o":"m 289 139 q 299 71 289 100 q 332 19 308 42 q 285 -10 317 0 q 224 -21 254 -21 q 114 16 151 -21 q 76 125 76 53 l 76 708 l 289 708 l 289 139 z "},"í":{"ha":375,"x_min":56,"x_max":397,"o":"m 56 0 m 289 139 q 299 71 289 100 q 332 19 308 42 q 285 -10 317 0 q 224 -21 254 -21 q 114 16 151 -21 q 76 125 76 53 l 76 708 l 289 708 l 289 139 m 328 1063 q 377 1026 357 1051 q 397 971 397 1000 q 361 903 397 928 q 261 857 325 879 l 88 796 l 56 853 l 328 1063 z "},"ĭ":{"ha":375,"x_min":-57,"x_max":422,"o":"m 0 0 m 289 139 q 299 71 289 100 q 332 19 308 42 q 285 -10 317 0 q 224 -21 254 -21 q 114 16 151 -21 q 76 125 76 53 l 76 708 l 289 708 l 289 139 m 422 1025 q 359 874 422 931 q 183 818 296 818 q 6 874 69 818 q -57 1025 -57 929 l 110 1025 q 122 924 110 958 q 183 890 135 890 q 244 924 232 890 q 256 1025 256 958 l 422 1025 z "},"î":{"ha":375,"x_min":-40,"x_max":408,"o":"m 0 0 m 289 139 q 299 71 289 100 q 332 19 308 42 q 285 -10 317 0 q 224 -21 254 -21 q 114 16 151 -21 q 76 125 76 53 l 76 708 l 289 708 l 289 139 m 7 806 l -40 863 l 165 1035 l 199 1035 l 408 863 l 361 806 l 183 892 l 7 806 z "},"ï":{"ha":375,"x_min":-94,"x_max":460,"o":"m 0 0 m 289 139 q 299 71 289 100 q 332 19 308 42 q 285 -10 317 0 q 224 -21 254 -21 q 114 16 151 -21 q 76 125 76 53 l 76 708 l 289 708 l 289 139 m 335 1022 q 426 996 392 1022 q 460 922 460 969 q 424 848 460 874 q 331 822 388 822 q 240 848 275 822 q 204 919 204 874 q 241 995 204 968 q 335 1022 278 1022 m 36 1022 q 127 996 93 1022 q 161 922 161 969 q 125 848 161 874 q 32 822 89 822 q -59 848 -24 822 q -94 919 -94 874 q -58 995 -94 968 q 36 1022 -21 1022 z "},"ị":{"ha":375,"x_min":58,"x_max":342,"o":"m 58 0 m 189 1022 q 280 996 246 1022 q 314 922 314 969 q 278 848 314 874 q 185 822 242 822 q 94 848 129 822 q 58 919 58 874 q 95 995 58 968 q 189 1022 132 1022 m 289 139 q 299 71 289 100 q 332 19 308 42 q 285 -10 317 0 q 224 -21 254 -21 q 114 16 151 -21 q 76 125 76 53 l 76 708 l 289 708 l 289 139 m 217 -65 q 308 -92 274 -65 q 342 -165 342 -118 q 306 -240 342 -214 q 213 -265 269 -265 q 122 -240 157 -265 q 86 -168 86 -214 q 123 -92 86 -119 q 217 -65 160 -65 z "},"ì":{"ha":375,"x_min":-31,"x_max":332,"o":"m 0 0 m 289 139 q 299 71 289 100 q 332 19 308 42 q 285 -10 317 0 q 224 -21 254 -21 q 114 16 151 -21 q 76 125 76 53 l 76 708 l 289 708 l 289 139 m 106 857 q 6 905 42 881 q -31 971 -31 929 q -10 1026 -31 1000 q 40 1063 10 1051 l 311 853 l 279 796 l 106 857 z "},"ĳ":{"ha":757,"x_min":58,"x_max":696,"o":"m 58 0 m 189 1022 q 280 996 246 1022 q 314 922 314 969 q 278 848 314 874 q 185 822 242 822 q 94 848 129 822 q 58 919 58 874 q 95 995 58 968 q 189 1022 132 1022 m 289 139 q 299 71 289 100 q 332 19 308 42 q 285 -10 317 0 q 224 -21 254 -21 q 114 16 151 -21 q 76 125 76 53 l 76 708 l 289 708 l 289 139 m 571 1022 q 662 996 628 1022 q 696 922 696 969 q 660 848 696 874 q 567 822 624 822 q 476 848 511 822 q 440 919 440 874 q 477 995 440 968 q 571 1022 514 1022 m 674 57 q 628 -185 674 -93 q 464 -278 582 -278 q 381 -262 418 -278 q 336 -212 344 -247 q 436 -147 411 -208 q 461 19 461 -85 l 461 708 l 674 708 l 674 57 z "},"ī":{"ha":375,"x_min":-19,"x_max":386,"o":"m 0 0 m 289 139 q 299 71 289 100 q 332 19 308 42 q 285 -10 317 0 q 224 -21 254 -21 q 114 16 151 -21 q 76 125 76 53 l 76 708 l 289 708 l 289 139 m 374 978 q 386 924 386 953 q 365 875 386 893 q 306 857 343 857 l -8 857 q -19 908 -19 876 q 1 959 -19 940 q 56 978 21 978 l 374 978 z "},"į":{"ha":375,"x_min":57,"x_max":383,"o":"m 183 822 q 92 848 128 822 q 57 919 57 874 q 94 995 57 968 q 188 1022 131 1022 q 278 996 244 1022 q 313 922 313 969 q 276 848 313 874 q 183 822 240 822 m 357 -224 q 383 -269 383 -243 q 342 -334 383 -312 q 250 -356 300 -356 q 123 -319 172 -356 q 74 -212 74 -283 q 188 -18 74 -103 q 105 26 133 -10 q 76 125 76 63 l 76 708 l 289 708 l 289 139 q 299 71 289 100 q 332 19 308 42 q 308 0 324 8 q 235 -83 263 -37 q 208 -178 208 -129 q 226 -237 208 -219 q 286 -256 244 -256 q 327 -247 307 -256 q 357 -224 347 -239 z "},"ĩ":{"ha":375,"x_min":-60,"x_max":428,"o":"m 0 0 m 289 139 q 299 71 289 100 q 332 19 308 42 q 285 -10 317 0 q 224 -21 254 -21 q 114 16 151 -21 q 76 125 76 53 l 76 708 l 289 708 l 289 139 m 393 990 q 418 954 408 975 q 428 913 428 933 q 315 833 428 833 q 242 840 288 833 q 183 849 197 847 q 57 864 97 864 q -25 839 0 864 q -50 875 -40 854 q -60 917 -60 896 q 53 996 -60 996 q 125 989 81 996 q 183 981 169 982 q 311 965 269 965 q 393 990 368 965 z "},"j":{"ha":382,"x_min":-39,"x_max":321,"o":"m 196 1022 q 287 996 253 1022 q 321 922 321 969 q 285 848 321 874 q 192 822 249 822 q 101 848 136 822 q 65 919 65 874 q 102 995 65 968 q 196 1022 139 1022 m 299 57 q 253 -185 299 -93 q 89 -278 207 -278 q 6 -262 43 -278 q -39 -212 -31 -247 q 61 -147 36 -208 q 86 19 86 -85 l 86 708 l 299 708 l 299 57 z "},"ȷ":{"ha":382,"x_min":-39,"x_max":299,"o":"m 299 57 q 100 -278 299 -278 q 16 -262 54 -278 q -39 -211 -22 -246 q 61 -145 36 -207 q 86 19 86 -83 l 86 708 l 299 708 l 299 57 z "},"ĵ":{"ha":382,"x_min":-39,"x_max":417,"o":"m 0 0 m 299 57 q 100 -278 299 -278 q 16 -262 54 -278 q -39 -211 -22 -246 q 61 -145 36 -207 q 86 19 86 -83 l 86 708 l 299 708 l 299 57 m 15 806 l -32 863 l 174 1035 l 207 1035 l 417 863 l 369 806 l 192 892 l 15 806 z "},"k":{"ha":729,"x_min":86,"x_max":736,"o":"m 86 0 l 86 972 l 299 994 l 299 0 l 86 0 m 532 708 l 729 708 l 513 422 l 736 0 l 500 0 l 318 390 l 532 708 z "},"ķ":{"ha":729,"x_min":86,"x_max":736,"o":"m 86 0 m 86 0 l 86 972 l 299 994 l 299 0 l 86 0 m 532 708 l 729 708 l 513 422 l 736 0 l 500 0 l 318 390 l 532 708 m 386 -71 q 500 -178 500 -71 q 478 -258 500 -219 q 417 -320 456 -296 q 333 -344 378 -344 q 282 -337 310 -344 q 333 -192 333 -267 q 304 -89 333 -136 q 342 -76 318 -81 q 386 -71 365 -71 z "},"ĸ":{"ha":729,"x_min":86,"x_max":736,"o":"m 86 0 l 86 708 l 299 731 l 299 0 l 86 0 m 532 708 l 729 708 l 513 422 l 736 0 l 500 0 l 318 390 l 532 708 z "},"l":{"ha":381,"x_min":79,"x_max":335,"o":"m 292 994 l 292 139 q 301 71 292 100 q 335 19 311 42 q 288 -10 319 0 q 226 -21 257 -21 q 117 16 154 -21 q 79 125 79 53 l 79 972 l 292 994 z "},"ĺ":{"ha":381,"x_min":57,"x_max":422,"o":"m 376 1181 q 410 1141 397 1164 q 422 1094 422 1118 q 378 1024 422 1042 q 257 1000 335 1006 l 74 986 l 57 1051 l 376 1181 m 292 967 l 292 139 q 301 71 292 100 q 335 19 311 42 q 288 -10 319 0 q 226 -21 257 -21 q 117 16 154 -21 q 79 125 79 53 l 79 944 l 292 967 z "},"ľ":{"ha":381,"x_min":79,"x_max":522,"o":"m 79 0 m 292 994 l 292 139 q 301 71 292 100 q 335 19 311 42 q 288 -10 319 0 q 226 -21 257 -21 q 117 16 154 -21 q 79 125 79 53 l 79 972 l 292 994 m 344 981 q 379 994 357 989 q 422 1000 401 1000 q 496 971 469 1000 q 522 886 522 942 q 504 817 522 851 q 453 759 486 782 q 378 736 421 736 q 332 744 353 736 q 374 876 374 803 q 344 981 374 931 z "},"ļ":{"ha":381,"x_min":79,"x_max":335,"o":"m 79 0 m 292 994 l 292 139 q 301 71 292 100 q 335 19 311 42 q 288 -10 319 0 q 226 -21 257 -21 q 117 16 154 -21 q 79 125 79 53 l 79 972 l 292 994 m 203 -71 q 317 -178 317 -71 q 294 -258 317 -219 q 233 -320 272 -296 q 150 -344 194 -344 q 99 -337 126 -344 q 150 -192 150 -267 q 121 -89 150 -136 q 158 -76 135 -81 q 203 -71 182 -71 z "},"ŀ":{"ha":439,"x_min":79,"x_max":490,"o":"m 292 994 l 292 139 q 301 71 292 100 q 335 19 311 42 q 288 -10 319 0 q 226 -21 257 -21 q 117 16 154 -21 q 79 125 79 53 l 79 972 l 292 994 m 406 550 q 467 526 443 550 q 490 463 490 503 q 465 397 490 421 q 401 372 440 372 q 339 396 363 372 q 315 458 315 419 q 341 525 315 500 q 406 550 367 550 z "},"ǉ":{"ha":381,"x_min":-44,"x_max":335,"o":"m 186 1017 q 95 1042 131 1017 q 60 1114 60 1068 q 97 1190 60 1163 q 190 1217 133 1217 q 281 1190 247 1217 q 315 1117 315 1164 q 279 1042 315 1068 q 186 1017 243 1017 m 335 19 q 288 -10 319 0 q 226 -21 257 -21 q 83 -83 175 -83 q 1 -68 38 -83 q -44 -18 -36 -53 q 47 33 19 -14 q 79 161 75 81 l 79 972 l 292 994 l 292 903 l 293 903 l 293 251 q 292 197 293 215 l 292 139 q 301 71 292 100 q 335 19 311 42 z "},"ł":{"ha":521,"x_min":-3,"x_max":528,"o":"m 497 628 q 528 557 528 593 q 475 489 528 510 l 353 443 l 353 139 q 363 71 353 100 q 396 19 372 42 q 349 -10 381 0 q 288 -21 318 -21 q 178 16 215 -21 q 140 125 140 53 l 140 361 l 29 319 q -3 390 -3 357 q 51 457 -3 436 l 140 492 l 140 972 l 353 994 l 353 572 l 497 628 z "},"m":{"ha":1179,"x_min":78,"x_max":1146,"o":"m 78 708 l 251 725 l 261 600 q 479 736 314 736 q 608 706 560 736 q 681 617 657 676 q 883 736 736 736 q 1053 671 1003 736 q 1103 475 1103 606 l 1103 139 q 1113 71 1103 100 q 1146 19 1122 42 q 1099 -10 1131 0 q 1038 -21 1068 -21 q 928 16 965 -21 q 890 125 890 53 l 890 464 q 875 588 890 544 q 806 631 860 631 q 722 567 742 631 q 701 403 701 503 l 701 0 l 489 0 l 489 464 q 474 588 489 546 q 401 631 458 631 q 312 568 333 631 q 290 403 290 506 l 290 0 l 78 0 l 78 708 z "},"n":{"ha":779,"x_min":78,"x_max":744,"o":"m 78 708 l 251 725 l 261 600 q 479 736 314 736 q 651 671 600 736 q 701 475 701 606 l 701 139 q 711 71 701 100 q 744 19 721 42 q 698 -10 729 0 q 636 -21 667 -21 q 526 16 564 -21 q 489 125 489 53 l 489 464 q 474 588 489 546 q 401 631 458 631 q 312 568 333 631 q 290 403 290 506 l 290 0 l 78 0 l 78 708 z "},"ń":{"ha":779,"x_min":78,"x_max":744,"o":"m 78 0 m 78 708 l 251 725 l 261 600 q 479 736 314 736 q 651 671 600 736 q 701 475 701 606 l 701 139 q 711 71 701 100 q 744 19 721 42 q 698 -10 729 0 q 636 -21 667 -21 q 526 16 564 -21 q 489 125 489 53 l 489 464 q 474 588 489 546 q 401 631 458 631 q 312 568 333 631 q 290 403 290 506 l 290 0 l 78 0 l 78 708 m 561 1063 q 610 1026 590 1051 q 631 971 631 1000 q 594 903 631 928 q 494 857 558 879 l 321 796 l 289 853 l 561 1063 z "},"ŉ":{"ha":779,"x_min":-99,"x_max":744,"o":"m 0 0 m 78 708 l 251 725 l 261 600 q 479 736 314 736 q 651 671 600 736 q 701 475 701 606 l 701 139 q 711 71 701 100 q 744 19 721 42 q 698 -10 729 0 q 636 -21 667 -21 q 526 16 564 -21 q 489 125 489 53 l 489 464 q 474 588 489 546 q 401 631 458 631 q 312 568 333 631 q 290 403 290 506 l 290 0 l 78 0 l 78 708 m 7 1003 q 92 972 65 1003 q 119 876 119 940 q 97 785 119 829 q 37 715 75 742 q -46 688 -1 688 q -99 696 -74 688 q -43 860 -43 776 q -72 983 -43 929 q -37 997 -60 992 q 7 1003 -14 1003 z "},"ň":{"ha":779,"x_min":78,"x_max":744,"o":"m 78 0 m 78 708 l 251 725 l 261 600 q 479 736 314 736 q 651 671 600 736 q 701 475 701 606 l 701 139 q 711 71 701 100 q 744 19 721 42 q 698 -10 729 0 q 636 -21 667 -21 q 526 16 564 -21 q 489 125 489 53 l 489 464 q 474 588 489 546 q 401 631 458 631 q 312 568 333 631 q 290 403 290 506 l 290 0 l 78 0 l 78 708 m 593 1042 l 640 985 l 442 799 l 394 799 l 192 985 l 239 1042 l 417 940 l 593 1042 z "},"ņ":{"ha":779,"x_min":78,"x_max":744,"o":"m 78 0 m 78 708 l 251 725 l 261 600 q 479 736 314 736 q 651 671 600 736 q 701 475 701 606 l 701 139 q 711 71 701 100 q 744 19 721 42 q 698 -10 729 0 q 636 -21 667 -21 q 526 16 564 -21 q 489 125 489 53 l 489 464 q 474 588 489 546 q 401 631 458 631 q 312 568 333 631 q 290 403 290 506 l 290 0 l 78 0 l 78 708 m 404 -71 q 518 -178 518 -71 q 496 -258 518 -219 q 435 -320 474 -296 q 351 -344 396 -344 q 300 -337 328 -344 q 351 -192 351 -267 q 322 -89 351 -136 q 360 -76 336 -81 q 404 -71 383 -71 z "},"ṅ":{"ha":779,"x_min":78,"x_max":744,"o":"m 78 0 m 78 708 l 251 725 l 261 600 q 479 736 314 736 q 651 671 600 736 q 701 475 701 606 l 701 139 q 711 71 701 100 q 744 19 721 42 q 698 -10 729 0 q 636 -21 667 -21 q 526 16 564 -21 q 489 125 489 53 l 489 464 q 474 588 489 546 q 401 631 458 631 q 312 568 333 631 q 290 403 290 506 l 290 0 l 78 0 l 78 708 m 421 1022 q 512 996 478 1022 q 546 922 546 969 q 510 848 546 874 q 417 822 474 822 q 326 848 361 822 q 290 919 290 874 q 327 995 290 968 q 421 1022 364 1022 z "},"ŋ":{"ha":761,"x_min":78,"x_max":701,"o":"m 489 464 q 474 588 489 546 q 401 631 458 631 q 312 568 333 631 q 290 403 290 506 l 290 0 l 78 0 l 78 708 l 251 725 l 261 600 q 479 736 314 736 q 651 671 600 736 q 701 475 701 606 l 701 57 q 656 -186 701 -94 q 493 -278 611 -278 q 410 -262 447 -278 q 364 -212 374 -247 q 465 -147 440 -208 q 489 19 489 -85 l 489 464 z "},"ǌ":{"ha":779,"x_min":78,"x_max":744,"o":"m 417 822 q 326 848 361 822 q 290 919 290 874 q 327 995 290 968 q 421 1022 364 1022 q 512 996 478 1022 q 546 922 546 969 q 510 848 546 874 q 417 822 474 822 m 701 139 q 711 71 701 100 q 744 19 721 42 q 698 -10 729 0 q 636 -21 667 -21 q 524 19 560 -21 q 471 -197 518 -115 q 314 -278 424 -278 q 231 -262 268 -278 q 186 -212 194 -247 q 286 -147 261 -208 q 311 19 311 -85 l 311 565 q 290 403 290 514 l 290 0 l 78 0 l 78 708 l 251 725 l 261 600 q 311 678 279 646 l 311 708 l 353 708 q 479 736 404 736 q 651 671 600 736 q 701 475 701 606 l 701 139 z "},"ñ":{"ha":779,"x_min":78,"x_max":744,"o":"m 78 0 m 78 708 l 251 725 l 261 600 q 479 736 314 736 q 651 671 600 736 q 701 475 701 606 l 701 139 q 711 71 701 100 q 744 19 721 42 q 698 -10 729 0 q 636 -21 667 -21 q 526 16 564 -21 q 489 125 489 53 l 489 464 q 474 588 489 546 q 401 631 458 631 q 312 568 333 631 q 290 403 290 506 l 290 0 l 78 0 l 78 708 m 626 990 q 651 954 642 975 q 661 913 661 933 q 549 833 661 833 q 476 840 521 833 q 417 849 431 847 q 290 864 331 864 q 208 839 233 864 q 183 875 193 854 q 174 917 174 896 q 286 996 174 996 q 358 989 314 996 q 417 981 403 982 q 544 965 503 965 q 626 990 601 965 z "},"o":{"ha":754,"x_min":42,"x_max":713,"o":"m 378 736 q 628 638 544 736 q 713 364 713 539 q 628 76 713 183 q 378 -31 543 -31 q 128 72 214 -31 q 42 350 42 175 q 127 632 42 528 q 378 736 213 736 m 378 53 q 471 138 450 53 q 492 357 492 222 q 469 569 492 485 q 378 653 447 653 q 286 568 308 653 q 264 357 264 483 q 285 138 264 222 q 378 53 306 53 z "},"ó":{"ha":754,"x_min":42,"x_max":713,"o":"m 42 0 m 378 736 q 628 638 544 736 q 713 364 713 539 q 628 76 713 183 q 378 -31 543 -31 q 128 72 214 -31 q 42 350 42 175 q 127 632 42 528 q 378 736 213 736 m 378 53 q 471 138 450 53 q 492 357 492 222 q 469 569 492 485 q 378 653 447 653 q 286 568 308 653 q 264 357 264 483 q 285 138 264 222 q 378 53 306 53 m 522 1063 q 572 1026 551 1051 q 592 971 592 1000 q 556 903 592 928 q 456 857 519 879 l 282 796 l 250 853 l 522 1063 z "},"ŏ":{"ha":754,"x_min":42,"x_max":713,"o":"m 42 0 m 378 736 q 628 638 544 736 q 713 364 713 539 q 628 76 713 183 q 378 -31 543 -31 q 128 72 214 -31 q 42 350 42 175 q 127 632 42 528 q 378 736 213 736 m 378 53 q 471 138 450 53 q 492 357 492 222 q 469 569 492 485 q 378 653 447 653 q 286 568 308 653 q 264 357 264 483 q 285 138 264 222 q 378 53 306 53 m 617 1025 q 553 874 617 931 q 378 818 490 818 q 201 874 264 818 q 138 1025 138 929 l 304 1025 q 317 924 304 958 q 378 890 329 890 q 438 924 426 890 q 450 1025 450 958 l 617 1025 z "},"ô":{"ha":754,"x_min":42,"x_max":713,"o":"m 42 0 m 378 736 q 628 638 544 736 q 713 364 713 539 q 628 76 713 183 q 378 -31 543 -31 q 128 72 214 -31 q 42 350 42 175 q 127 632 42 528 q 378 736 213 736 m 378 53 q 471 138 450 53 q 492 357 492 222 q 469 569 492 485 q 378 653 447 653 q 286 568 308 653 q 264 357 264 483 q 285 138 264 222 q 378 53 306 53 m 201 806 l 154 863 l 360 1035 l 393 1035 l 603 863 l 556 806 l 378 892 l 201 806 z "},"ö":{"ha":754,"x_min":42,"x_max":713,"o":"m 42 0 m 378 736 q 628 638 544 736 q 713 364 713 539 q 628 76 713 183 q 378 -31 543 -31 q 128 72 214 -31 q 42 350 42 175 q 127 632 42 528 q 378 736 213 736 m 378 53 q 471 138 450 53 q 492 357 492 222 q 469 569 492 485 q 378 653 447 653 q 286 568 308 653 q 264 357 264 483 q 285 138 264 222 q 378 53 306 53 m 529 1022 q 620 996 586 1022 q 654 922 654 969 q 618 848 654 874 q 525 822 582 822 q 434 848 469 822 q 399 919 399 874 q 435 995 399 968 q 529 1022 472 1022 m 231 1022 q 322 996 288 1022 q 356 922 356 969 q 319 848 356 874 q 226 822 283 822 q 135 848 171 822 q 100 919 100 874 q 137 995 100 968 q 231 1022 174 1022 z "},"ọ":{"ha":754,"x_min":42,"x_max":713,"o":"m 42 0 m 378 736 q 628 638 544 736 q 713 364 713 539 q 628 76 713 183 q 378 -31 543 -31 q 128 72 214 -31 q 42 350 42 175 q 127 632 42 528 q 378 736 213 736 m 378 53 q 471 138 450 53 q 492 357 492 222 q 469 569 492 485 q 378 653 447 653 q 286 568 308 653 q 264 357 264 483 q 285 138 264 222 q 378 53 306 53 m 379 -65 q 470 -92 436 -65 q 504 -165 504 -118 q 468 -240 504 -214 q 375 -265 432 -265 q 284 -240 319 -265 q 249 -168 249 -214 q 285 -92 249 -119 q 379 -65 322 -65 z "},"ò":{"ha":754,"x_min":42,"x_max":713,"o":"m 42 0 m 378 736 q 628 638 544 736 q 713 364 713 539 q 628 76 713 183 q 378 -31 543 -31 q 128 72 214 -31 q 42 350 42 175 q 127 632 42 528 q 378 736 213 736 m 378 53 q 471 138 450 53 q 492 357 492 222 q 469 569 492 485 q 378 653 447 653 q 286 568 308 653 q 264 357 264 483 q 285 138 264 222 q 378 53 306 53 m 300 857 q 200 905 236 881 q 164 971 164 929 q 184 1026 164 1000 q 235 1063 204 1051 l 506 853 l 474 796 l 300 857 z "},"ő":{"ha":754,"x_min":42,"x_max":749,"o":"m 42 0 m 378 736 q 628 638 544 736 q 713 364 713 539 q 628 76 713 183 q 378 -31 543 -31 q 128 72 214 -31 q 42 350 42 175 q 127 632 42 528 q 378 736 213 736 m 378 53 q 471 138 450 53 q 492 357 492 222 q 469 569 492 485 q 378 653 447 653 q 286 568 308 653 q 264 357 264 483 q 285 138 264 222 q 378 53 306 53 m 383 1082 q 449 1051 421 1076 q 476 992 476 1026 q 378 861 476 919 l 232 771 l 185 818 l 383 1082 m 656 1082 q 721 1051 693 1076 q 749 992 749 1026 q 650 861 749 919 l 504 771 l 457 818 l 656 1082 z "},"ō":{"ha":754,"x_min":42,"x_max":713,"o":"m 42 0 m 378 736 q 628 638 544 736 q 713 364 713 539 q 628 76 713 183 q 378 -31 543 -31 q 128 72 214 -31 q 42 350 42 175 q 127 632 42 528 q 378 736 213 736 m 378 53 q 471 138 450 53 q 492 357 492 222 q 469 569 492 485 q 378 653 447 653 q 286 568 308 653 q 264 357 264 483 q 285 138 264 222 q 378 53 306 53 m 568 978 q 581 924 581 953 q 559 875 581 893 q 500 857 538 857 l 186 857 q 175 908 175 876 q 195 959 175 940 q 250 978 215 978 l 568 978 z "},"ǫ":{"ha":754,"x_min":42,"x_max":713,"o":"m 528 0 q 443 -89 475 -39 q 411 -192 411 -139 q 429 -251 411 -233 q 489 -269 447 -269 q 530 -261 510 -269 q 560 -237 550 -253 q 586 -283 586 -257 q 544 -348 586 -326 q 453 -369 503 -369 q 326 -333 375 -369 q 276 -226 276 -297 q 393 -31 276 -115 l 378 -31 q 128 72 214 -31 q 42 350 42 175 q 127 632 42 528 q 378 736 213 736 q 628 638 544 736 q 713 364 713 539 q 667 136 713 231 q 528 0 621 42 m 264 357 q 285 138 264 222 q 378 53 306 53 q 471 138 450 53 q 492 357 492 222 q 469 569 492 485 q 378 653 447 653 q 286 568 308 653 q 264 357 264 483 z "},"ø":{"ha":754,"x_min":42,"x_max":713,"o":"m 629 636 q 713 364 713 543 q 628 76 713 183 q 378 -31 543 -31 q 201 13 275 -31 l 140 -76 q 83 -60 111 -75 q 56 -17 56 -44 q 76 36 56 6 l 114 90 q 42 350 42 188 q 127 632 42 528 q 378 736 213 736 q 536 706 467 736 l 618 825 q 674 808 646 824 q 703 765 703 792 q 682 713 703 744 l 629 636 m 264 310 l 458 593 q 378 653 431 653 q 286 568 308 653 q 264 357 264 483 l 264 310 m 378 53 q 471 138 450 53 q 492 357 492 222 q 490 433 492 407 l 286 136 q 378 53 315 53 z "},"ǿ":{"ha":754,"x_min":42,"x_max":713,"o":"m 42 0 m 629 636 q 713 364 713 543 q 628 76 713 183 q 378 -31 543 -31 q 201 13 275 -31 l 140 -76 q 83 -60 111 -75 q 56 -17 56 -44 q 76 36 56 6 l 114 90 q 42 350 42 188 q 127 632 42 528 q 378 736 213 736 q 536 706 467 736 l 618 825 q 674 808 646 824 q 703 765 703 792 q 682 713 703 744 l 629 636 m 264 310 l 458 593 q 378 653 431 653 q 286 568 308 653 q 264 357 264 483 l 264 310 m 378 53 q 471 138 450 53 q 492 357 492 222 q 490 433 492 407 l 286 136 q 378 53 315 53 m 529 1063 q 578 1026 558 1051 q 599 971 599 1000 q 563 903 599 928 q 463 857 526 879 l 289 796 l 257 853 l 529 1063 z "},"õ":{"ha":754,"x_min":42,"x_max":713,"o":"m 42 0 m 378 736 q 628 638 544 736 q 713 364 713 539 q 628 76 713 183 q 378 -31 543 -31 q 128 72 214 -31 q 42 350 42 175 q 127 632 42 528 q 378 736 213 736 m 378 53 q 471 138 450 53 q 492 357 492 222 q 469 569 492 485 q 378 653 447 653 q 286 568 308 653 q 264 357 264 483 q 285 138 264 222 q 378 53 306 53 m 588 990 q 613 954 603 975 q 622 913 622 933 q 510 833 622 833 q 437 840 482 833 q 378 849 392 847 q 251 864 292 864 q 169 839 194 864 q 144 875 154 854 q 135 917 135 896 q 247 996 135 996 q 319 989 275 996 q 378 981 364 982 q 506 965 464 965 q 588 990 563 965 z "},"œ":{"ha":1142,"x_min":42,"x_max":1111,"o":"m 1049 217 q 1075 190 1067 208 q 1083 149 1083 171 q 1046 51 1083 92 q 950 -10 1008 11 q 829 -31 892 -31 q 600 51 689 -31 q 378 -31 514 -31 q 128 72 214 -31 q 42 350 42 175 q 127 632 42 528 q 378 736 213 736 q 608 653 521 736 q 851 736 707 736 q 1038 685 964 736 q 1111 533 1111 633 q 1024 363 1111 410 q 785 315 936 315 q 711 319 739 315 q 749 164 715 221 q 864 107 783 107 q 973 135 924 107 q 1049 217 1022 164 m 831 654 q 738 573 764 654 q 711 383 713 492 l 739 383 q 871 415 826 382 q 915 529 915 449 q 894 618 915 582 q 831 654 874 654 m 492 368 q 468 572 490 492 q 378 653 446 653 q 286 568 308 653 q 264 357 264 483 q 285 138 264 222 q 378 53 306 53 q 469 135 447 53 q 492 347 490 217 l 492 368 z "},"p":{"ha":781,"x_min":86,"x_max":739,"o":"m 486 736 q 681 633 622 736 q 739 364 739 529 q 651 75 739 181 q 389 -31 563 -31 q 299 -19 338 -31 l 299 -250 l 86 -268 l 86 708 l 260 725 l 268 600 q 486 736 324 736 m 407 631 q 322 576 344 631 q 299 435 299 521 l 299 86 q 397 53 346 53 q 494 138 472 53 q 517 357 517 222 q 497 556 517 482 q 407 631 476 631 z "},"þ":{"ha":781,"x_min":86,"x_max":739,"o":"m 299 833 q 285 632 299 692 q 486 736 344 736 q 681 633 622 736 q 739 364 739 529 q 651 75 739 181 q 389 -31 563 -31 q 299 -19 338 -31 l 299 -250 l 86 -268 l 86 972 l 299 994 l 299 833 m 407 631 q 322 576 344 631 q 299 435 299 521 l 299 86 q 397 53 346 53 q 494 138 472 53 q 517 357 517 222 q 497 556 517 482 q 407 631 476 631 z "},"q":{"ha":776,"x_min":42,"x_max":696,"o":"m 483 -128 q 497 58 483 -1 q 419 -8 468 14 q 311 -31 369 -31 q 105 74 168 -31 q 42 349 42 179 q 126 632 42 528 q 379 736 211 736 q 532 708 463 736 l 696 731 l 696 -250 l 483 -272 l 483 -128 m 483 618 q 382 653 436 653 q 286 570 308 653 q 264 356 264 488 q 288 151 264 232 q 382 69 311 69 q 483 244 483 69 l 483 618 z "},"r":{"ha":614,"x_min":78,"x_max":624,"o":"m 368 622 q 304 560 318 622 q 290 401 290 499 l 290 0 l 78 0 l 78 708 l 251 725 l 261 600 q 333 700 283 664 q 451 736 383 736 q 577 691 531 736 q 624 568 624 646 q 589 468 624 503 q 490 433 554 433 q 454 438 475 433 q 424 449 433 442 q 433 521 433 479 q 368 622 433 622 z "},"ŕ":{"ha":614,"x_min":63,"x_max":624,"o":"m 63 0 m 368 622 q 304 560 318 622 q 290 401 290 499 l 290 0 l 78 0 l 78 708 l 251 725 l 261 600 q 333 700 283 664 q 451 736 383 736 q 577 691 531 736 q 624 568 624 646 q 589 468 624 503 q 490 433 554 433 q 454 438 475 433 q 424 449 433 442 q 433 521 433 479 q 368 622 433 622 m 335 1063 q 384 1026 364 1051 q 404 971 404 1000 q 368 903 404 928 q 268 857 332 879 l 94 796 l 63 853 l 335 1063 z "},"ř":{"ha":614,"x_min":-35,"x_max":624,"o":"m 0 0 m 368 622 q 304 560 318 622 q 290 401 290 499 l 290 0 l 78 0 l 78 708 l 251 725 l 261 600 q 333 700 283 664 q 451 736 383 736 q 577 691 531 736 q 624 568 624 646 q 589 468 624 503 q 490 433 554 433 q 454 438 475 433 q 424 449 433 442 q 433 521 433 479 q 368 622 433 622 m 367 1042 l 414 985 l 215 799 l 168 799 l -35 985 l 13 1042 l 190 940 l 367 1042 z "},"ŗ":{"ha":614,"x_min":68,"x_max":624,"o":"m 68 0 m 368 622 q 304 560 318 622 q 290 401 290 499 l 290 0 l 78 0 l 78 708 l 251 725 l 261 600 q 333 700 283 664 q 451 736 383 736 q 577 691 531 736 q 624 568 624 646 q 589 468 624 503 q 490 433 554 433 q 454 438 475 433 q 424 449 433 442 q 433 521 433 479 q 368 622 433 622 m 172 -71 q 286 -178 286 -71 q 264 -258 286 -219 q 203 -320 242 -296 q 119 -344 164 -344 q 68 -337 96 -344 q 119 -192 119 -267 q 90 -89 119 -136 q 128 -76 104 -81 q 172 -71 151 -71 z "},"ṛ":{"ha":614,"x_min":58,"x_max":624,"o":"m 58 0 m 368 622 q 304 560 318 622 q 290 401 290 499 l 290 0 l 78 0 l 78 708 l 251 725 l 261 600 q 333 700 283 664 q 451 736 383 736 q 577 691 531 736 q 624 568 624 646 q 589 468 624 503 q 490 433 554 433 q 454 438 475 433 q 424 449 433 442 q 433 521 433 479 q 368 622 433 622 m 189 -65 q 280 -92 246 -65 q 314 -165 314 -118 q 278 -240 314 -214 q 185 -265 242 -265 q 94 -240 129 -265 q 58 -168 58 -214 q 95 -92 58 -119 q 189 -65 132 -65 z "},"s":{"ha":644,"x_min":40,"x_max":603,"o":"m 335 660 q 277 639 299 660 q 256 583 256 618 q 294 496 256 531 q 413 419 333 461 q 513 359 475 385 q 576 294 550 333 q 603 199 603 254 q 519 26 603 83 q 304 -31 436 -31 q 118 4 196 -31 q 40 121 40 39 q 77 200 40 174 q 172 226 114 226 q 238 213 218 226 q 229 147 229 182 q 251 73 229 100 q 317 46 274 46 q 385 72 361 46 q 408 143 408 97 q 369 231 408 196 q 253 307 331 265 q 152 367 190 340 q 88 433 114 393 q 61 529 61 474 q 144 685 61 633 q 350 736 228 736 q 526 703 451 736 q 601 593 601 669 q 563 516 601 543 q 468 489 525 489 q 433 492 451 489 q 404 501 414 494 q 413 568 413 538 q 392 635 413 610 q 335 660 372 660 z "},"ś":{"ha":644,"x_min":40,"x_max":603,"o":"m 40 0 m 335 660 q 277 639 299 660 q 256 583 256 618 q 294 496 256 531 q 413 419 333 461 q 513 359 475 385 q 576 294 550 333 q 603 199 603 254 q 519 26 603 83 q 304 -31 436 -31 q 118 4 196 -31 q 40 121 40 39 q 77 200 40 174 q 172 226 114 226 q 238 213 218 226 q 229 147 229 182 q 251 73 229 100 q 317 46 274 46 q 385 72 361 46 q 408 143 408 97 q 369 231 408 196 q 253 307 331 265 q 152 367 190 340 q 88 433 114 393 q 61 529 61 474 q 144 685 61 633 q 350 736 228 736 q 526 703 451 736 q 601 593 601 669 q 563 516 601 543 q 468 489 525 489 q 433 492 451 489 q 404 501 414 494 q 413 568 413 538 q 392 635 413 610 q 335 660 372 660 m 479 1063 q 528 1026 508 1051 q 549 971 549 1000 q 513 903 549 928 q 413 857 476 879 l 239 796 l 207 853 l 479 1063 z "},"š":{"ha":644,"x_min":40,"x_max":603,"o":"m 40 0 m 335 660 q 277 639 299 660 q 256 583 256 618 q 294 496 256 531 q 413 419 333 461 q 513 359 475 385 q 576 294 550 333 q 603 199 603 254 q 519 26 603 83 q 304 -31 436 -31 q 118 4 196 -31 q 40 121 40 39 q 77 200 40 174 q 172 226 114 226 q 238 213 218 226 q 229 147 229 182 q 251 73 229 100 q 317 46 274 46 q 385 72 361 46 q 408 143 408 97 q 369 231 408 196 q 253 307 331 265 q 152 367 190 340 q 88 433 114 393 q 61 529 61 474 q 144 685 61 633 q 350 736 228 736 q 526 703 451 736 q 601 593 601 669 q 563 516 601 543 q 468 489 525 489 q 433 492 451 489 q 404 501 414 494 q 413 568 413 538 q 392 635 413 610 q 335 660 372 660 m 511 1042 l 558 985 l 360 799 l 313 799 l 110 985 l 157 1042 l 335 940 l 511 1042 z "},"ş":{"ha":644,"x_min":40,"x_max":603,"o":"m 603 199 q 525 31 603 88 q 324 -31 447 -26 l 301 -85 q 340 -83 315 -83 q 459 -115 415 -83 q 503 -214 503 -147 q 446 -317 503 -279 q 311 -356 389 -356 q 214 -337 257 -356 q 171 -274 171 -318 q 186 -229 171 -244 q 290 -271 222 -271 q 342 -256 321 -271 q 363 -214 363 -240 q 260 -153 363 -153 q 203 -157 229 -153 l 250 -28 q 100 15 160 -21 q 40 121 40 51 q 77 200 40 174 q 172 226 114 226 q 238 213 218 226 q 229 147 229 182 q 251 73 229 100 q 317 46 274 46 q 385 72 361 46 q 408 143 408 97 q 369 231 408 196 q 253 307 331 265 q 152 367 190 340 q 88 433 114 393 q 61 529 61 474 q 144 685 61 633 q 350 736 228 736 q 526 703 451 736 q 601 593 601 669 q 563 516 601 543 q 468 489 525 489 q 433 492 451 489 q 404 501 414 494 q 413 568 413 538 q 392 635 413 610 q 335 660 372 660 q 277 639 299 660 q 256 583 256 618 q 294 496 256 531 q 413 419 333 461 q 513 359 475 385 q 576 294 550 333 q 603 199 603 254 z "},"ŝ":{"ha":644,"x_min":40,"x_max":603,"o":"m 40 0 m 335 660 q 277 639 299 660 q 256 583 256 618 q 294 496 256 531 q 413 419 333 461 q 513 359 475 385 q 576 294 550 333 q 603 199 603 254 q 519 26 603 83 q 304 -31 436 -31 q 118 4 196 -31 q 40 121 40 39 q 77 200 40 174 q 172 226 114 226 q 238 213 218 226 q 229 147 229 182 q 251 73 229 100 q 317 46 274 46 q 385 72 361 46 q 408 143 408 97 q 369 231 408 196 q 253 307 331 265 q 152 367 190 340 q 88 433 114 393 q 61 529 61 474 q 144 685 61 633 q 350 736 228 736 q 526 703 451 736 q 601 593 601 669 q 563 516 601 543 q 468 489 525 489 q 433 492 451 489 q 404 501 414 494 q 413 568 413 538 q 392 635 413 610 q 335 660 372 660 m 158 806 l 111 863 l 317 1035 l 350 1035 l 560 863 l 513 806 l 335 892 l 158 806 z "},"ș":{"ha":644,"x_min":40,"x_max":603,"o":"m 40 0 m 335 660 q 277 639 299 660 q 256 583 256 618 q 294 496 256 531 q 413 419 333 461 q 513 359 475 385 q 576 294 550 333 q 603 199 603 254 q 519 26 603 83 q 304 -31 436 -31 q 118 4 196 -31 q 40 121 40 39 q 77 200 40 174 q 172 226 114 226 q 238 213 218 226 q 229 147 229 182 q 251 73 229 100 q 317 46 274 46 q 385 72 361 46 q 408 143 408 97 q 369 231 408 196 q 253 307 331 265 q 152 367 190 340 q 88 433 114 393 q 61 529 61 474 q 144 685 61 633 q 350 736 228 736 q 526 703 451 736 q 601 593 601 669 q 563 516 601 543 q 468 489 525 489 q 433 492 451 489 q 404 501 414 494 q 413 568 413 538 q 392 635 413 610 q 335 660 372 660 m 319 -71 q 433 -178 433 -71 q 411 -258 433 -219 q 350 -320 389 -296 q 267 -344 311 -344 q 215 -337 243 -344 q 267 -192 267 -267 q 238 -89 267 -136 q 275 -76 251 -81 q 319 -71 299 -71 z "},"ṣ":{"ha":644,"x_min":40,"x_max":603,"o":"m 40 0 m 335 660 q 277 639 299 660 q 256 583 256 618 q 294 496 256 531 q 413 419 333 461 q 513 359 475 385 q 576 294 550 333 q 603 199 603 254 q 519 26 603 83 q 304 -31 436 -31 q 118 4 196 -31 q 40 121 40 39 q 77 200 40 174 q 172 226 114 226 q 238 213 218 226 q 229 147 229 182 q 251 73 229 100 q 317 46 274 46 q 385 72 361 46 q 408 143 408 97 q 369 231 408 196 q 253 307 331 265 q 152 367 190 340 q 88 433 114 393 q 61 529 61 474 q 144 685 61 633 q 350 736 228 736 q 526 703 451 736 q 601 593 601 669 q 563 516 601 543 q 468 489 525 489 q 433 492 451 489 q 404 501 414 494 q 413 568 413 538 q 392 635 413 610 q 335 660 372 660 m 336 -65 q 427 -92 393 -65 q 461 -165 461 -118 q 425 -240 461 -214 q 332 -265 389 -265 q 241 -240 276 -265 q 206 -168 206 -214 q 242 -92 206 -119 q 336 -65 279 -65 z "},"ß":{"ha":946,"x_min":-39,"x_max":933,"o":"m 86 749 q 443 1000 86 1000 q 663 964 563 1000 q 763 846 763 928 q 739 774 763 806 q 668 700 715 743 q 607 638 626 663 q 588 583 588 613 q 626 496 588 531 q 743 419 665 461 q 843 359 806 385 q 907 294 881 333 q 933 199 933 254 q 850 26 933 83 q 636 -31 767 -31 q 449 4 528 -31 q 371 121 371 39 q 408 200 371 174 q 504 226 446 226 q 569 213 550 226 q 561 147 561 182 q 583 73 561 100 q 649 46 606 46 q 717 72 693 46 q 740 143 740 97 q 701 231 740 196 q 585 307 663 265 q 484 367 522 340 q 419 433 446 393 q 393 529 393 474 q 418 604 393 569 q 492 685 443 639 q 554 751 533 724 q 575 808 575 779 q 535 897 575 865 q 435 929 496 929 q 328 890 358 929 q 299 769 299 851 l 299 97 q 253 -145 299 -53 q 89 -237 207 -237 q 6 -222 43 -237 q -39 -171 -31 -206 q 61 -105 36 -167 q 86 61 86 -43 l 86 749 z "},"ſ":{"ha":411,"x_min":79,"x_max":622,"o":"m 79 -19 l 79 772 q 161 946 79 892 q 379 1000 243 1000 q 550 973 478 1000 q 622 878 622 946 q 585 804 622 829 q 490 779 547 779 q 425 793 442 779 q 433 856 433 832 q 371 936 433 936 q 306 896 321 936 q 290 786 290 856 l 290 0 l 79 -19 z "},"t":{"ha":432,"x_min":7,"x_max":442,"o":"m 7 646 l 7 689 q 142 758 74 714 q 254 853 210 803 l 314 853 l 314 708 l 442 708 l 442 646 l 313 646 l 313 151 q 328 85 313 108 q 381 56 344 63 q 329 -1 367 19 q 246 -21 292 -21 q 137 18 174 -21 q 100 131 100 57 l 100 646 l 7 646 z "},"ŧ":{"ha":481,"x_min":18,"x_max":474,"o":"m 328 357 l 328 151 q 344 85 328 108 q 396 56 360 63 q 344 -1 382 19 q 261 -21 307 -21 q 152 18 189 -21 q 115 131 115 57 l 115 357 l 26 357 q 18 401 18 382 q 39 453 18 436 q 99 471 60 471 l 115 471 l 115 646 l 22 646 l 22 689 q 157 758 89 714 q 269 853 225 803 l 329 853 l 329 708 l 457 708 l 457 646 l 328 646 l 328 471 l 465 471 q 474 426 474 446 q 388 357 474 357 l 328 357 z "},"ť":{"ha":432,"x_min":7,"x_max":531,"o":"m 7 0 m 7 646 l 7 689 q 142 758 74 714 q 254 853 210 803 l 314 853 l 314 708 l 442 708 l 442 646 l 313 646 l 313 151 q 328 85 313 108 q 381 56 344 63 q 329 -1 367 19 q 246 -21 292 -21 q 137 18 174 -21 q 100 131 100 57 l 100 646 l 7 646 m 353 981 q 388 994 365 989 q 431 1000 410 1000 q 504 971 478 1000 q 531 886 531 942 q 513 817 531 851 q 462 759 494 782 q 386 736 429 736 q 340 744 361 736 q 382 876 382 803 q 353 981 382 931 z "},"ţ":{"ha":432,"x_min":7,"x_max":442,"o":"m 313 646 l 313 151 q 328 85 313 108 q 381 56 344 63 q 329 -1 367 19 q 246 -21 292 -21 l 242 -21 l 215 -85 q 254 -83 229 -83 q 373 -115 329 -83 q 417 -214 417 -147 q 360 -317 417 -279 q 225 -356 303 -356 q 128 -337 171 -356 q 85 -274 85 -318 q 100 -229 85 -244 q 204 -271 136 -271 q 256 -256 235 -271 q 276 -214 276 -240 q 174 -153 276 -153 q 117 -157 143 -153 l 172 -7 q 100 131 100 26 l 100 646 l 7 646 l 7 689 q 142 758 74 714 q 254 853 210 803 l 314 853 l 314 708 l 442 708 l 442 646 l 313 646 z "},"ț":{"ha":432,"x_min":7,"x_max":442,"o":"m 7 0 m 7 646 l 7 689 q 142 758 74 714 q 254 853 210 803 l 314 853 l 314 708 l 442 708 l 442 646 l 313 646 l 313 151 q 328 85 313 108 q 381 56 344 63 q 329 -1 367 19 q 246 -21 292 -21 q 137 18 174 -21 q 100 131 100 57 l 100 646 l 7 646 m 233 -71 q 347 -178 347 -71 q 325 -258 347 -219 q 264 -320 303 -296 q 181 -344 225 -344 q 129 -337 157 -344 q 181 -192 181 -267 q 151 -89 181 -136 q 189 -76 165 -81 q 233 -71 213 -71 z "},"ṭ":{"ha":432,"x_min":7,"x_max":442,"o":"m 7 0 m 7 646 l 7 689 q 142 758 74 714 q 254 853 210 803 l 314 853 l 314 708 l 442 708 l 442 646 l 313 646 l 313 151 q 328 85 313 108 q 381 56 344 63 q 329 -1 367 19 q 246 -21 292 -21 q 137 18 174 -21 q 100 131 100 57 l 100 646 l 7 646 m 250 -65 q 341 -92 307 -65 q 375 -165 375 -118 q 339 -240 375 -214 q 246 -265 303 -265 q 155 -240 190 -265 q 119 -168 119 -214 q 156 -92 119 -119 q 250 -65 193 -65 z "},"u":{"ha":789,"x_min":76,"x_max":747,"o":"m 704 139 q 714 71 704 100 q 747 19 724 42 q 701 -10 731 0 q 640 -21 671 -21 q 556 1 590 -21 q 508 63 521 22 q 431 -8 481 15 q 321 -31 382 -31 q 166 13 219 -31 q 94 132 113 56 q 76 328 76 208 l 76 708 l 292 708 l 292 335 q 297 194 292 247 q 323 105 301 140 q 390 69 344 69 q 467 114 443 69 q 492 225 492 158 l 492 708 l 704 708 l 704 139 z "},"ú":{"ha":789,"x_min":76,"x_max":747,"o":"m 76 0 m 704 139 q 714 71 704 100 q 747 19 724 42 q 701 -10 731 0 q 640 -21 671 -21 q 556 1 590 -21 q 508 63 521 22 q 431 -8 481 15 q 321 -31 382 -31 q 166 13 219 -31 q 94 132 113 56 q 76 328 76 208 l 76 708 l 292 708 l 292 335 q 297 194 292 247 q 323 105 301 140 q 390 69 344 69 q 467 114 443 69 q 492 225 492 158 l 492 708 l 704 708 l 704 139 m 535 1063 q 584 1026 564 1051 q 604 971 604 1000 q 568 903 604 928 q 468 857 532 879 l 294 796 l 263 853 l 535 1063 z "},"ŭ":{"ha":789,"x_min":76,"x_max":747,"o":"m 76 0 m 704 139 q 714 71 704 100 q 747 19 724 42 q 701 -10 731 0 q 640 -21 671 -21 q 556 1 590 -21 q 508 63 521 22 q 431 -8 481 15 q 321 -31 382 -31 q 166 13 219 -31 q 94 132 113 56 q 76 328 76 208 l 76 708 l 292 708 l 292 335 q 297 194 292 247 q 323 105 301 140 q 390 69 344 69 q 467 114 443 69 q 492 225 492 158 l 492 708 l 704 708 l 704 139 m 629 1025 q 566 874 629 931 q 390 818 503 818 q 213 874 276 818 q 150 1025 150 929 l 317 1025 q 329 924 317 958 q 390 890 342 890 q 451 924 439 890 q 463 1025 463 958 l 629 1025 z "},"û":{"ha":789,"x_min":76,"x_max":747,"o":"m 76 0 m 704 139 q 714 71 704 100 q 747 19 724 42 q 701 -10 731 0 q 640 -21 671 -21 q 556 1 590 -21 q 508 63 521 22 q 431 -8 481 15 q 321 -31 382 -31 q 166 13 219 -31 q 94 132 113 56 q 76 328 76 208 l 76 708 l 292 708 l 292 335 q 297 194 292 247 q 323 105 301 140 q 390 69 344 69 q 467 114 443 69 q 492 225 492 158 l 492 708 l 704 708 l 704 139 m 214 806 l 167 863 l 372 1035 l 406 1035 l 615 863 l 568 806 l 390 892 l 214 806 z "},"ü":{"ha":789,"x_min":76,"x_max":747,"o":"m 76 0 m 704 139 q 714 71 704 100 q 747 19 724 42 q 701 -10 731 0 q 640 -21 671 -21 q 556 1 590 -21 q 508 63 521 22 q 431 -8 481 15 q 321 -31 382 -31 q 166 13 219 -31 q 94 132 113 56 q 76 328 76 208 l 76 708 l 292 708 l 292 335 q 297 194 292 247 q 323 105 301 140 q 390 69 344 69 q 467 114 443 69 q 492 225 492 158 l 492 708 l 704 708 l 704 139 m 542 1022 q 633 996 599 1022 q 667 922 667 969 q 631 848 667 874 q 538 822 594 822 q 447 848 482 822 q 411 919 411 874 q 448 995 411 968 q 542 1022 485 1022 m 243 1022 q 334 996 300 1022 q 368 922 368 969 q 332 848 368 874 q 239 822 296 822 q 148 848 183 822 q 113 919 113 874 q 149 995 113 968 q 243 1022 186 1022 z "},"ụ":{"ha":789,"x_min":76,"x_max":747,"o":"m 76 0 m 704 139 q 714 71 704 100 q 747 19 724 42 q 701 -10 731 0 q 640 -21 671 -21 q 556 1 590 -21 q 508 63 521 22 q 431 -8 481 15 q 321 -31 382 -31 q 166 13 219 -31 q 94 132 113 56 q 76 328 76 208 l 76 708 l 292 708 l 292 335 q 297 194 292 247 q 323 105 301 140 q 390 69 344 69 q 467 114 443 69 q 492 225 492 158 l 492 708 l 704 708 l 704 139 m 400 -65 q 491 -92 457 -65 q 525 -165 525 -118 q 489 -240 525 -214 q 396 -265 453 -265 q 305 -240 340 -265 q 269 -168 269 -214 q 306 -92 269 -119 q 400 -65 343 -65 z "},"ù":{"ha":789,"x_min":76,"x_max":747,"o":"m 76 0 m 704 139 q 714 71 704 100 q 747 19 724 42 q 701 -10 731 0 q 640 -21 671 -21 q 556 1 590 -21 q 508 63 521 22 q 431 -8 481 15 q 321 -31 382 -31 q 166 13 219 -31 q 94 132 113 56 q 76 328 76 208 l 76 708 l 292 708 l 292 335 q 297 194 292 247 q 323 105 301 140 q 390 69 344 69 q 467 114 443 69 q 492 225 492 158 l 492 708 l 704 708 l 704 139 m 313 857 q 213 905 249 881 q 176 971 176 929 q 197 1026 176 1000 q 247 1063 217 1051 l 518 853 l 486 796 l 313 857 z "},"ű":{"ha":789,"x_min":76,"x_max":761,"o":"m 76 0 m 704 139 q 714 71 704 100 q 747 19 724 42 q 701 -10 731 0 q 640 -21 671 -21 q 556 1 590 -21 q 508 63 521 22 q 431 -8 481 15 q 321 -31 382 -31 q 166 13 219 -31 q 94 132 113 56 q 76 328 76 208 l 76 708 l 292 708 l 292 335 q 297 194 292 247 q 323 105 301 140 q 390 69 344 69 q 467 114 443 69 q 492 225 492 158 l 492 708 l 704 708 l 704 139 m 396 1082 q 461 1051 433 1076 q 489 992 489 1026 q 390 861 489 919 l 244 771 l 197 818 l 396 1082 m 668 1082 q 733 1051 706 1076 q 761 992 761 1026 q 663 861 761 919 l 517 771 l 469 818 l 668 1082 z "},"ū":{"ha":789,"x_min":76,"x_max":747,"o":"m 76 0 m 704 139 q 714 71 704 100 q 747 19 724 42 q 701 -10 731 0 q 640 -21 671 -21 q 556 1 590 -21 q 508 63 521 22 q 431 -8 481 15 q 321 -31 382 -31 q 166 13 219 -31 q 94 132 113 56 q 76 328 76 208 l 76 708 l 292 708 l 292 335 q 297 194 292 247 q 323 105 301 140 q 390 69 344 69 q 467 114 443 69 q 492 225 492 158 l 492 708 l 704 708 l 704 139 m 581 978 q 593 924 593 953 q 572 875 593 893 q 513 857 550 857 l 199 857 q 188 908 188 876 q 208 959 188 940 q 263 978 228 978 l 581 978 z "},"ų":{"ha":789,"x_min":76,"x_max":800,"o":"m 774 -224 q 800 -269 800 -243 q 758 -334 800 -312 q 667 -356 717 -356 q 540 -319 589 -356 q 490 -212 490 -283 q 606 -18 490 -104 q 544 9 569 -11 q 508 63 518 29 q 431 -8 481 15 q 321 -31 382 -31 q 166 13 219 -31 q 94 132 113 56 q 76 328 76 208 l 76 708 l 292 708 l 292 335 q 297 194 292 247 q 323 105 301 140 q 390 69 344 69 q 467 114 443 69 q 492 225 492 158 l 492 708 l 704 708 l 704 139 q 714 71 704 100 q 747 19 724 42 q 742 14 742 14 l 743 14 l 736 8 q 732 6 735 8 q 654 -79 683 -32 q 625 -178 625 -126 q 643 -237 625 -219 q 703 -256 661 -256 q 744 -247 724 -256 q 774 -224 764 -239 z "},"ů":{"ha":789,"x_min":76,"x_max":747,"o":"m 76 0 m 704 139 q 714 71 704 100 q 747 19 724 42 q 701 -10 731 0 q 640 -21 671 -21 q 556 1 590 -21 q 508 63 521 22 q 431 -8 481 15 q 321 -31 382 -31 q 166 13 219 -31 q 94 132 113 56 q 76 328 76 208 l 76 708 l 292 708 l 292 335 q 297 194 292 247 q 323 105 301 140 q 390 69 344 69 q 467 114 443 69 q 492 225 492 158 l 492 708 l 704 708 l 704 139 m 390 794 q 279 831 324 794 q 235 929 235 868 q 278 1025 235 990 q 390 1060 321 1060 q 501 1026 458 1060 q 544 929 544 992 q 501 831 544 868 q 390 794 457 794 m 390 846 q 440 869 424 846 q 456 929 456 892 q 439 986 456 964 q 390 1008 422 1008 q 340 986 357 1008 q 324 929 324 964 q 340 869 324 892 q 390 846 357 846 z "},"ũ":{"ha":789,"x_min":76,"x_max":747,"o":"m 76 0 m 704 139 q 714 71 704 100 q 747 19 724 42 q 701 -10 731 0 q 640 -21 671 -21 q 556 1 590 -21 q 508 63 521 22 q 431 -8 481 15 q 321 -31 382 -31 q 166 13 219 -31 q 94 132 113 56 q 76 328 76 208 l 76 708 l 292 708 l 292 335 q 297 194 292 247 q 323 105 301 140 q 390 69 344 69 q 467 114 443 69 q 492 225 492 158 l 492 708 l 704 708 l 704 139 m 600 990 q 625 954 615 975 q 635 913 635 933 q 522 833 635 833 q 449 840 494 833 q 390 849 404 847 q 264 864 304 864 q 182 839 207 864 q 157 875 167 854 q 147 917 147 896 q 260 996 147 996 q 332 989 288 996 q 390 981 376 982 q 518 965 476 965 q 600 990 575 965 z "},"v":{"ha":675,"x_min":7,"x_max":682,"o":"m 682 708 l 467 0 l 199 0 l 7 708 l 229 708 l 358 101 l 488 708 l 682 708 z "},"w":{"ha":1044,"x_min":7,"x_max":1051,"o":"m 1051 708 l 853 0 l 607 0 l 514 411 l 428 0 l 181 0 l 7 708 l 229 708 l 340 101 l 453 708 l 640 708 l 753 101 l 864 708 l 1051 708 z "},"ẃ":{"ha":1044,"x_min":7,"x_max":1051,"o":"m 7 0 m 1051 708 l 853 0 l 607 0 l 514 411 l 428 0 l 181 0 l 7 708 l 229 708 l 340 101 l 453 708 l 640 708 l 753 101 l 864 708 l 1051 708 m 690 1063 q 740 1026 719 1051 q 760 971 760 1000 q 724 903 760 928 q 624 857 688 879 l 450 796 l 418 853 l 690 1063 z "},"ŵ":{"ha":1044,"x_min":7,"x_max":1051,"o":"m 7 0 m 1051 708 l 853 0 l 607 0 l 514 411 l 428 0 l 181 0 l 7 708 l 229 708 l 340 101 l 453 708 l 640 708 l 753 101 l 864 708 l 1051 708 m 369 806 l 322 863 l 528 1035 l 561 1035 l 771 863 l 724 806 l 546 892 l 369 806 z "},"ẅ":{"ha":1044,"x_min":7,"x_max":1051,"o":"m 7 0 m 1051 708 l 853 0 l 607 0 l 514 411 l 428 0 l 181 0 l 7 708 l 229 708 l 340 101 l 453 708 l 640 708 l 753 101 l 864 708 l 1051 708 m 697 1022 q 788 996 754 1022 q 822 922 822 969 q 786 848 822 874 q 693 822 750 822 q 602 848 638 822 q 567 919 567 874 q 603 995 567 968 q 697 1022 640 1022 m 399 1022 q 490 996 456 1022 q 524 922 524 969 q 488 848 524 874 q 394 822 451 822 q 303 848 339 822 q 268 919 268 874 q 305 995 268 968 q 399 1022 342 1022 z "},"ẁ":{"ha":1044,"x_min":7,"x_max":1051,"o":"m 7 0 m 1051 708 l 853 0 l 607 0 l 514 411 l 428 0 l 181 0 l 7 708 l 229 708 l 340 101 l 453 708 l 640 708 l 753 101 l 864 708 l 1051 708 m 468 857 q 368 905 404 881 q 332 971 332 929 q 352 1026 332 1000 q 403 1063 372 1051 l 674 853 l 642 796 l 468 857 z "},"x":{"ha":647,"x_min":-1,"x_max":647,"o":"m 292 238 l 194 0 l -1 0 l 215 363 l 17 708 l 253 708 l 361 494 l 443 708 l 639 708 l 435 365 l 647 0 l 411 0 l 292 238 z "},"y":{"ha":664,"x_min":13,"x_max":667,"o":"m 667 708 l 338 -268 l 125 -250 l 275 75 l 189 75 l 13 708 l 235 708 l 354 175 l 483 708 l 667 708 z "},"ý":{"ha":664,"x_min":13,"x_max":667,"o":"m 13 0 m 667 708 l 338 -268 l 125 -250 l 275 75 l 189 75 l 13 708 l 235 708 l 354 175 l 483 708 l 667 708 m 499 1063 q 548 1026 528 1051 q 568 971 568 1000 q 532 903 568 928 q 432 857 496 879 l 258 796 l 226 853 l 499 1063 z "},"ŷ":{"ha":664,"x_min":13,"x_max":667,"o":"m 13 0 m 667 708 l 338 -268 l 125 -250 l 275 75 l 189 75 l 13 708 l 235 708 l 354 175 l 483 708 l 667 708 m 178 806 l 131 863 l 336 1035 l 369 1035 l 579 863 l 532 806 l 354 892 l 178 806 z "},"ÿ":{"ha":664,"x_min":13,"x_max":667,"o":"m 13 0 m 667 708 l 338 -268 l 125 -250 l 275 75 l 189 75 l 13 708 l 235 708 l 354 175 l 483 708 l 667 708 m 506 1022 q 597 996 563 1022 q 631 922 631 969 q 594 848 631 874 q 501 822 558 822 q 410 848 446 822 q 375 919 375 874 q 412 995 375 968 q 506 1022 449 1022 m 207 1022 q 298 996 264 1022 q 332 922 332 969 q 296 848 332 874 q 203 822 260 822 q 112 848 147 822 q 76 919 76 874 q 113 995 76 968 q 207 1022 150 1022 z "},"ỳ":{"ha":664,"x_min":13,"x_max":667,"o":"m 13 0 m 667 708 l 338 -268 l 125 -250 l 275 75 l 189 75 l 13 708 l 235 708 l 354 175 l 483 708 l 667 708 m 276 857 q 176 905 213 881 q 140 971 140 929 q 160 1026 140 1000 q 211 1063 181 1051 l 482 853 l 450 796 l 276 857 z "},"ỹ":{"ha":664,"x_min":13,"x_max":667,"o":"m 13 0 m 667 708 l 338 -268 l 125 -250 l 275 75 l 189 75 l 13 708 l 235 708 l 354 175 l 483 708 l 667 708 m 564 990 q 589 954 579 975 q 599 913 599 933 q 486 833 599 833 q 413 840 458 833 q 354 849 368 847 q 228 864 268 864 q 146 839 171 864 q 121 875 131 854 q 111 917 111 896 q 224 996 111 996 q 296 989 251 996 q 354 981 340 982 q 482 965 440 965 q 564 990 539 965 z "},"z":{"ha":564,"x_min":7,"x_max":547,"o":"m 532 708 l 542 626 l 246 106 l 547 121 l 536 0 l 17 0 l 7 83 l 301 601 l 28 583 l 40 708 l 532 708 z "},"ź":{"ha":564,"x_min":7,"x_max":547,"o":"m 7 0 m 532 708 l 542 626 l 246 106 l 547 121 l 536 0 l 17 0 l 7 83 l 301 601 l 28 583 l 40 708 l 532 708 m 425 1063 q 474 1026 454 1051 q 494 971 494 1000 q 458 903 494 928 q 358 857 422 879 l 185 796 l 153 853 l 425 1063 z "},"ž":{"ha":564,"x_min":7,"x_max":547,"o":"m 7 0 m 532 708 l 542 626 l 246 106 l 547 121 l 536 0 l 17 0 l 7 83 l 301 601 l 28 583 l 40 708 l 532 708 m 457 1042 l 504 985 l 306 799 l 258 799 l 56 985 l 103 1042 l 281 940 l 457 1042 z "},"ż":{"ha":564,"x_min":7,"x_max":547,"o":"m 7 0 m 532 708 l 542 626 l 246 106 l 547 121 l 536 0 l 17 0 l 7 83 l 301 601 l 28 583 l 40 708 l 532 708 m 285 1022 q 376 996 342 1022 q 410 922 410 969 q 374 848 410 874 q 281 822 338 822 q 190 848 225 822 q 154 919 154 874 q 191 995 154 968 q 285 1022 228 1022 z "},"ẓ":{"ha":564,"x_min":7,"x_max":547,"o":"m 7 0 m 532 708 l 542 626 l 246 106 l 547 121 l 536 0 l 17 0 l 7 83 l 301 601 l 28 583 l 40 708 l 532 708 m 268 -65 q 359 -92 325 -65 q 393 -165 393 -118 q 357 -240 393 -214 q 264 -265 321 -265 q 173 -240 208 -265 q 138 -168 138 -214 q 174 -92 138 -119 q 268 -65 211 -65 z "},"ﬁ":{"ha":819,"x_min":4,"x_max":776,"o":"m 525 857 q 499 917 525 897 q 431 936 474 936 q 338 898 365 936 q 311 786 311 860 l 311 708 l 733 708 l 733 139 q 743 71 733 100 q 776 19 753 42 q 730 -10 761 0 q 668 -21 699 -21 q 558 16 596 -21 q 521 125 521 53 l 521 646 l 313 646 l 313 0 l 100 -19 l 100 646 l 4 646 l 4 708 l 100 708 l 104 772 q 439 1000 117 1000 q 653 974 557 1000 q 750 875 750 947 q 707 800 750 825 q 604 775 664 775 q 515 793 551 775 q 525 857 525 821 z "},"ﬂ":{"ha":821,"x_min":4,"x_max":776,"o":"m 733 139 q 743 71 733 100 q 776 19 753 42 q 729 -10 761 0 q 667 -21 697 -21 q 558 16 596 -21 q 521 125 521 53 l 521 829 q 499 905 521 881 q 429 929 478 929 q 335 890 358 929 q 311 779 311 850 l 311 708 l 449 708 l 449 646 l 313 646 l 313 0 l 100 -19 l 100 646 l 4 646 l 4 708 l 100 708 l 104 772 q 199 947 113 894 q 435 1000 286 1000 q 594 981 532 1000 l 733 994 l 733 139 z "},"ª":{"ha":625,"x_min":53,"x_max":550,"o":"m 304 936 q 467 894 415 936 q 519 749 519 853 l 519 513 q 550 426 519 457 q 468 394 522 394 q 372 458 389 394 q 319 405 356 422 q 238 388 283 388 q 106 427 158 388 q 53 538 53 467 q 136 665 53 632 q 351 699 219 699 l 351 782 q 340 851 351 828 q 293 874 329 874 q 244 854 258 874 q 229 797 229 835 q 235 747 229 781 q 182 738 219 738 q 109 758 138 738 q 81 815 81 778 q 148 907 81 878 q 304 936 215 936 m 351 638 q 222 543 222 638 q 238 489 222 510 q 283 468 253 468 q 335 495 318 468 q 351 563 351 522 l 351 638 m 532 325 q 542 279 542 303 q 526 235 542 249 q 476 222 510 222 l 90 222 q 81 268 81 251 q 97 312 81 299 q 146 325 114 325 l 532 325 z "},"º":{"ha":603,"x_min":54,"x_max":547,"o":"m 301 936 q 485 867 424 936 q 547 671 547 799 q 485 465 547 540 q 301 389 424 389 q 118 463 182 389 q 54 661 54 536 q 116 863 54 790 q 301 936 178 936 m 301 457 q 362 515 349 457 q 375 665 375 572 q 361 811 375 753 q 301 869 347 869 q 240 812 254 869 q 226 665 226 754 q 240 515 226 572 q 301 457 253 457 m 81 222 q 71 268 71 244 q 87 312 71 299 q 135 325 103 325 l 521 325 q 531 279 531 303 q 515 235 531 249 q 467 222 499 222 l 81 222 z "},"Δ":{"ha":833,"x_min":-3,"x_max":846,"o":"m 543 917 l 846 0 l -3 0 l 306 917 l 543 917 m 389 750 l 194 101 l 589 101 l 400 708 l 389 750 z "},"Ω":{"ha":878,"x_min":38,"x_max":832,"o":"m 435 944 q 731 822 631 944 q 832 489 832 699 q 597 131 832 224 l 810 131 l 810 0 l 486 0 l 465 115 q 558 240 533 150 q 583 463 583 331 q 555 736 583 628 q 435 844 526 844 q 314 735 343 844 q 285 463 285 626 q 310 240 285 331 q 404 115 336 150 l 383 0 l 58 0 l 58 131 l 272 131 q 38 489 38 222 q 138 822 38 699 q 435 944 239 944 z "},"μ":{"ha":799,"x_min":86,"x_max":756,"o":"m 713 139 q 722 71 713 100 q 756 19 732 42 q 710 -10 740 0 q 650 -21 681 -21 q 564 1 599 -21 q 517 63 529 22 q 440 -6 489 17 q 333 -29 392 -29 q 299 -28 310 -29 l 299 -250 l 86 -268 l 86 708 l 301 731 l 301 335 q 306 193 301 246 q 332 105 311 140 q 399 69 353 69 q 476 114 453 69 q 500 225 500 158 l 500 708 l 713 708 l 713 139 z "},"π":{"ha":797,"x_min":14,"x_max":782,"o":"m 682 578 l 682 139 q 692 71 682 100 q 725 19 701 42 q 678 -10 710 0 q 617 -21 647 -21 q 507 16 544 -21 q 469 125 469 53 l 469 578 l 326 578 l 326 0 l 114 0 l 114 578 l 24 578 q 14 625 14 604 q 37 687 14 665 q 100 708 60 708 l 772 708 q 782 661 782 689 q 759 599 782 621 q 696 578 736 578 l 682 578 z "},"¹":{"ha":474,"x_min":42,"x_max":432,"o":"m 432 476 l 432 396 l 69 396 l 69 476 l 172 476 l 172 788 q 138 767 158 775 q 100 760 118 760 q 55 781 68 760 q 42 840 42 803 q 166 886 103 858 q 278 944 229 914 l 335 928 l 335 476 l 432 476 z "},"²":{"ha":499,"x_min":54,"x_max":436,"o":"m 238 936 q 379 897 326 936 q 432 778 432 857 q 395 669 432 718 q 267 539 358 621 q 219 501 232 511 l 436 506 l 433 396 l 61 396 l 56 467 l 158 568 q 240 663 211 619 q 268 756 268 707 q 249 811 268 792 q 193 831 229 831 q 86 760 118 831 q 63 782 71 767 q 54 817 54 797 q 110 906 54 875 q 238 936 165 936 z "},"³":{"ha":494,"x_min":51,"x_max":433,"o":"m 231 935 q 357 904 308 935 q 406 808 406 874 q 381 728 406 761 q 307 679 356 696 q 400 637 367 669 q 433 549 433 604 q 373 422 433 467 q 218 378 313 378 q 100 406 149 378 q 51 489 51 433 q 74 540 51 528 q 124 497 93 511 q 190 482 154 482 q 249 501 226 482 q 271 554 271 519 q 249 609 271 590 q 186 628 226 628 q 146 625 160 628 l 146 696 q 230 715 197 696 q 263 776 263 733 q 244 822 263 806 q 193 838 225 838 q 93 765 126 838 q 63 824 63 781 q 113 907 63 879 q 231 935 163 935 z "},"⁄":{"ha":432,"x_min":31,"x_max":400,"o":"m 290 994 q 333 1000 310 1000 q 382 987 364 1000 q 400 947 400 974 q 397 923 400 938 q 393 903 394 908 l 140 -121 q 97 -126 121 -126 q 49 -113 67 -126 q 31 -74 31 -100 q 33 -49 31 -64 q 38 -29 36 -35 l 290 994 z "},"½":{"ha":1133,"x_min":42,"x_max":1071,"o":"m 681 1000 q 728 987 710 1000 q 746 947 746 974 q 739 903 746 928 l 486 -121 q 443 -126 467 -126 q 396 -113 414 -126 q 378 -74 378 -100 q 385 -29 378 -54 l 638 994 q 681 1000 657 1000 m 335 928 l 335 476 l 432 476 l 432 396 l 69 396 l 69 476 l 172 476 l 172 788 q 138 767 158 775 q 100 760 118 760 q 55 781 68 760 q 42 840 42 803 q 166 886 103 858 q 278 944 229 914 l 335 928 m 872 540 q 1014 501 961 540 q 1067 382 1067 461 q 1047 303 1067 339 q 994 232 1028 267 q 894 136 961 197 l 853 106 l 1071 110 l 1068 0 l 696 0 l 690 71 l 790 171 q 873 266 843 221 q 903 360 903 311 q 883 415 903 396 q 826 435 863 435 q 763 417 790 435 q 721 364 735 399 q 689 421 689 378 q 744 510 689 479 q 872 540 800 540 z "},"⅓":{"ha":1133,"x_min":42,"x_max":1076,"o":"m 692 993 q 757 940 757 993 q 750 896 757 921 l 497 -128 q 454 -133 478 -133 q 406 -120 424 -133 q 388 -81 388 -107 q 394 -36 388 -71 l 647 989 q 692 993 661 993 m 335 928 l 335 476 l 432 476 l 432 396 l 69 396 l 69 476 l 172 476 l 172 788 q 138 767 158 775 q 100 760 118 760 q 55 781 68 760 q 42 840 42 803 q 166 886 103 858 q 278 944 229 914 l 335 928 m 874 542 q 1001 511 951 542 q 1050 415 1050 481 q 1024 335 1050 368 q 950 286 999 301 q 1043 244 1010 276 q 1076 156 1076 211 q 1016 28 1076 72 q 861 -15 956 -15 q 743 13 792 -15 q 694 96 694 40 q 717 146 694 133 q 767 103 736 118 q 833 89 797 89 q 892 108 869 89 q 914 161 914 126 q 892 216 914 197 q 831 235 869 235 q 790 232 803 235 l 790 301 q 873 321 840 301 q 906 383 906 340 q 887 428 906 413 q 838 444 868 444 q 736 372 769 444 q 706 431 706 388 q 756 514 706 486 q 874 542 807 542 z "},"⅔":{"ha":1133,"x_min":61,"x_max":1071,"o":"m 685 993 q 751 940 751 993 q 749 916 751 931 q 744 896 746 901 l 492 -128 q 447 -133 472 -133 q 400 -120 418 -133 q 382 -81 382 -107 q 389 -36 382 -60 l 642 989 q 685 993 657 993 m 244 936 q 386 897 333 936 q 439 778 439 857 q 402 669 439 718 q 272 538 365 621 l 225 501 l 443 506 l 440 396 l 68 396 l 63 467 q 129 533 63 467 l 163 567 q 244 661 215 617 q 274 756 274 706 q 254 811 274 792 q 199 831 235 831 q 135 813 163 831 q 93 760 107 794 q 61 817 61 774 q 117 906 61 875 q 244 936 172 936 m 868 542 q 994 511 946 542 q 1043 415 1043 481 q 1017 335 1043 368 q 943 286 992 301 q 1038 244 1004 276 q 1071 156 1071 211 q 1010 28 1071 72 q 854 -15 950 -15 q 738 13 786 -15 q 689 96 689 40 q 710 146 689 132 q 828 89 750 89 q 886 108 864 89 q 908 161 908 126 q 886 216 908 197 q 824 235 864 235 q 783 232 797 235 l 783 301 q 867 321 835 301 q 900 383 900 340 q 881 428 900 413 q 831 444 863 444 q 731 372 763 444 q 700 431 700 388 q 750 514 700 486 q 868 542 800 542 z "},"¼":{"ha":1133,"x_min":29,"x_max":1111,"o":"m 668 1000 q 715 987 697 1000 q 733 947 733 974 q 726 903 733 928 l 474 -121 q 431 -126 454 -126 q 382 -113 400 -126 q 364 -74 364 -100 q 367 -49 364 -64 q 371 -29 369 -35 l 624 994 q 668 1000 646 1000 m 322 928 l 322 476 l 419 476 l 419 396 l 57 396 l 57 476 l 160 476 l 160 788 q 126 767 146 775 q 88 760 106 760 q 42 781 56 760 q 29 840 29 803 q 153 886 89 858 q 265 944 217 914 l 322 928 m 1032 192 l 1111 192 l 1104 99 l 1032 99 l 1032 0 l 868 0 l 868 99 l 660 99 q 633 140 633 107 q 653 193 633 160 l 864 529 l 1032 529 l 1032 192 m 871 403 l 744 192 l 871 192 l 871 403 z "},"¾":{"ha":1133,"x_min":46,"x_max":1111,"o":"m 668 1000 q 715 987 697 1000 q 733 947 733 974 q 726 903 733 928 l 474 -121 q 431 -126 454 -126 q 382 -113 400 -126 q 364 -74 364 -100 q 367 -49 364 -64 q 371 -29 369 -35 l 624 994 q 668 1000 646 1000 m 225 935 q 351 904 303 935 q 400 808 400 874 q 375 728 400 761 q 301 679 350 696 q 394 637 361 669 q 428 549 428 604 q 367 422 428 467 q 213 378 307 378 q 94 406 143 378 q 46 489 46 433 q 68 540 46 528 q 118 497 88 511 q 185 482 149 482 q 243 501 221 482 q 265 554 265 519 q 243 609 265 590 q 181 628 221 628 q 140 625 154 628 l 140 696 q 224 715 192 696 q 257 776 257 733 q 238 822 257 806 q 188 838 219 838 q 88 765 121 838 q 57 824 57 781 q 107 907 57 879 q 225 935 157 935 m 1032 192 l 1111 192 l 1104 99 l 1032 99 l 1032 0 l 868 0 l 868 99 l 660 99 q 633 140 633 107 q 653 193 633 160 l 864 529 l 1032 529 l 1032 192 m 871 403 l 744 192 l 871 192 l 871 403 z "},"⅛":{"ha":1133,"x_min":35,"x_max":1107,"o":"m 674 1000 q 721 987 703 1000 q 739 947 739 974 q 732 903 739 928 l 479 -121 q 436 -126 460 -126 q 389 -113 407 -126 q 371 -74 371 -100 q 378 -29 371 -54 l 631 994 q 674 1000 650 1000 m 328 928 l 328 476 l 425 476 l 425 396 l 64 396 l 64 476 l 165 476 l 165 788 q 131 767 150 775 q 93 760 111 760 q 48 781 61 760 q 35 840 35 803 q 158 886 94 858 q 272 944 222 914 l 328 928 m 903 542 q 1030 511 981 542 q 1079 417 1079 481 q 983 294 1079 343 q 1074 220 1042 257 q 1107 133 1107 183 q 1047 23 1107 61 q 900 -15 988 -15 q 758 23 817 -15 q 700 133 700 61 q 730 206 700 172 q 804 267 760 240 q 735 331 760 299 q 711 406 711 363 q 767 508 711 474 q 903 542 822 542 m 907 475 q 868 460 882 475 q 854 421 854 446 q 872 374 854 394 q 929 329 890 354 q 951 371 943 347 q 958 417 958 394 q 944 458 958 443 q 907 475 931 474 m 861 226 q 829 129 829 186 q 847 73 829 94 q 897 51 865 51 q 960 118 960 51 q 937 171 960 149 q 861 226 914 193 z "},"*":{"ha":613,"x_min":25,"x_max":564,"o":"m 518 847 q 558 790 544 826 q 564 761 564 768 q 538 707 564 728 q 468 671 513 686 q 410 658 442 663 l 526 535 q 483 479 514 501 q 436 463 461 463 q 343 529 392 463 q 297 615 314 574 l 203 442 q 138 465 165 444 q 103 525 103 490 q 142 614 103 563 q 188 665 164 643 l 28 694 q 25 724 25 704 q 31 764 25 747 q 107 819 49 819 q 172 807 135 819 q 244 775 200 797 l 221 949 q 288 968 251 968 q 354 934 336 968 q 372 846 372 900 q 364 774 372 811 l 518 847 z "},"\\":{"ha":464,"x_min":43,"x_max":421,"o":"m 146 1111 q 200 1106 175 1111 l 415 -147 q 421 -201 421 -181 q 318 -278 421 -278 q 264 -274 283 -278 l 49 981 q 43 1033 43 1011 q 72 1093 43 1075 q 146 1111 100 1111 z "},"·":{"ha":343,"x_min":44,"x_max":299,"o":"m 175 454 q 265 428 231 454 q 299 354 299 401 q 263 280 299 306 q 169 254 226 254 q 79 279 114 254 q 44 351 44 304 q 81 427 44 400 q 175 454 118 454 z "},"•":{"ha":392,"x_min":28,"x_max":336,"o":"m 186 488 q 294 454 253 488 q 336 361 336 421 q 292 265 336 299 q 179 231 249 231 q 69 263 111 231 q 28 356 28 296 q 73 453 28 418 q 186 488 118 488 z "},":":{"ha":353,"x_min":49,"x_max":303,"o":"m 49 0 m 179 736 q 269 710 235 736 q 303 636 303 683 q 267 562 303 588 q 174 536 231 536 q 83 561 118 536 q 49 633 49 586 q 85 709 49 682 q 179 736 122 736 m 179 172 q 269 146 235 172 q 303 72 303 119 q 267 -2 303 24 q 174 -28 231 -28 q 83 -3 118 -28 q 49 69 49 22 q 85 145 49 118 q 179 172 122 172 z "},",":{"ha":336,"x_min":43,"x_max":294,"o":"m 160 165 q 260 130 225 165 q 294 28 294 94 q 268 -72 294 -25 q 197 -149 242 -119 q 100 -178 151 -178 q 43 -169 69 -178 q 101 13 101 -83 q 68 143 101 82 q 109 159 83 153 q 160 165 135 165 z "},"…":{"ha":992,"x_min":44,"x_max":956,"o":"m 44 0 m 506 172 q 595 146 561 172 q 629 72 629 119 q 593 -2 629 24 q 500 -28 557 -28 q 410 -3 444 -28 q 375 69 375 22 q 412 145 375 118 q 506 172 449 172 m 832 172 q 922 146 888 172 q 956 72 956 119 q 919 -2 956 24 q 826 -28 883 -28 q 736 -3 771 -28 q 701 69 701 22 q 738 145 701 118 q 832 172 775 172 m 175 172 q 265 146 231 172 q 299 72 299 119 q 263 -2 299 24 q 169 -28 226 -28 q 79 -3 114 -28 q 44 69 44 22 q 81 145 44 118 q 175 172 118 172 z "},"!":{"ha":346,"x_min":44,"x_max":299,"o":"m 168 946 q 278 826 278 946 q 275 748 278 792 q 271 688 272 704 l 268 657 l 235 278 q 179 264 215 264 q 115 290 131 264 q 96 374 100 315 l 65 908 q 112 935 83 925 q 168 946 140 946 m 175 172 q 265 146 231 172 q 299 72 299 119 q 263 -2 299 24 q 169 -28 226 -28 q 79 -3 114 -28 q 44 69 44 22 q 81 145 44 118 q 175 172 118 172 z "},"¡":{"ha":346,"x_min":46,"x_max":300,"o":"m 176 736 q 266 710 232 736 q 300 636 300 683 q 264 562 300 588 q 171 536 228 536 q 81 561 115 536 q 46 633 46 586 q 83 709 46 682 q 176 736 119 736 m 165 444 q 230 419 214 444 q 250 335 246 394 l 279 -200 q 233 -227 263 -217 q 176 -237 204 -237 q 67 -118 67 -237 q 78 50 67 -58 l 110 429 q 165 444 129 444 z "},"#":{"ha":807,"x_min":25,"x_max":782,"o":"m 569 918 q 629 903 603 918 l 629 685 l 768 685 q 782 629 782 660 q 762 564 782 586 q 706 542 742 542 l 629 542 l 629 365 l 768 365 q 782 310 782 338 q 762 245 782 268 q 706 222 742 222 l 629 222 l 629 83 q 607 22 629 44 q 542 0 585 0 q 482 15 513 0 l 482 222 l 332 222 l 332 83 q 310 22 332 44 q 244 0 288 0 q 185 15 215 0 l 185 222 l 39 222 q 25 278 25 250 q 45 342 25 319 q 101 365 65 365 l 185 365 l 185 542 l 39 542 q 25 597 25 569 q 45 663 25 642 q 101 685 65 685 l 185 685 l 185 835 q 207 897 185 875 q 272 918 229 918 q 332 903 306 918 l 332 685 l 482 685 l 482 835 q 504 897 482 875 q 569 918 526 918 m 482 542 l 332 542 l 332 365 l 482 365 l 482 542 z "},".":{"ha":343,"x_min":44,"x_max":299,"o":"m 175 172 q 265 146 231 172 q 299 72 299 119 q 263 -2 299 24 q 169 -28 226 -28 q 79 -3 114 -28 q 44 69 44 22 q 81 145 44 118 q 175 172 118 172 z "},"?":{"ha":640,"x_min":3,"x_max":614,"o":"m 304 944 q 614 736 614 944 q 591 636 614 682 q 535 556 568 590 q 449 476 501 522 q 350 380 382 419 q 318 292 318 340 q 294 283 311 286 q 261 279 276 279 q 203 302 224 279 q 182 365 182 325 q 205 438 182 403 q 276 529 228 474 q 364 642 333 593 q 394 750 394 692 q 372 831 394 800 q 300 861 349 861 q 228 830 253 861 q 203 746 203 799 q 214 667 203 708 q 147 654 189 654 q 42 685 82 654 q 3 778 3 717 q 92 906 3 868 q 304 944 181 944 m 263 172 q 352 146 318 172 q 386 72 386 119 q 350 -2 386 24 q 257 -28 314 -28 q 167 -3 201 -28 q 132 69 132 22 q 169 145 132 118 q 263 172 206 172 z "},"¿":{"ha":640,"x_min":15,"x_max":626,"o":"m 365 736 q 455 710 421 736 q 489 636 489 683 q 453 562 489 588 q 360 536 417 536 q 269 561 304 536 q 235 633 235 586 q 272 709 235 682 q 365 736 308 736 m 368 429 q 427 406 407 429 q 447 344 447 383 q 424 272 447 307 q 353 181 401 236 q 265 65 294 114 q 235 -42 235 17 q 258 -122 235 -92 q 331 -153 281 -153 q 401 -121 376 -153 q 426 -37 426 -89 q 417 42 426 -4 q 482 56 443 56 q 587 24 547 56 q 626 -69 626 -7 q 538 -198 626 -160 q 326 -236 450 -236 q 101 -188 188 -236 q 15 -26 15 -140 q 58 108 15 51 q 182 233 101 165 q 280 328 247 288 q 313 417 313 368 q 336 426 319 422 q 368 429 353 429 z "},"\"":{"ha":550,"x_min":40,"x_max":501,"o":"m 56 660 q 61 774 61 706 q 40 992 61 894 q 110 1000 79 1000 q 208 969 178 1000 q 239 868 239 938 q 219 755 239 817 q 171 660 199 693 l 56 660 m 318 660 q 324 774 324 706 q 303 992 324 894 q 372 1000 342 1000 q 471 969 440 1000 q 501 868 501 938 q 481 755 501 817 q 433 660 461 693 l 318 660 z "},"'":{"ha":288,"x_min":40,"x_max":239,"o":"m 56 660 q 61 774 61 706 q 40 992 61 894 q 110 1000 79 1000 q 208 969 178 1000 q 239 868 239 938 q 219 755 239 817 q 171 660 199 693 l 56 660 z "},";":{"ha":361,"x_min":56,"x_max":311,"o":"m 56 0 m 188 736 q 277 710 243 736 q 311 636 311 683 q 275 562 311 588 q 182 536 239 536 q 92 561 126 536 q 57 633 57 586 q 94 709 57 682 q 188 736 131 736 m 172 165 q 272 130 238 165 q 307 28 307 94 q 281 -72 307 -25 q 209 -149 254 -119 q 113 -178 164 -178 q 56 -169 82 -178 q 114 13 114 -83 q 81 143 114 82 q 122 159 96 153 q 172 165 147 165 z "},"/":{"ha":464,"x_min":43,"x_max":421,"o":"m 318 1111 q 392 1093 364 1111 q 421 1033 421 1075 q 415 981 421 1011 l 200 -274 q 146 -278 182 -278 q 43 -201 43 -278 q 49 -147 43 -181 l 264 1106 q 318 1111 289 1111 z "},"_":{"ha":704,"x_min":10,"x_max":694,"o":"m 18 -192 q 10 -140 10 -174 q 34 -78 10 -99 q 103 -58 58 -58 l 686 -58 q 694 -110 694 -76 q 670 -172 694 -151 q 601 -192 646 -192 l 18 -192 z "},"{":{"ha":496,"x_min":40,"x_max":479,"o":"m 351 1111 q 479 1100 417 1111 l 479 1029 l 442 1029 q 365 996 386 1029 q 343 892 343 963 l 343 590 q 314 482 343 519 q 217 436 285 444 q 297 408 269 429 q 332 355 324 388 q 340 271 340 322 l 340 -19 q 360 -144 340 -93 q 438 -194 381 -194 l 475 -194 l 472 -267 q 346 -278 400 -278 q 200 -233 244 -278 q 156 -93 156 -187 l 156 232 q 40 385 156 385 l 42 475 q 130 512 101 475 q 158 622 158 549 l 158 939 q 201 1072 158 1033 q 351 1111 244 1111 z "},"}":{"ha":532,"x_min":17,"x_max":456,"o":"m 153 590 q 182 482 153 519 q 279 436 211 444 q 199 408 226 429 q 164 355 172 388 q 156 271 156 322 l 156 -19 q 135 -144 156 -93 q 58 -194 115 -194 l 21 -194 l 24 -267 q 150 -278 96 -278 q 296 -233 251 -278 q 340 -93 340 -187 l 340 232 q 456 385 340 385 l 454 475 q 366 512 394 475 q 338 622 338 549 l 338 939 q 294 1072 338 1033 q 144 1111 251 1111 q 17 1100 79 1111 l 17 1029 l 54 1029 q 131 996 110 1029 q 153 892 153 963 l 153 590 z "},"[":{"ha":446,"x_min":107,"x_max":476,"o":"m 467 1099 q 476 1057 476 1079 q 417 1006 476 1006 l 294 1006 l 294 -171 l 417 -171 q 476 -222 476 -171 q 467 -264 476 -244 l 107 -264 l 107 1099 l 467 1099 z "},"]":{"ha":446,"x_min":-31,"x_max":339,"o":"m -21 -264 q -31 -222 -31 -244 q 29 -171 -31 -171 l 151 -171 l 151 1006 l 29 1006 q -31 1057 -31 1006 q -21 1099 -31 1079 l 339 1099 l 339 -264 l -21 -264 z "},"(":{"ha":488,"x_min":111,"x_max":560,"o":"m 489 1111 q 560 1083 538 1111 q 365 813 429 989 q 300 417 300 636 q 365 21 300 197 q 560 -250 429 -156 q 489 -278 538 -278 q 302 -185 389 -278 q 163 68 215 -92 q 111 417 111 228 q 163 765 111 606 q 302 1018 215 925 q 489 1111 389 1111 z "},")":{"ha":488,"x_min":-72,"x_max":376,"o":"m 3 1111 q 191 1018 106 1111 q 326 766 276 925 q 376 417 376 607 q 326 68 376 228 q 191 -185 276 -92 q 3 -278 106 -278 q -72 -249 -47 -278 q 123 21 58 -156 q 188 417 188 197 q 123 813 188 636 q -72 1083 58 989 q 3 1111 -46 1111 z "},"—":{"ha":1306,"x_min":10,"x_max":1296,"o":"m 18 268 q 10 319 10 286 q 103 400 10 400 l 1286 400 q 1296 350 1296 381 q 1201 268 1296 268 l 18 268 z "},"–":{"ha":664,"x_min":10,"x_max":654,"o":"m 18 268 q 10 319 10 286 q 103 400 10 400 l 644 400 q 654 350 654 381 q 560 268 654 268 l 18 268 z "},"-":{"ha":543,"x_min":53,"x_max":490,"o":"m 65 260 q 56 285 60 269 q 53 313 53 301 q 142 396 53 392 l 478 410 q 487 383 483 399 q 490 356 490 367 q 400 274 490 278 l 65 260 z "},"­":{"ha":543,"x_min":53,"x_max":490,"o":"m 65 260 q 56 285 60 269 q 53 313 53 301 q 76 374 53 354 q 142 396 99 393 l 478 410 q 487 383 483 399 q 490 356 490 367 q 400 274 490 278 l 65 260 z "},"«":{"ha":703,"x_min":31,"x_max":656,"o":"m 206 708 l 354 708 l 238 440 l 351 175 l 204 175 l 31 440 l 206 708 m 504 708 l 656 708 l 535 440 l 649 175 l 501 175 l 328 440 l 504 708 z "},"»":{"ha":703,"x_min":47,"x_max":672,"o":"m 199 708 l 375 440 l 201 175 l 53 175 l 168 440 l 47 708 l 199 708 m 497 708 l 672 440 l 499 175 l 350 175 l 465 440 l 349 708 l 497 708 z "},"‹":{"ha":401,"x_min":31,"x_max":354,"o":"m 206 708 l 354 708 l 238 440 l 351 175 l 204 175 l 31 440 l 206 708 z "},"›":{"ha":401,"x_min":47,"x_max":372,"o":"m 372 440 l 197 175 l 50 175 l 164 440 l 47 708 l 197 708 l 372 440 z "},"„":{"ha":628,"x_min":36,"x_max":581,"o":"m 151 165 q 253 130 218 165 q 288 28 288 94 q 261 -72 288 -25 q 190 -149 235 -119 q 93 -178 144 -178 q 36 -169 64 -178 q 94 13 94 -83 q 61 143 94 82 q 102 159 76 153 q 151 165 128 165 m 446 165 q 547 130 513 165 q 581 28 581 94 q 554 -72 581 -25 q 483 -149 528 -119 q 388 -178 439 -178 q 329 -169 357 -178 q 388 13 388 -86 q 354 143 388 82 q 396 159 369 153 q 446 165 422 165 z "},"“":{"ha":628,"x_min":46,"x_max":592,"o":"m 181 657 q 80 692 114 657 q 46 794 46 728 q 72 895 46 847 q 143 972 99 943 q 240 1001 188 1001 q 297 992 272 1001 q 239 811 239 906 q 272 681 239 739 q 231 663 257 669 q 181 657 206 657 m 475 657 q 374 692 408 657 q 340 794 340 728 q 367 895 340 847 q 438 972 393 943 q 533 1001 482 1001 q 592 992 567 1001 q 533 811 533 908 q 567 681 533 739 q 526 663 551 669 q 475 657 500 657 z "},"”":{"ha":628,"x_min":36,"x_max":581,"o":"m 151 1001 q 253 966 218 1001 q 288 864 288 931 q 261 763 288 811 q 190 686 235 715 q 93 657 144 657 q 36 667 61 657 q 94 849 94 753 q 61 979 94 918 q 102 995 76 989 q 151 1001 128 1001 m 446 1001 q 547 966 513 1001 q 581 864 581 931 q 554 763 581 811 q 483 686 528 715 q 388 657 439 657 q 329 667 354 657 q 388 849 388 750 q 354 979 388 918 q 396 995 369 989 q 446 1001 422 1001 z "},"‘":{"ha":383,"x_min":96,"x_max":347,"o":"m 232 657 q 131 692 165 657 q 96 794 96 728 q 122 895 96 847 q 193 972 149 943 q 290 1001 238 1001 q 347 992 322 1001 q 289 811 289 906 q 322 681 289 739 q 281 663 307 669 q 232 657 256 657 z "},"’":{"ha":333,"x_min":36,"x_max":288,"o":"m 151 1001 q 253 966 218 1001 q 288 864 288 931 q 261 763 288 811 q 190 686 235 715 q 93 657 144 657 q 36 667 61 657 q 94 849 94 753 q 61 979 94 918 q 102 995 76 989 q 151 1001 128 1001 z "},"‚":{"ha":333,"x_min":36,"x_max":288,"o":"m 151 165 q 253 130 218 165 q 288 28 288 94 q 261 -73 288 -25 q 190 -150 235 -121 q 93 -179 146 -179 q 36 -169 61 -179 q 94 13 94 -83 q 61 143 94 82 q 102 159 76 153 q 151 165 128 165 z "}," ":{"ha":967,"x_min":0,"x_max":0,"o":""}," ":{"ha":700,"x_min":0,"x_max":0,"o":""}," ":{"ha":565,"x_min":0,"x_max":0,"o":""}," ":{"ha":243,"x_min":0,"x_max":0,"o":""}," ":{"ha":610,"x_min":0,"x_max":0,"o":""},"¢":{"ha":807,"x_min":104,"x_max":735,"o":"m 669 314 q 718 242 718 297 q 653 113 718 161 q 504 60 589 65 l 504 15 q 433 -68 504 -68 q 375 -54 403 -68 l 375 68 q 176 188 249 96 q 104 438 104 281 q 175 690 104 596 q 372 813 246 783 l 372 871 q 390 933 372 910 q 444 956 408 956 q 501 940 474 956 l 501 825 q 666 785 597 824 q 735 658 735 747 q 697 580 735 607 q 603 553 660 553 q 568 556 588 553 q 538 567 549 560 q 546 633 546 611 q 471 743 546 743 q 322 449 322 743 q 362 265 322 333 q 510 196 401 196 q 609 227 568 196 q 669 314 650 258 z "},"¤":{"ha":807,"x_min":60,"x_max":736,"o":"m 651 140 l 532 258 q 400 228 476 228 q 278 253 331 228 l 167 135 l 75 224 l 186 332 q 150 465 150 388 q 186 596 150 540 l 60 704 l 133 797 l 267 672 q 400 706 324 706 q 525 678 469 706 l 649 800 l 732 713 l 610 603 q 650 465 650 546 q 617 336 650 394 l 736 231 l 651 140 m 400 342 q 483 376 453 342 q 513 467 513 411 q 482 558 513 524 q 400 593 451 593 q 318 558 349 593 q 288 467 288 524 q 317 376 288 411 q 400 342 346 342 z "},"$":{"ha":807,"x_min":76,"x_max":732,"o":"m 732 247 q 654 56 732 122 q 458 -25 576 -10 l 458 -81 q 441 -142 458 -119 q 388 -164 424 -164 q 329 -149 360 -164 l 329 -29 q 150 24 224 -21 q 76 164 76 69 q 116 263 76 225 q 217 300 156 300 q 289 285 263 300 q 279 211 279 242 q 399 67 279 67 q 489 98 454 67 q 524 182 524 129 q 499 258 524 225 q 440 315 475 292 q 342 371 404 338 q 217 444 265 411 q 136 531 169 478 q 103 658 103 583 q 176 830 103 767 q 354 911 249 893 l 354 965 q 372 1027 354 1004 q 425 1050 389 1050 q 483 1035 453 1050 l 483 914 q 648 863 581 906 q 715 733 715 821 q 676 639 715 672 q 575 606 638 606 q 503 621 532 606 q 513 701 513 656 q 488 788 513 757 q 411 819 464 819 q 338 794 365 819 q 311 724 311 769 q 336 639 311 675 q 399 578 361 603 q 501 519 438 553 q 622 449 576 481 q 700 367 668 417 q 732 247 732 318 z "},"€":{"ha":807,"x_min":-4,"x_max":788,"o":"m 733 256 q 788 164 788 229 q 743 57 788 101 q 629 -9 699 13 q 486 -31 560 -31 q 224 58 314 -31 q 107 293 133 147 l 3 293 q -4 331 -4 311 q 14 374 -4 360 q 64 389 32 389 l 96 389 q 94 442 94 407 q 96 479 94 467 l 3 479 q -4 517 -4 497 q 14 560 -4 546 q 64 575 32 575 l 107 575 q 238 823 138 729 q 508 917 339 917 q 788 753 788 917 q 747 663 788 694 q 647 631 707 631 q 575 647 603 631 q 585 719 585 681 q 563 794 585 771 q 492 817 542 817 q 383 749 415 817 q 344 575 351 681 l 585 575 q 590 539 590 563 q 522 479 590 479 l 342 479 l 342 472 q 344 389 342 417 l 585 389 q 590 353 590 376 q 522 293 590 293 l 357 293 q 532 135 392 135 q 653 164 604 135 q 733 256 703 193 z "},"ƒ":{"ha":807,"x_min":-79,"x_max":796,"o":"m 553 1000 q 723 973 650 1000 q 796 878 796 946 q 758 804 796 829 q 663 779 719 779 q 597 793 617 779 q 606 851 606 821 q 591 908 606 888 q 544 929 576 929 q 479 889 494 929 q 464 779 464 849 l 464 575 l 688 575 q 693 539 693 563 q 626 479 693 479 l 464 479 l 464 -22 q 382 -196 464 -142 q 164 -250 300 -250 q -7 -223 65 -250 q -79 -128 -79 -196 q -42 -54 -79 -79 q 53 -29 -4 -29 q 118 -43 101 -29 q 110 -101 110 -79 q 125 -158 110 -137 q 172 -179 140 -179 q 238 -139 222 -179 q 253 -29 253 -99 l 253 479 l 106 479 q 100 517 100 494 q 117 560 100 546 q 167 575 135 575 l 251 575 l 251 772 q 334 946 251 892 q 553 1000 417 1000 z "},"₲":{"ha":807,"x_min":50,"x_max":775,"o":"m 574 393 l 757 413 l 757 26 q 507 -29 650 -22 l 507 -81 q 490 -142 507 -119 q 436 -164 472 -164 q 378 -149 406 -164 l 378 -25 q 129 124 208 0 q 50 439 50 247 q 137 768 50 644 q 403 913 224 892 l 403 965 q 420 1027 403 1004 q 474 1050 438 1050 q 532 1035 501 1050 l 532 914 q 708 860 642 906 q 775 722 775 815 q 735 624 775 661 q 635 586 696 586 q 563 601 592 586 q 572 675 572 646 q 544 778 572 739 q 458 817 517 817 q 299 471 299 817 q 335 210 299 308 q 486 111 372 111 q 581 126 540 111 l 574 393 z "},"£":{"ha":807,"x_min":54,"x_max":749,"o":"m 376 357 q 350 228 376 279 q 265 151 324 178 l 717 161 l 704 0 l 83 0 l 71 114 q 146 183 128 136 q 164 317 164 229 l 164 463 l 61 463 q 54 499 54 479 q 121 558 54 558 l 164 558 l 164 689 q 247 863 164 808 q 465 917 329 917 q 667 878 586 917 q 749 747 749 840 q 709 653 749 686 q 607 619 669 619 q 535 635 560 619 q 544 715 544 669 q 525 811 544 776 q 456 846 506 846 q 391 808 406 846 q 376 696 376 769 l 376 558 l 593 558 q 600 521 600 540 q 532 463 600 463 l 376 463 l 376 357 z "},"¥":{"ha":807,"x_min":40,"x_max":767,"o":"m 517 360 l 517 269 l 681 269 q 688 232 688 251 q 619 174 688 174 l 517 174 l 517 0 l 286 0 l 286 174 l 125 174 q 119 210 119 186 q 186 269 119 269 l 286 269 l 286 360 l 125 360 q 119 396 119 372 q 186 456 119 456 l 261 456 l 40 917 l 282 917 l 436 547 l 574 917 l 767 917 l 536 456 l 681 456 q 688 418 688 438 q 619 360 688 360 l 517 360 z "},"∙":{"ha":343,"x_min":44,"x_max":299,"o":"m 44 254 m 175 454 q 265 428 231 454 q 299 354 299 401 q 263 280 299 306 q 169 254 226 254 q 79 279 114 254 q 44 351 44 304 q 81 427 44 400 q 175 454 118 454 z "},"∕":{"ha":156,"x_min":-94,"x_max":274,"o":"m 208 1000 q 256 987 238 1000 q 274 947 274 974 q 267 903 274 928 l 14 -121 q -29 -126 -6 -126 q -76 -113 -58 -126 q -94 -74 -94 -100 q -87 -29 -94 -54 l 165 994 q 208 1000 185 1000 z "},"+":{"ha":807,"x_min":113,"x_max":694,"o":"m 681 399 q 694 343 694 365 q 674 289 694 308 q 618 269 654 269 l 471 269 l 471 93 q 449 32 471 54 q 389 10 428 10 q 329 24 353 10 l 329 269 l 126 269 q 113 325 113 303 q 133 379 113 360 q 189 399 153 399 l 329 399 l 329 563 q 350 624 329 603 q 410 646 371 646 q 471 632 447 646 l 471 399 l 681 399 z "},"−":{"ha":807,"x_min":113,"x_max":694,"o":"m 126 271 q 113 326 113 301 q 133 380 113 361 q 189 399 153 399 l 681 399 q 694 343 694 368 q 674 290 694 308 q 618 271 654 271 l 126 271 z "},"×":{"ha":807,"x_min":111,"x_max":683,"o":"m 643 178 q 674 135 664 151 q 683 99 683 118 q 658 40 683 60 q 593 19 633 19 l 408 239 l 272 68 q 188 18 235 18 q 137 35 157 18 q 111 82 117 51 l 322 336 l 196 478 q 165 519 175 501 q 154 557 154 536 q 180 615 154 594 q 246 636 206 636 l 408 439 l 522 576 q 606 628 561 628 q 656 611 636 628 q 681 564 676 594 l 493 342 l 643 178 z "},"÷":{"ha":807,"x_min":113,"x_max":694,"o":"m 503 556 q 475 496 503 517 q 404 475 447 475 q 334 496 361 475 q 307 553 307 517 q 336 614 307 592 q 408 636 365 636 q 476 615 450 636 q 503 556 503 593 m 126 269 q 113 325 113 303 q 133 379 113 360 q 189 399 153 399 l 681 399 q 694 343 694 365 q 674 289 694 308 q 618 269 654 269 l 126 269 m 503 113 q 475 53 503 74 q 404 32 447 32 q 334 53 361 32 q 307 110 307 74 q 336 171 307 149 q 408 193 365 193 q 476 172 450 193 q 503 113 503 150 z "},"=":{"ha":807,"x_min":113,"x_max":694,"o":"m 126 367 q 113 422 113 400 q 133 476 113 457 q 189 494 153 494 l 681 494 q 694 440 694 464 q 674 385 694 404 q 618 367 654 367 l 126 367 m 126 132 q 113 188 113 165 q 133 241 113 222 q 189 260 153 260 l 681 260 q 694 206 694 229 q 674 151 694 171 q 618 132 654 132 l 126 132 z "},"≠":{"ha":807,"x_min":113,"x_max":694,"o":"m 681 260 q 694 206 694 229 q 674 151 694 171 q 618 132 654 132 l 378 132 l 267 -87 q 202 -68 228 -83 q 176 -24 176 -53 q 193 31 176 -3 l 244 132 l 126 132 q 113 188 113 165 q 133 241 113 222 q 189 260 153 260 l 308 260 l 363 367 l 126 367 q 113 422 113 400 q 133 476 113 457 q 189 494 153 494 l 428 494 l 544 726 q 608 707 582 722 q 635 663 635 692 q 618 608 635 642 l 561 494 l 681 494 q 694 440 694 464 q 674 385 694 404 q 618 367 654 367 l 496 367 l 442 260 l 681 260 z "},">":{"ha":807,"x_min":147,"x_max":678,"o":"m 678 347 l 333 82 q 310 63 329 78 q 272 40 290 47 q 236 32 253 32 q 176 53 200 32 q 147 115 153 75 l 438 343 l 200 511 q 169 547 181 526 q 158 590 158 568 q 184 649 158 628 q 250 669 210 669 l 678 347 z "},"<":{"ha":807,"x_min":129,"x_max":660,"o":"m 607 197 q 649 119 649 165 q 623 56 649 79 q 557 32 597 32 l 129 356 l 475 621 q 501 640 482 626 q 537 662 519 654 q 572 669 554 669 q 631 648 608 669 q 660 588 654 626 l 376 365 l 607 197 z "},"≥":{"ha":807,"x_min":157,"x_max":651,"o":"m 617 406 l 392 218 q 343 182 364 194 q 300 169 322 169 q 249 188 271 169 q 228 236 228 207 q 232 264 228 250 l 426 408 l 283 514 q 229 590 229 553 q 251 644 229 624 q 308 664 274 664 l 617 406 m 639 124 q 651 71 651 96 q 578 0 651 0 l 169 0 q 157 53 157 31 q 231 124 157 124 l 639 124 z "},"≤":{"ha":807,"x_min":156,"x_max":650,"o":"m 506 664 q 557 644 538 664 q 576 593 576 624 q 575 579 576 583 l 381 435 l 524 329 q 578 253 578 290 q 556 199 578 219 q 499 179 533 179 l 190 438 l 415 625 q 506 664 461 664 m 638 124 q 650 71 650 96 q 576 0 650 0 l 168 0 q 156 53 156 31 q 229 124 156 124 l 638 124 z "},"±":{"ha":807,"x_min":144,"x_max":663,"o":"m 158 351 q 144 406 144 376 q 165 460 144 442 q 221 479 185 479 l 333 479 l 333 576 q 354 638 333 617 q 414 660 375 660 q 475 646 451 660 l 475 479 l 649 479 q 663 424 663 454 q 642 370 663 389 q 586 351 622 351 l 475 351 l 475 261 q 453 200 475 222 q 393 178 432 178 q 333 192 357 178 l 333 351 l 158 351 m 636 133 q 649 81 649 106 q 574 10 649 10 l 168 10 q 156 63 156 38 q 231 133 156 133 l 636 133 z "},"≈":{"ha":807,"x_min":114,"x_max":693,"o":"m 239 529 q 417 501 294 529 q 495 486 457 493 q 558 479 533 479 q 617 488 590 479 q 654 515 643 497 q 683 477 672 499 q 693 433 693 456 q 658 375 693 394 q 568 356 624 356 q 390 383 513 356 q 312 399 350 392 q 249 406 274 406 q 190 397 217 406 q 153 369 164 388 q 124 408 135 386 q 114 451 114 429 q 149 510 114 490 q 239 529 183 529 m 239 292 q 417 264 294 292 q 495 249 457 256 q 558 242 533 242 q 617 251 590 242 q 654 278 643 260 q 682 239 671 261 q 693 196 693 217 q 658 138 693 157 q 568 118 624 118 q 390 146 513 118 q 312 161 350 154 q 249 168 274 168 q 190 159 217 168 q 153 132 164 150 q 124 170 135 149 q 114 214 114 192 q 149 272 114 253 q 239 292 183 292 z "},"~":{"ha":807,"x_min":122,"x_max":685,"o":"m 549 356 q 488 363 525 356 q 415 378 451 369 q 247 406 301 406 q 157 386 192 406 q 122 326 122 367 q 133 283 122 306 q 163 246 144 261 q 201 273 174 264 q 258 282 228 282 q 319 275 282 282 q 392 260 356 268 q 560 232 506 232 q 650 251 615 232 q 685 311 685 271 q 674 354 685 332 q 644 392 663 376 q 606 365 633 374 q 549 356 579 356 z "},"¬":{"ha":807,"x_min":75,"x_max":690,"o":"m 690 14 q 628 -3 654 -3 q 567 20 589 -3 q 546 83 546 43 l 546 271 l 89 271 q 75 326 75 296 q 95 380 75 361 q 151 399 115 399 l 690 399 l 690 14 z "},"∞":{"ha":807,"x_min":3,"x_max":804,"o":"m 603 154 q 495 194 546 154 q 389 307 444 235 q 309 196 357 238 q 200 154 261 154 q 56 221 108 154 q 3 390 3 288 q 56 573 3 500 q 204 646 110 646 q 313 605 263 646 q 417 493 363 564 q 498 604 450 563 q 607 646 546 646 q 752 579 700 646 q 804 410 804 513 q 751 227 804 300 q 603 154 699 154 m 621 293 q 678 319 658 293 q 699 388 699 346 q 660 481 699 444 q 567 518 622 518 q 467 433 508 518 q 549 328 514 364 q 621 293 583 293 m 242 282 q 342 367 300 282 q 258 472 293 436 q 188 507 224 507 q 130 481 150 507 q 110 413 110 456 q 147 318 110 354 q 242 282 185 282 z "},"∫":{"ha":807,"x_min":-46,"x_max":783,"o":"m 554 1000 q 715 970 646 1000 q 783 875 783 940 q 748 806 783 829 q 658 782 713 782 q 597 794 615 782 q 606 851 606 831 q 544 929 606 929 q 479 889 494 929 q 464 779 464 849 l 464 -22 q 185 -250 464 -250 q 24 -220 93 -250 q -46 -125 -46 -190 q -10 -56 -46 -79 q 79 -32 26 -32 q 140 -44 122 -32 q 132 -101 132 -81 q 193 -179 132 -179 q 258 -139 243 -179 q 274 -29 274 -99 l 274 772 q 554 1000 274 1000 z "},"Ω":{"ha":878,"x_min":38,"x_max":832,"o":"m 38 0 m 435 944 q 731 822 631 944 q 832 489 832 699 q 597 131 832 224 l 810 131 l 810 0 l 486 0 l 465 115 q 558 240 533 150 q 583 463 583 331 q 555 736 583 628 q 435 844 526 844 q 314 735 343 844 q 285 463 285 626 q 310 240 285 331 q 404 115 336 150 l 383 0 l 58 0 l 58 131 l 272 131 q 38 489 38 222 q 138 822 38 699 q 435 944 239 944 z "},"∆":{"ha":807,"x_min":-21,"x_max":828,"o":"m 524 917 l 828 0 l -21 0 l 288 917 l 524 917 m 371 750 l 175 101 l 569 101 l 379 717 l 371 750 z "},"∏":{"ha":807,"x_min":54,"x_max":753,"o":"m 753 917 l 753 -110 l 522 -110 l 522 807 l 285 807 l 285 -110 l 54 -110 l 54 917 l 753 917 z "},"∑":{"ha":807,"x_min":17,"x_max":778,"o":"m 688 944 q 731 928 715 944 q 747 885 747 913 q 728 822 747 849 l 292 822 l 560 458 l 293 68 l 760 68 q 769 40 761 63 q 778 -6 778 18 q 751 -82 778 -54 q 676 -110 724 -110 l 17 -110 l 367 401 l 74 814 q 50 852 58 835 q 42 890 42 869 q 58 944 42 921 l 688 944 z "},"√":{"ha":807,"x_min":51,"x_max":1071,"o":"m 1058 1128 q 1071 1075 1071 1097 q 1052 1019 1071 1039 q 999 1000 1033 1000 l 775 1000 l 538 0 l 292 0 l 51 679 q 108 719 76 703 q 175 735 140 735 q 238 716 215 735 q 276 653 261 697 l 447 160 l 671 1128 l 1058 1128 z "},"µ":{"ha":799,"x_min":86,"x_max":756,"o":"m 86 0 m 713 139 q 722 71 713 100 q 756 19 732 42 q 710 -10 740 0 q 650 -21 681 -21 q 564 1 599 -21 q 517 63 529 22 q 440 -6 489 17 q 333 -29 392 -29 q 299 -28 310 -29 l 299 -250 l 86 -268 l 86 708 l 301 731 l 301 335 q 306 193 301 246 q 332 105 311 140 q 399 69 353 69 q 476 114 453 69 q 500 225 500 158 l 500 708 l 713 708 l 713 139 z "},"∂":{"ha":807,"x_min":60,"x_max":744,"o":"m 379 1000 q 591 920 510 1000 q 708 713 672 840 q 744 438 744 586 q 664 99 744 226 q 403 -29 583 -29 q 222 14 300 -29 q 102 135 144 57 q 60 315 60 213 q 108 520 60 438 q 235 644 156 603 q 410 685 315 685 q 503 672 465 685 q 458 826 492 774 q 342 878 424 878 q 267 857 296 878 q 256 885 260 868 q 251 917 251 901 q 286 980 251 960 q 379 1000 321 1000 m 403 54 q 497 151 475 54 q 519 411 519 249 q 511 565 519 488 q 410 601 464 601 q 309 522 332 601 q 286 325 286 442 q 310 136 286 218 q 403 54 335 54 z "},"%":{"ha":1351,"x_min":50,"x_max":1301,"o":"m 964 965 q 1013 948 990 965 q 1049 901 1035 931 l 472 26 q 435 -19 454 -3 q 390 -35 417 -35 q 342 -17 364 -35 q 306 28 319 0 l 882 904 q 919 949 900 933 q 964 965 938 965 m 294 940 q 476 868 414 940 q 539 675 539 796 q 476 471 539 549 q 294 393 414 393 q 113 469 176 393 q 50 665 50 544 q 113 865 50 789 q 294 940 175 940 m 294 871 q 238 815 253 871 q 222 669 222 758 q 236 520 222 576 q 294 464 250 464 q 351 520 338 464 q 365 669 365 576 q 351 815 365 758 q 294 871 336 871 m 1058 519 q 1240 447 1178 519 q 1301 253 1301 375 q 1240 49 1301 128 q 1058 -29 1178 -29 q 876 47 940 -29 q 813 244 813 122 q 876 444 813 368 q 1058 519 939 519 m 1058 450 q 1001 394 1015 450 q 986 249 986 339 q 1000 98 986 154 q 1058 42 1014 42 q 1115 99 1101 42 q 1129 249 1129 156 q 1115 394 1129 338 q 1058 450 1100 450 z "},"‰":{"ha":1914,"x_min":50,"x_max":1864,"o":"m 964 965 q 1013 948 990 965 q 1049 901 1035 931 l 472 26 q 435 -19 454 -3 q 390 -35 417 -35 q 342 -17 364 -35 q 306 28 319 0 l 882 904 q 919 949 900 933 q 964 965 938 965 m 294 940 q 476 868 414 940 q 539 675 539 796 q 476 471 539 549 q 294 393 414 393 q 113 469 176 393 q 50 665 50 544 q 113 865 50 789 q 294 940 175 940 m 294 871 q 238 815 253 871 q 222 669 222 758 q 236 520 222 576 q 294 464 250 464 q 351 520 338 464 q 365 669 365 576 q 351 815 365 758 q 294 871 336 871 m 1058 519 q 1240 447 1178 519 q 1301 253 1301 375 q 1240 49 1301 128 q 1058 -29 1178 -29 q 876 47 940 -29 q 813 244 813 122 q 876 444 813 368 q 1058 519 939 519 m 1621 519 q 1802 447 1740 519 q 1864 253 1864 375 q 1802 49 1864 128 q 1621 -29 1740 -29 q 1439 47 1503 -29 q 1375 244 1375 122 q 1438 444 1375 368 q 1621 519 1501 519 m 1058 450 q 1001 394 1015 450 q 986 249 986 339 q 1000 98 986 154 q 1058 42 1014 42 q 1115 99 1101 42 q 1129 249 1129 156 q 1115 394 1129 338 q 1058 450 1100 450 m 1621 450 q 1563 394 1578 450 q 1549 249 1549 339 q 1563 98 1549 154 q 1621 42 1576 42 q 1678 99 1664 42 q 1692 249 1692 156 q 1677 394 1692 338 q 1621 450 1663 450 z "},"◊":{"ha":807,"x_min":18,"x_max":790,"o":"m 521 917 l 790 465 l 500 0 l 288 0 l 18 453 l 308 917 l 521 917 m 385 792 l 208 500 l 424 126 l 600 417 l 385 792 z "},"@":{"ha":1129,"x_min":50,"x_max":1081,"o":"m 565 835 q 831 785 715 835 q 1014 638 947 736 q 1081 397 1081 539 q 1016 169 1081 253 q 819 85 951 85 q 657 165 696 85 q 601 108 639 128 q 510 89 563 89 q 379 128 432 89 q 326 238 326 167 q 410 364 326 331 q 622 397 493 397 l 622 479 q 611 547 622 524 q 565 569 600 569 q 516 551 531 569 q 501 494 501 532 q 507 446 501 476 q 456 436 496 436 q 383 456 411 436 q 354 513 354 475 q 422 603 354 574 q 576 632 489 632 q 737 591 686 632 q 788 447 788 550 l 788 221 q 799 169 788 188 q 840 150 810 150 q 922 206 900 150 q 944 363 944 261 q 565 746 944 746 q 285 639 383 746 q 188 344 188 532 q 284 58 188 156 q 569 -40 381 -40 q 703 -28 643 -40 q 804 21 763 -15 q 828 -26 828 6 q 747 -108 828 -81 q 564 -136 667 -136 q 294 -79 411 -136 q 114 86 178 -22 q 50 344 50 194 q 113 599 50 488 q 292 772 175 710 q 565 835 408 835 m 622 336 q 494 242 494 336 q 510 188 494 208 q 556 168 525 168 q 606 195 589 168 q 622 263 622 222 l 622 336 z "},"&":{"ha":971,"x_min":42,"x_max":978,"o":"m 956 140 q 978 68 978 107 q 942 -4 978 19 q 846 -28 906 -28 q 650 33 760 -28 q 414 -29 547 -29 q 226 3 310 -29 q 92 100 142 35 q 42 261 42 165 q 88 405 42 349 q 217 490 135 461 q 146 718 146 622 q 232 886 146 829 q 449 944 318 943 q 642 903 564 944 q 721 769 721 861 q 682 679 721 713 q 586 646 643 646 q 517 663 543 646 q 525 732 525 696 q 503 817 525 786 q 433 849 481 849 q 344 733 344 849 q 385 558 344 653 q 495 373 426 463 q 644 219 564 283 q 658 344 658 269 q 600 507 658 450 q 642 525 617 518 q 692 532 668 532 q 808 488 769 532 q 847 364 847 443 q 774 144 847 242 q 875 124 831 124 q 956 140 926 124 m 244 307 q 301 141 244 203 q 458 79 357 79 q 551 96 513 79 q 403 234 478 153 q 269 403 328 315 q 251 360 258 386 q 244 307 244 335 z "},"¶":{"ha":936,"x_min":67,"x_max":990,"o":"m 203 -136 q 317 -175 247 -175 q 416 -127 389 -175 q 443 10 443 -79 l 443 368 q 338 353 390 353 q 137 431 207 353 q 67 643 67 508 q 162 865 67 799 q 433 931 257 931 q 588 917 519 931 l 588 49 q 532 -191 588 -104 q 344 -278 476 -278 q 228 -250 275 -278 q 182 -178 182 -222 q 188 -153 182 -164 q 203 -136 193 -142 m 990 917 q 967 835 990 861 q 890 810 944 810 q 832 817 856 810 l 832 0 l 696 -21 l 696 917 l 990 917 z "},"§":{"ha":643,"x_min":47,"x_max":597,"o":"m 442 146 q 526 60 496 106 q 556 -46 556 15 q 477 -196 556 -142 q 285 -250 399 -250 q 128 -215 193 -250 q 63 -104 63 -181 q 92 -27 63 -56 q 171 1 122 1 q 228 -14 206 1 q 222 -68 222 -36 q 242 -148 222 -118 q 307 -178 263 -178 q 367 -156 346 -178 q 389 -97 389 -135 q 351 -10 389 -46 q 238 75 314 26 q 138 142 176 113 q 74 215 100 172 q 47 315 47 258 q 90 451 47 392 q 203 549 133 511 q 119 635 150 589 q 89 743 89 682 q 167 891 89 838 q 357 944 246 944 q 515 910 450 944 q 581 799 581 875 q 551 723 581 751 q 474 694 521 694 q 417 710 435 694 q 422 764 422 743 q 339 872 422 872 q 278 851 300 872 q 256 792 256 829 q 294 704 256 742 q 407 621 332 667 q 507 552 469 582 q 571 478 544 522 q 597 379 597 435 q 555 253 597 314 q 442 146 513 193 m 201 386 q 225 311 201 344 q 281 253 249 278 q 374 192 314 229 q 442 308 442 243 q 419 381 442 349 q 365 438 396 414 q 271 501 333 461 q 201 386 201 457 z "},"©":{"ha":1076,"x_min":44,"x_max":1033,"o":"m 539 854 q 792 792 679 854 q 969 617 906 729 q 1033 365 1033 506 q 970 116 1033 224 q 795 -51 907 8 q 539 -110 683 -110 q 283 -51 394 -110 q 108 116 171 8 q 44 365 44 224 q 108 617 44 506 q 285 792 172 729 q 539 854 399 854 m 539 760 q 346 709 426 760 q 224 569 265 658 q 182 365 182 481 q 274 87 182 189 q 539 -15 367 -15 q 802 87 710 -15 q 894 365 894 189 q 853 569 894 481 q 731 709 811 658 q 539 760 650 760 m 563 650 q 689 621 639 650 q 739 528 739 592 q 710 472 739 492 q 640 451 682 451 q 589 461 607 451 q 596 508 596 486 q 549 588 596 588 q 472 382 472 588 q 495 254 472 301 q 579 207 518 207 q 649 228 619 207 q 692 286 678 249 q 726 236 726 274 q 675 140 726 174 q 553 106 624 106 q 369 176 432 106 q 306 374 306 247 q 372 577 306 504 q 563 650 438 650 z "},"®":{"ha":1076,"x_min":44,"x_max":1033,"o":"m 539 944 q 792 882 679 944 q 969 708 906 819 q 1033 456 1033 596 q 970 206 1033 314 q 795 40 907 99 q 539 -19 683 -19 q 283 40 394 -19 q 108 206 171 99 q 44 456 44 314 q 108 708 44 596 q 285 882 172 819 q 539 944 399 944 m 539 850 q 346 799 426 850 q 224 660 265 749 q 182 456 182 571 q 274 177 182 279 q 539 75 367 75 q 802 177 710 75 q 894 456 894 279 q 853 660 894 571 q 731 799 811 749 q 539 850 650 850 m 533 738 q 694 704 638 738 q 750 585 750 671 q 724 492 750 531 q 651 439 699 454 l 776 211 l 622 211 l 519 453 q 514 476 514 467 q 581 501 561 476 q 601 579 601 526 q 526 678 601 678 q 507 676 517 678 q 490 674 497 675 l 490 211 l 343 211 l 343 729 q 533 738 463 738 z "},"™":{"ha":1050,"x_min":10,"x_max":985,"o":"m 381 917 l 375 843 l 267 843 l 267 413 l 121 413 l 121 843 l 10 843 l 10 917 l 381 917 m 936 917 l 985 413 l 843 413 l 813 807 l 711 413 l 610 413 l 511 808 l 481 413 l 386 413 l 438 917 l 613 917 l 688 597 l 764 917 l 936 917 z "},"°":{"ha":504,"x_min":19,"x_max":485,"o":"m 251 514 q 133 542 186 514 q 50 619 81 569 q 19 735 19 669 q 84 892 19 835 q 251 950 149 950 q 420 892 356 950 q 485 735 485 835 q 419 575 485 636 q 251 514 353 514 m 251 597 q 327 635 303 597 q 351 735 351 674 q 326 829 351 792 q 251 867 301 867 q 178 829 203 867 q 153 735 153 792 q 176 636 153 675 q 251 597 200 597 z "},"|":{"ha":393,"x_min":110,"x_max":283,"o":"m 283 1111 l 110 1111 l 110 -278 l 283 -278 l 283 1111 z "},"¦":{"ha":394,"x_min":110,"x_max":285,"o":"m 285 539 l 285 917 l 111 917 l 111 539 l 285 539 m 283 0 l 283 378 l 110 378 l 110 0 l 283 0 z "},"ℓ":{"ha":547,"x_min":6,"x_max":519,"o":"m 482 178 q 518 113 518 161 q 460 15 518 51 q 310 -21 403 -21 q 136 41 192 -21 q 81 222 81 103 l 81 296 q 6 292 43 292 l 6 386 q 81 390 44 386 l 81 665 q 142 869 81 793 q 324 944 204 944 q 469 893 418 944 q 519 724 519 842 q 458 485 519 585 q 289 333 396 386 l 289 224 q 307 144 289 174 q 374 114 325 114 q 439 131 410 114 q 482 178 468 147 m 347 851 q 303 819 317 851 q 289 746 289 788 l 289 446 q 408 725 408 536 q 394 817 408 783 q 347 851 379 851 z "},"†":{"ha":576,"x_min":24,"x_max":575,"o":"m 417 -158 q 367 -188 397 -178 q 307 -199 338 -199 q 218 -165 247 -199 q 189 -68 189 -131 q 199 96 189 -31 l 231 528 q 51 485 136 528 q 24 593 24 532 q 51 701 24 650 q 231 657 131 657 q 215 774 231 715 q 172 900 200 832 q 233 923 197 915 q 300 931 268 931 q 367 923 332 931 q 426 900 401 915 q 369 657 369 763 q 547 701 469 657 q 575 593 575 654 q 547 485 575 528 q 369 528 465 528 l 417 -158 z "},"‡":{"ha":608,"x_min":26,"x_max":578,"o":"m 392 225 q 550 269 478 229 q 578 161 578 221 q 550 54 578 101 q 400 94 475 90 l 418 -158 q 370 -188 400 -178 q 308 -199 340 -199 q 219 -165 249 -199 q 190 -68 190 -131 q 197 49 190 -39 q 200 94 197 61 q 54 54 124 90 q 26 161 26 97 q 54 269 26 224 q 210 225 128 229 l 232 528 q 54 485 136 528 q 26 593 26 528 q 54 701 26 654 q 232 657 132 657 q 175 900 232 763 q 235 923 200 915 q 301 931 269 931 q 369 923 333 931 q 428 900 404 915 q 385 773 400 831 q 371 657 371 715 q 550 701 471 657 q 578 593 578 650 q 550 485 578 532 q 371 528 465 528 l 392 225 z "},"℮":{"ha":1076,"x_min":44,"x_max":1033,"o":"m 539 944 q 792 882 679 944 q 969 708 906 819 q 1033 456 1033 596 q 1032 428 1033 436 l 296 428 l 296 181 q 404 114 340 138 q 543 90 468 90 q 731 130 647 90 q 864 240 814 169 l 957 171 q 784 30 892 79 q 543 -19 676 -19 q 284 39 397 -19 q 108 206 171 97 q 44 456 44 314 q 108 708 44 596 q 285 882 172 819 q 539 944 399 944 m 539 835 q 405 810 467 835 q 296 739 343 785 l 296 538 l 782 538 l 782 736 q 674 809 736 783 q 539 835 611 835 z "},"^":{"ha":700,"x_min":10,"x_max":690,"o":"m 447 917 q 544 641 485 750 q 690 467 603 532 q 590 397 668 397 q 448 479 511 397 q 335 742 385 561 q 211 478 268 558 q 97 397 154 397 q 10 467 32 397 q 173 640 104 519 q 282 917 242 760 l 447 917 z "},"̈":{"ha":0,"x_min":-274,"x_max":281,"o":"m 0 822 m 156 1022 q 247 996 213 1022 q 281 922 281 969 q 244 848 281 874 q 151 822 208 822 q 60 848 96 822 q 25 919 25 874 q 62 995 25 968 q 156 1022 99 1022 m -143 1022 q -52 996 -86 1022 q -18 922 -18 969 q -54 848 -18 874 q -147 822 -90 822 q -238 848 -203 822 q -274 919 -274 874 q -237 995 -274 968 q -143 1022 -200 1022 z "},"̇":{"ha":0,"x_min":-128,"x_max":128,"o":"m 0 822 m 3 1022 q 94 996 60 1022 q 128 922 128 969 q 92 848 128 874 q -1 822 56 822 q -92 848 -57 822 q -128 919 -128 874 q -91 995 -128 968 q 3 1022 -54 1022 z "},"̀":{"ha":0,"x_min":-224,"x_max":118,"o":"m 0 796 m -87 857 q -187 905 -151 881 q -224 971 -224 929 q -203 1026 -224 1000 q -153 1063 -183 1051 l 118 853 l 86 796 l -87 857 z "},"́":{"ha":0,"x_min":-90,"x_max":251,"o":"m 0 796 m 182 1063 q 231 1026 211 1051 q 251 971 251 1000 q 215 903 251 928 q 115 857 179 879 l -58 796 l -90 853 l 182 1063 z "},"̋":{"ha":0,"x_min":-217,"x_max":347,"o":"m 0 771 m -18 1082 q 47 1051 19 1076 q 75 992 75 1026 q -24 861 75 919 l -169 771 l -217 818 l -18 1082 m 254 1082 q 319 1051 292 1076 q 347 992 347 1026 q 249 861 347 919 l 103 771 l 56 818 l 254 1082 z "},"̂":{"ha":0,"x_min":-224,"x_max":225,"o":"m 0 806 m -176 806 l -224 863 l -18 1035 l 15 1035 l 225 863 l 178 806 l 0 892 l -176 806 z "},"̌":{"ha":0,"x_min":-225,"x_max":224,"o":"m 0 799 m 176 1042 l 224 985 l 25 799 l -22 799 l -225 985 l -178 1042 l 0 940 l 176 1042 z "},"̆":{"ha":0,"x_min":-237,"x_max":242,"o":"m 0 818 m 242 1025 q 178 874 242 931 q 3 818 115 818 q -174 874 -111 818 q -237 1025 -237 929 l -71 1025 q -58 924 -71 958 q 3 890 -46 890 q 63 924 51 890 q 75 1025 75 958 l 242 1025 z "},"̊":{"ha":0,"x_min":-153,"x_max":157,"o":"m 0 794 m 3 794 q -108 831 -64 794 q -153 929 -153 868 q -110 1025 -153 990 q 3 1060 -67 1060 q 114 1026 71 1060 q 157 929 157 992 q 113 831 157 868 q 3 794 69 794 m 3 846 q 52 869 36 846 q 68 929 68 892 q 51 986 68 964 q 3 1008 35 1008 q -47 986 -31 1008 q -64 929 -64 964 q -47 869 -64 892 q 3 846 -31 846 z "},"̃":{"ha":0,"x_min":-244,"x_max":243,"o":"m 0 833 m 208 990 q 233 954 224 975 q 243 913 243 933 q 131 833 243 833 q 58 840 103 833 q -1 849 13 847 q -128 864 -87 864 q -210 839 -185 864 q -235 875 -225 854 q -244 917 -244 896 q -132 996 -244 996 q -60 989 -104 996 q -1 981 -15 982 q 126 965 85 965 q 208 990 183 965 z "},"̄":{"ha":0,"x_min":-187,"x_max":218,"o":"m 0 857 m 206 978 q 218 924 218 953 q 197 875 218 893 q 138 857 175 857 l -176 857 q -187 908 -187 876 q -167 959 -187 940 q -112 978 -147 978 l 206 978 z "},"̣":{"ha":0,"x_min":-133,"x_max":122,"o":"m -3 -65 q 88 -92 54 -65 q 122 -165 122 -118 q 86 -240 122 -214 q -7 -265 50 -265 q -98 -240 -62 -265 q -133 -168 -133 -214 q -97 -92 -133 -119 q -3 -65 -60 -65 z "},"̦":{"ha":0,"x_min":-232,"x_max":-14,"o":"m -128 -71 q -14 -178 -14 -71 q -36 -258 -14 -219 q -97 -320 -58 -296 q -181 -344 -136 -344 q -232 -337 -204 -344 q -181 -192 -181 -267 q -210 -89 -181 -136 q -172 -76 -196 -81 q -128 -71 -149 -71 z "},"̧":{"ha":0,"x_min":-125,"x_max":207,"o":"m 0 0 m 44 -83 q 163 -115 119 -83 q 207 -214 207 -147 q 150 -317 207 -279 q 15 -356 93 -356 q -82 -337 -39 -356 q -125 -274 -125 -318 q -110 -229 -125 -244 q -6 -271 -74 -271 q 46 -256 25 -271 q 67 -214 67 -240 q -36 -153 67 -153 q -93 -157 -65 -153 l -29 15 l 46 15 l 6 -85 q 44 -83 19 -83 z "},"ʼ":{"ha":276,"x_min":17,"x_max":235,"o":"m 122 1003 q 208 972 181 1003 q 235 876 235 940 q 213 785 235 829 q 152 715 190 742 q 69 688 114 688 q 17 696 42 688 q 72 860 72 776 q 43 983 72 929 q 78 997 56 992 q 122 1003 101 1003 z "},"ˉ":{"ha":433,"x_min":14,"x_max":419,"o":"m 14 857 m 407 978 q 419 924 419 953 q 398 875 419 893 q 339 857 376 857 l 25 857 q 14 908 14 876 q 34 959 14 940 q 89 978 54 978 l 407 978 z "},"´":{"ha":369,"x_min":14,"x_max":356,"o":"m 286 1063 q 335 1026 315 1051 q 356 971 356 1000 q 319 903 356 928 q 219 857 283 879 l 46 796 l 14 853 l 286 1063 z "},"˘":{"ha":449,"x_min":-15,"x_max":464,"o":"m 464 1025 q 401 874 464 931 q 225 818 338 818 q 48 874 111 818 q -15 1025 -15 929 l 151 1025 q 164 924 151 958 q 225 890 176 890 q 285 924 274 890 q 297 1025 297 958 l 464 1025 z "},"ˇ":{"ha":476,"x_min":14,"x_max":463,"o":"m 415 1042 l 463 985 l 264 799 l 217 799 l 14 985 l 61 1042 l 239 940 l 415 1042 z "},"¸":{"ha":360,"x_min":14,"x_max":346,"o":"m 183 -83 q 302 -115 258 -83 q 346 -214 346 -147 q 289 -317 346 -279 q 154 -356 232 -356 q 57 -337 100 -356 q 14 -274 14 -318 q 29 -229 14 -244 q 133 -271 65 -271 q 185 -256 164 -271 q 206 -214 206 -240 q 103 -153 206 -153 q 46 -157 74 -153 l 110 15 l 185 15 l 144 -85 q 183 -83 158 -83 z "},"ˆ":{"ha":476,"x_min":14,"x_max":463,"o":"m 61 806 l 14 863 l 219 1035 l 253 1035 l 463 863 l 415 806 l 238 892 l 61 806 z "},"¨":{"ha":565,"x_min":6,"x_max":560,"o":"m 6 822 m 435 1022 q 526 996 492 1022 q 560 922 560 969 q 524 848 560 874 q 431 822 488 822 q 340 848 375 822 q 304 919 304 874 q 341 995 304 968 q 435 1022 378 1022 m 136 1022 q 227 996 193 1022 q 261 922 261 969 q 225 848 261 874 q 132 822 189 822 q 41 848 76 822 q 6 919 6 874 q 42 995 6 968 q 136 1022 79 1022 z "},"˙":{"ha":265,"x_min":6,"x_max":261,"o":"m 136 1022 q 227 996 193 1022 q 261 922 261 969 q 225 848 261 874 q 132 822 189 822 q 41 848 76 822 q 6 919 6 874 q 42 995 6 968 q 136 1022 79 1022 z "},"`":{"ha":369,"x_min":14,"x_max":356,"o":"m 150 857 q 50 905 86 881 q 14 971 14 929 q 34 1026 14 1000 q 85 1063 54 1051 l 356 853 l 324 796 l 150 857 z "},"˝":{"ha":600,"x_min":14,"x_max":578,"o":"m 213 1082 q 278 1051 250 1076 q 306 992 306 1026 q 207 861 306 919 l 61 771 l 14 818 l 213 1082 m 485 1082 q 550 1051 522 1076 q 578 992 578 1026 q 479 861 578 919 l 333 771 l 286 818 l 485 1082 z "},"¯":{"ha":433,"x_min":14,"x_max":419,"o":"m 407 978 q 419 924 419 953 q 398 875 419 893 q 339 857 376 857 l 25 857 q 14 908 14 876 q 34 959 14 940 q 89 978 54 978 l 407 978 z "},"˛":{"ha":347,"x_min":14,"x_max":324,"o":"m 267 14 q 181 -74 214 -25 q 149 -178 149 -124 q 167 -237 149 -219 q 226 -256 185 -256 q 267 -247 247 -256 q 297 -224 288 -239 q 324 -269 324 -243 q 282 -334 324 -312 q 190 -356 240 -356 q 63 -319 113 -356 q 14 -212 14 -283 q 70 -72 14 -133 q 211 31 126 -10 l 267 14 z "},"˚":{"ha":338,"x_min":14,"x_max":324,"o":"m 169 794 q 58 831 103 794 q 14 929 14 868 q 57 1025 14 990 q 169 1060 100 1060 q 281 1026 238 1060 q 324 929 324 992 q 280 831 324 868 q 169 794 236 794 m 169 846 q 219 869 203 846 q 235 929 235 892 q 218 986 235 964 q 169 1008 201 1008 q 119 986 136 1008 q 103 929 103 964 q 119 869 103 892 q 169 846 136 846 z "},"˜":{"ha":546,"x_min":36,"x_max":524,"o":"m 489 990 q 514 954 504 975 q 524 913 524 933 q 411 833 524 833 q 338 840 383 833 q 279 849 293 847 q 153 864 193 864 q 71 839 96 864 q 46 875 56 854 q 36 917 36 896 q 149 996 36 996 q 221 989 176 996 q 279 981 265 982 q 407 965 365 965 q 489 990 464 965 z "}}}
